<svg viewBox="0 0 1000 600" xmlns="http://www.w3.org/2000/svg" xmlns:xlink="http://www.w3.org/1999/xlink" width="100%" height="100%">

<rect x="50.0" y="30.0" width="940.0" height="467.99999999999994" stroke="#000" fill="#fff"/>
<line x1="42.0" y1="497.9999999999999" x2="50.0" y2="497.9999999999999" stroke="#000"/>
<text x="26.000000000000004" y="497.9999999999999" text-anchor="end" font-weight="bold" font-size="small" fill="#111">
0.0
</text>
<line x1="42.0" y1="411.0350649350649" x2="50.0" y2="411.0350649350649" stroke="#000"/>
<text x="26.000000000000004" y="411.0350649350649" text-anchor="end" font-weight="bold" font-size="small" fill="#111">
0.5
</text>
<line x1="42.0" y1="324.07012987012985" x2="50.0" y2="324.07012987012985" stroke="#000"/>
<text x="26.000000000000004" y="324.07012987012985" text-anchor="end" font-weight="bold" font-size="small" fill="#111">
1.0
</text>
<line x1="42.0" y1="237.10519480519474" x2="50.0" y2="237.10519480519474" stroke="#000"/>
<text x="26.000000000000004" y="237.10519480519474" text-anchor="end" font-weight="bold" font-size="small" fill="#111">
1.5
</text>
<line x1="42.0" y1="150.14025974025972" x2="50.0" y2="150.14025974025972" stroke="#000"/>
<text x="26.000000000000004" y="150.14025974025972" text-anchor="end" font-weight="bold" font-size="small" fill="#111">
2.0
</text>
<line x1="142.75" y1="54.60000000000001" x2="262.75" y2="54.60000000000001" stroke="#648FFF" stroke-width="2"/>
<text x="202.75" y="49.500000000000014" font-size="small" text-anchor="middle" font-weight="bold" fill="#000">
CRuby 3.4.7
</text>
<rect x="354.25" y="35.400000000000006" width="120.0" height="19.2" fill="#785EF0" stroke="none"/>
<text x="414.25" y="49.500000000000014" font-size="small" text-anchor="middle" font-weight="bold" fill="#fff" style="text-shadow: 0 0 1px #000;">
CRuby 4.1.0dev
</text>
<rect x="565.75" y="35.400000000000006" width="120.0" height="19.2" fill="#FFB000" stroke="none"/>
<text x="625.7499999999999" y="49.500000000000014" font-size="small" text-anchor="middle" font-weight="bold" fill="#fff" style="text-shadow: 0 0 1px #000;">
YJIT 3.4.7
</text>
<rect x="777.25" y="35.400000000000006" width="120.0" height="19.2" fill="#DC267F" stroke="none"/>
<text x="837.2499999999999" y="49.500000000000014" font-size="small" text-anchor="middle" font-weight="bold" fill="#fff" style="text-shadow: 0 0 1px #000;">
YJIT 4.1.0dev
</text>
<rect x="56.861313868613145" y="230.23783390814287" width="6.861313868613138" height="267.76216609185707" fill="#785EF0" data-tooltip="1.54x baseline (CRuby 4.1.0dev)"/>
<rect x="63.72262773722628" y="308.3362141664873" width="6.861313868613138" height="189.6637858335127" fill="#FFB000" data-tooltip="1.09x baseline (YJIT 3.4.7)"/>
<rect x="70.58394160583941" y="208.58422714768437" width="6.861313868613138" height="289.41577285231557" fill="#DC267F" data-tooltip="1.66x baseline (YJIT 4.1.0dev)"/>
<line x1="67.15328467153283" y1="498.0" x2="67.15328467153283" y2="502.79999999999995" stroke="#000"/>
<text x="67.15328467153283" y="512.4" fill="#111" font-size="small" text-anchor="end" transform="rotate(-60, 67.15328467153283, 512.4)">
addressable-equality
</text>
<rect x="84.30656934306569" y="211.7053229482715" width="6.861313868613138" height="286.2946770517284" fill="#785EF0" data-tooltip="1.65x baseline (CRuby 4.1.0dev)"/>
<rect x="91.16788321167881" y="306.4515565865754" width="6.861313868613138" height="191.5484434134245" fill="#FFB000" data-tooltip="1.10x baseline (YJIT 3.4.7)"/>
<rect x="98.02919708029195" y="194.0296392164722" width="6.861313868613138" height="303.9703607835277" fill="#DC267F" data-tooltip="1.75x baseline (YJIT 4.1.0dev)"/>
<line x1="94.59854014598537" y1="498.0" x2="94.59854014598537" y2="502.79999999999995" stroke="#000"/>
<text x="94.59854014598537" y="512.4" fill="#111" font-size="small" text-anchor="end" transform="rotate(-60, 94.59854014598537, 512.4)">
addressable-getters
</text>
<rect x="111.75182481751821" y="159.17983961150333" width="6.861313868613138" height="338.8201603884966" fill="#785EF0" data-tooltip="1.95x baseline (CRuby 4.1.0dev)"/>
<rect x="118.61313868613135" y="306.52797487246886" width="6.861313868613138" height="191.4720251275311" fill="#FFB000" data-tooltip="1.10x baseline (YJIT 3.4.7)"/>
<rect x="125.47445255474449" y="157.5389917800895" width="6.861313868613138" height="340.4610082199104" fill="#DC267F" data-tooltip="1.96x baseline (YJIT 4.1.0dev)"/>
<line x1="122.0437956204379" y1="498.0" x2="122.0437956204379" y2="502.79999999999995" stroke="#000"/>
<text x="122.0437956204379" y="512.4" fill="#111" font-size="small" text-anchor="end" transform="rotate(-60, 122.0437956204379, 512.4)">
addressable-join
</text>
<rect x="139.19708029197076" y="211.45733309659087" width="6.861313868613138" height="286.54266690340904" fill="#785EF0" data-tooltip="1.65x baseline (CRuby 4.1.0dev)"/>
<rect x="146.0583941605839" y="304.19728338068177" width="6.861313868613138" height="193.80271661931818" fill="#FFB000" data-tooltip="1.11x baseline (YJIT 3.4.7)"/>
<rect x="152.919708029197" y="188.18741883116877" width="6.861313868613138" height="309.8125811688312" fill="#DC267F" data-tooltip="1.78x baseline (YJIT 4.1.0dev)"/>
<line x1="149.48905109489047" y1="498.0" x2="149.48905109489047" y2="502.79999999999995" stroke="#000"/>
<text x="149.48905109489047" y="512.4" fill="#111" font-size="small" text-anchor="end" transform="rotate(-60, 149.48905109489047, 512.4)">
addressable-merge
</text>
<rect x="166.6423357664233" y="286.8682200537258" width="6.861313868613138" height="211.13177994627418" fill="#785EF0" data-tooltip="1.21x baseline (CRuby 4.1.0dev)"/>
<rect x="173.50364963503642" y="304.1123994274472" width="6.861313868613138" height="193.88760057255274" fill="#FFB000" data-tooltip="1.11x baseline (YJIT 3.4.7)"/>
<rect x="180.36496350364956" y="269.3614389636533" width="6.861313868613138" height="228.63856103634663" fill="#DC267F" data-tooltip="1.31x baseline (YJIT 4.1.0dev)"/>
<line x1="176.934306569343" y1="498.0" x2="176.934306569343" y2="502.79999999999995" stroke="#000"/>
<text x="176.934306569343" y="512.4" fill="#111" font-size="small" text-anchor="end" transform="rotate(-60, 176.934306569343, 512.4)">
addressable-new
</text>
<rect x="194.0875912408758" y="237.83128258880416" width="6.861313868613138" height="260.16871741119576" fill="#785EF0" data-tooltip="1.50x baseline (CRuby 4.1.0dev)"/>
<rect x="200.94890510948895" y="311.5100850519042" width="6.861313868613138" height="186.4899149480957" fill="#FFB000" data-tooltip="1.07x baseline (YJIT 3.4.7)"/>
<rect x="207.81021897810209" y="217.8065458197873" width="6.861313868613138" height="280.19345418021265" fill="#DC267F" data-tooltip="1.61x baseline (YJIT 4.1.0dev)"/>
<line x1="204.37956204379554" y1="498.0" x2="204.37956204379554" y2="502.79999999999995" stroke="#000"/>
<text x="204.37956204379554" y="512.4" fill="#111" font-size="small" text-anchor="end" transform="rotate(-60, 204.37956204379554, 512.4)">
addressable-normalize
</text>
<rect x="221.53284671532836" y="232.64396895576104" width="6.861313868613138" height="265.35603104423893" fill="#785EF0" data-tooltip="1.53x baseline (CRuby 4.1.0dev)"/>
<rect x="228.3941605839415" y="304.5739935281241" width="6.861313868613138" height="193.4260064718759" fill="#FFB000" data-tooltip="1.11x baseline (YJIT 3.4.7)"/>
<rect x="235.25547445255464" y="211.55453766752893" width="6.861313868613138" height="286.445462332471" fill="#DC267F" data-tooltip="1.65x baseline (YJIT 4.1.0dev)"/>
<line x1="231.82481751824807" y1="498.0" x2="231.82481751824807" y2="502.79999999999995" stroke="#000"/>
<text x="231.82481751824807" y="512.4" fill="#111" font-size="small" text-anchor="end" transform="rotate(-60, 231.82481751824807, 512.4)">
addressable-parse
</text>
<rect x="248.97810218978088" y="206.0870669811588" width="6.861313868613138" height="291.9129330188411" fill="#785EF0" data-tooltip="1.68x baseline (CRuby 4.1.0dev)"/>
<rect x="255.83941605839405" y="308.8757850464633" width="6.861313868613138" height="189.1242149535366" fill="#FFB000" data-tooltip="1.09x baseline (YJIT 3.4.7)"/>
<rect x="262.7007299270072" y="186.5891216005001" width="6.861313868613138" height="311.41087839949984" fill="#DC267F" data-tooltip="1.79x baseline (YJIT 4.1.0dev)"/>
<line x1="259.27007299270065" y1="498.0" x2="259.27007299270065" y2="502.79999999999995" stroke="#000"/>
<text x="259.27007299270065" y="512.4" fill="#111" font-size="small" text-anchor="end" transform="rotate(-60, 259.27007299270065, 512.4)">
addressable-setters
</text>
<rect x="276.42335766423355" y="210.96991313492296" width="6.861313868613138" height="287.030086865077" fill="#785EF0" data-tooltip="1.65x baseline (CRuby 4.1.0dev)"/>
<rect x="283.2846715328467" y="306.3794353769995" width="6.861313868613138" height="191.62056462300043" fill="#FFB000" data-tooltip="1.10x baseline (YJIT 3.4.7)"/>
<rect x="290.1459854014599" y="190.90328394449523" width="6.861313868613138" height="307.09671605550466" fill="#DC267F" data-tooltip="1.77x baseline (YJIT 4.1.0dev)"/>
<line x1="286.7153284671533" y1="498.0" x2="286.7153284671533" y2="502.79999999999995" stroke="#000"/>
<text x="286.7153284671533" y="512.4" fill="#111" font-size="small" text-anchor="end" transform="rotate(-60, 286.7153284671533, 512.4)">
addressable-to-s
</text>
<rect x="303.86861313868616" y="252.69384299656912" width="6.861313868613138" height="245.30615700343083" fill="#785EF0" data-tooltip="1.41x baseline (CRuby 4.1.0dev)"/>
<rect x="310.72992700729935" y="318.6990747732364" width="6.861313868613138" height="179.30092522676358" fill="#FFB000" data-tooltip="1.03x baseline (YJIT 3.4.7)"/>
<rect x="317.5912408759125" y="247.57455610734257" width="6.861313868613138" height="250.42544389265737" fill="#DC267F" data-tooltip="1.44x baseline (YJIT 4.1.0dev)"/>
<line x1="314.160583941606" y1="498.0" x2="314.160583941606" y2="502.79999999999995" stroke="#000"/>
<text x="314.160583941606" y="512.4" fill="#111" font-size="small" text-anchor="end" transform="rotate(-60, 314.160583941606, 512.4)">
binarytrees
</text>
<rect x="331.3138686131388" y="282.46745046762106" width="6.861313868613138" height="215.53254953237888" fill="#785EF0" data-tooltip="1.24x baseline (CRuby 4.1.0dev)"/>
<rect x="338.175182481752" y="313.2366140685253" width="6.861313868613138" height="184.76338593147466" fill="#FFB000" data-tooltip="1.06x baseline (YJIT 3.4.7)"/>
<rect x="345.03649635036516" y="269.50680599264217" width="6.861313868613138" height="228.49319400735777" fill="#DC267F" data-tooltip="1.31x baseline (YJIT 4.1.0dev)"/>
<line x1="341.6058394160586" y1="498.0" x2="341.6058394160586" y2="502.79999999999995" stroke="#000"/>
<text x="341.6058394160586" y="512.4" fill="#111" font-size="small" text-anchor="end" transform="rotate(-60, 341.6058394160586, 512.4)">
blurhash
</text>
<rect x="358.7591240875915" y="100.19999999999999" width="6.861313868613138" height="397.79999999999995" fill="#785EF0" data-tooltip="2.29x baseline (CRuby 4.1.0dev)"/>
<rect x="365.6204379562046" y="300.7605751391465" width="6.861313868613138" height="197.23942486085343" fill="#FFB000" data-tooltip="1.13x baseline (YJIT 3.4.7)"/>
<rect x="372.4817518248178" y="123.23279220779214" width="6.861313868613138" height="374.7672077922078" fill="#DC267F" data-tooltip="2.15x baseline (YJIT 4.1.0dev)"/>
<line x1="369.05109489051125" y1="498.0" x2="369.05109489051125" y2="502.79999999999995" stroke="#000"/>
<text x="369.05109489051125" y="512.4" fill="#111" font-size="small" text-anchor="end" transform="rotate(-60, 369.05109489051125, 512.4)">
erubi
</text>
<rect x="386.2043795620441" y="162.504428433757" width="6.861313868613138" height="335.4955715662429" fill="#785EF0" data-tooltip="1.93x baseline (CRuby 4.1.0dev)"/>
<rect x="393.0656934306573" y="319.94874030563074" width="6.861313868613138" height="178.05125969436924" fill="#FFB000" data-tooltip="1.02x baseline (YJIT 3.4.7)"/>
<rect x="399.92700729927043" y="159.17839475012616" width="6.861313868613138" height="338.8216052498738" fill="#DC267F" data-tooltip="1.95x baseline (YJIT 4.1.0dev)"/>
<line x1="396.4963503649639" y1="498.0" x2="396.4963503649639" y2="502.79999999999995" stroke="#000"/>
<text x="396.4963503649639" y="512.4" fill="#111" font-size="small" text-anchor="end" transform="rotate(-60, 396.4963503649639, 512.4)">
etanni
</text>
<rect x="413.64963503649676" y="280.12363098295293" width="6.861313868613138" height="217.876369017047" fill="#785EF0" data-tooltip="1.25x baseline (CRuby 4.1.0dev)"/>
<rect x="420.5109489051099" y="314.84409470002686" width="6.861313868613138" height="183.15590529997306" fill="#FFB000" data-tooltip="1.05x baseline (YJIT 3.4.7)"/>
<rect x="427.3722627737231" y="267.5674884437596" width="6.861313868613138" height="230.43251155624034" fill="#DC267F" data-tooltip="1.32x baseline (YJIT 4.1.0dev)"/>
<line x1="423.9416058394165" y1="498.0" x2="423.9416058394165" y2="502.79999999999995" stroke="#000"/>
<text x="423.9416058394165" y="512.4" fill="#111" font-size="small" text-anchor="end" transform="rotate(-60, 423.9416058394165, 512.4)">
fannkuchredux
</text>
<rect x="441.0948905109494" y="405.3923197648192" width="6.861313868613138" height="92.60768023518075" fill="#785EF0" data-tooltip="0.53x baseline (CRuby 4.1.0dev)"/>
<rect x="447.95620437956256" y="371.36803476058674" width="6.861313868613138" height="126.63196523941323" fill="#FFB000" data-tooltip="0.73x baseline (YJIT 3.4.7)"/>
<rect x="454.81751824817576" y="401.82394188144616" width="6.861313868613138" height="96.17605811855383" fill="#DC267F" data-tooltip="0.55x baseline (YJIT 4.1.0dev)"/>
<line x1="451.3868613138692" y1="498.0" x2="451.3868613138692" y2="502.79999999999995" stroke="#000"/>
<text x="451.3868613138692" y="512.4" fill="#111" font-size="small" text-anchor="end" transform="rotate(-60, 451.3868613138692, 512.4)">
fluentd
</text>
<rect x="468.54014598540203" y="403.960198817118" width="6.861313868613138" height="94.03980118288199" fill="#785EF0" data-tooltip="0.54x baseline (CRuby 4.1.0dev)"/>
<rect x="475.40145985401523" y="322.95987023879104" width="6.861313868613138" height="175.04012976120887" fill="#FFB000" data-tooltip="1.01x baseline (YJIT 3.4.7)"/>
<rect x="482.26277372262837" y="402.86614735557976" width="6.861313868613138" height="95.13385264442016" fill="#DC267F" data-tooltip="0.55x baseline (YJIT 4.1.0dev)"/>
<line x1="478.83211678832185" y1="498.0" x2="478.83211678832185" y2="502.79999999999995" stroke="#000"/>
<text x="478.83211678832185" y="512.4" fill="#111" font-size="small" text-anchor="end" transform="rotate(-60, 478.83211678832185, 512.4)">
gcbench
</text>
<rect x="495.9854014598547" y="318.3778795749704" width="6.861313868613138" height="179.6221204250295" fill="#785EF0" data-tooltip="1.03x baseline (CRuby 4.1.0dev)"/>
<rect x="502.8467153284678" y="292.17893270365994" width="6.861313868613138" height="205.82106729634003" fill="#FFB000" data-tooltip="1.18x baseline (YJIT 3.4.7)"/>
<rect x="509.7080291970809" y="292.1302809917355" width="6.861313868613138" height="205.86971900826444" fill="#DC267F" data-tooltip="1.18x baseline (YJIT 4.1.0dev)"/>
<line x1="506.27737226277424" y1="498.0" x2="506.27737226277424" y2="502.79999999999995" stroke="#000"/>
<text x="506.27737226277424" y="512.4" fill="#111" font-size="small" text-anchor="end" transform="rotate(-60, 506.27737226277424, 512.4)">
graphql
</text>
<rect x="523.4306569343071" y="305.1277675772503" width="6.861313868613138" height="192.87223242274968" fill="#785EF0" data-tooltip="1.11x baseline (CRuby 4.1.0dev)"/>
<rect x="530.2919708029202" y="291.1334102104791" width="6.861313868613138" height="206.86658978952082" fill="#FFB000" data-tooltip="1.19x baseline (YJIT 3.4.7)"/>
<rect x="537.1532846715334" y="278.6884281236005" width="6.861313868613138" height="219.31157187639943" fill="#DC267F" data-tooltip="1.26x baseline (YJIT 4.1.0dev)"/>
<line x1="533.7226277372267" y1="498.0" x2="533.7226277372267" y2="502.79999999999995" stroke="#000"/>
<text x="533.7226277372267" y="512.4" fill="#111" font-size="small" text-anchor="end" transform="rotate(-60, 533.7226277372267, 512.4)">
graphql-native
</text>
<rect x="550.8759124087595" y="274.6681144201285" width="6.861313868613138" height="223.33188557987143" fill="#785EF0" data-tooltip="1.28x baseline (CRuby 4.1.0dev)"/>
<rect x="557.7372262773727" y="317.67752952722077" width="6.861313868613138" height="180.32247047277917" fill="#FFB000" data-tooltip="1.04x baseline (YJIT 3.4.7)"/>
<rect x="564.5985401459858" y="267.04813481138086" width="6.861313868613138" height="230.95186518861905" fill="#DC267F" data-tooltip="1.33x baseline (YJIT 4.1.0dev)"/>
<line x1="561.167883211679" y1="498.0" x2="561.167883211679" y2="502.79999999999995" stroke="#000"/>
<text x="561.167883211679" y="512.4" fill="#111" font-size="small" text-anchor="end" transform="rotate(-60, 561.167883211679, 512.4)">
knucleotide
</text>
<rect x="578.321167883212" y="281.14497784735033" width="6.861313868613138" height="216.8550221526496" fill="#785EF0" data-tooltip="1.25x baseline (CRuby 4.1.0dev)"/>
<rect x="585.1824817518251" y="311.28744647771094" width="6.861313868613138" height="186.712553522289" fill="#FFB000" data-tooltip="1.07x baseline (YJIT 3.4.7)"/>
<rect x="592.0437956204382" y="265.91959243374566" width="6.861313868613138" height="232.0804075662543" fill="#DC267F" data-tooltip="1.33x baseline (YJIT 4.1.0dev)"/>
<line x1="588.6131386861315" y1="498.0" x2="588.6131386861315" y2="502.79999999999995" stroke="#000"/>
<text x="588.6131386861315" y="512.4" fill="#111" font-size="small" text-anchor="end" transform="rotate(-60, 588.6131386861315, 512.4)">
lee
</text>
<rect x="605.7664233576644" y="285.8508403583981" width="6.861313868613138" height="212.1491596416018" fill="#785EF0" data-tooltip="1.22x baseline (CRuby 4.1.0dev)"/>
<rect x="612.6277372262775" y="312.8848205612145" width="6.861313868613138" height="185.11517943878542" fill="#FFB000" data-tooltip="1.06x baseline (YJIT 3.4.7)"/>
<rect x="619.4890510948906" y="281.4240261001869" width="6.861313868613138" height="216.57597389981302" fill="#DC267F" data-tooltip="1.25x baseline (YJIT 4.1.0dev)"/>
<line x1="616.0583941605839" y1="498.0" x2="616.0583941605839" y2="502.79999999999995" stroke="#000"/>
<text x="616.0583941605839" y="512.4" fill="#111" font-size="small" text-anchor="end" transform="rotate(-60, 616.0583941605839, 512.4)">
matmul
</text>
<rect x="633.2116788321168" y="279.5297607570221" width="6.861313868613138" height="218.47023924297784" fill="#785EF0" data-tooltip="1.26x baseline (CRuby 4.1.0dev)"/>
<rect x="640.07299270073" y="315.11865495702045" width="6.861313868613138" height="182.88134504297946" fill="#FFB000" data-tooltip="1.05x baseline (YJIT 3.4.7)"/>
<rect x="646.934306569343" y="267.16044996799826" width="6.861313868613138" height="230.83955003200168" fill="#DC267F" data-tooltip="1.33x baseline (YJIT 4.1.0dev)"/>
<line x1="643.5036496350364" y1="498.0" x2="643.5036496350364" y2="502.79999999999995" stroke="#000"/>
<text x="643.5036496350364" y="512.4" fill="#111" font-size="small" text-anchor="end" transform="rotate(-60, 643.5036496350364, 512.4)">
nbody
</text>
<rect x="660.6569343065693" y="281.1231928780141" width="6.861313868613138" height="216.87680712198585" fill="#785EF0" data-tooltip="1.25x baseline (CRuby 4.1.0dev)"/>
<rect x="667.5182481751823" y="307.2988807527707" width="6.861313868613138" height="190.70111924722917" fill="#FFB000" data-tooltip="1.10x baseline (YJIT 3.4.7)"/>
<rect x="674.3795620437954" y="246.4835101215996" width="6.861313868613138" height="251.51648987840036" fill="#DC267F" data-tooltip="1.45x baseline (YJIT 4.1.0dev)"/>
<line x1="670.9489051094888" y1="498.0" x2="670.9489051094888" y2="502.79999999999995" stroke="#000"/>
<text x="670.9489051094888" y="512.4" fill="#111" font-size="small" text-anchor="end" transform="rotate(-60, 670.9489051094888, 512.4)">
nqueens
</text>
<rect x="688.1021897810217" y="299.1614062162942" width="6.861313868613138" height="198.83859378370573" fill="#785EF0" data-tooltip="1.14x baseline (CRuby 4.1.0dev)"/>
<rect x="694.9635036496347" y="316.42359727703086" width="6.861313868613138" height="181.5764027229691" fill="#FFB000" data-tooltip="1.04x baseline (YJIT 3.4.7)"/>
<rect x="701.8248175182479" y="292.1616667936641" width="6.861313868613138" height="205.83833320633585" fill="#DC267F" data-tooltip="1.18x baseline (YJIT 4.1.0dev)"/>
<line x1="698.3941605839412" y1="498.0" x2="698.3941605839412" y2="502.79999999999995" stroke="#000"/>
<text x="698.3941605839412" y="512.4" fill="#111" font-size="small" text-anchor="end" transform="rotate(-60, 698.3941605839412, 512.4)">
optcarrot
</text>
<rect x="715.5474452554741" y="311.1141050377801" width="6.861313868613138" height="186.88589496221977" fill="#785EF0" data-tooltip="1.07x baseline (CRuby 4.1.0dev)"/>
<rect x="722.4087591240872" y="315.0675979094163" width="6.861313868613138" height="182.93240209058368" fill="#FFB000" data-tooltip="1.05x baseline (YJIT 3.4.7)"/>
<rect x="729.2700729927003" y="292.48981934127755" width="6.861313868613138" height="205.51018065872236" fill="#DC267F" data-tooltip="1.18x baseline (YJIT 4.1.0dev)"/>
<line x1="725.8394160583937" y1="498.0" x2="725.8394160583937" y2="502.79999999999995" stroke="#000"/>
<text x="725.8394160583937" y="512.4" fill="#111" font-size="small" text-anchor="end" transform="rotate(-60, 725.8394160583937, 512.4)">
protoboeuf
</text>
<rect x="742.9927007299265" y="363.4300725287262" width="6.861313868613138" height="134.56992747127373" fill="#785EF0" data-tooltip="0.77x baseline (CRuby 4.1.0dev)"/>
<rect x="749.8540145985396" y="321.7682627925411" width="6.861313868613138" height="176.23173720745882" fill="#FFB000" data-tooltip="1.01x baseline (YJIT 3.4.7)"/>
<rect x="756.7153284671527" y="328.81276979723066" width="6.861313868613138" height="169.18723020276929" fill="#DC267F" data-tooltip="0.97x baseline (YJIT 4.1.0dev)"/>
<line x1="753.284671532846" y1="498.0" x2="753.284671532846" y2="502.79999999999995" stroke="#000"/>
<text x="753.284671532846" y="512.4" fill="#111" font-size="small" text-anchor="end" transform="rotate(-60, 753.284671532846, 512.4)">
protoboeuf-encode
</text>
<rect x="770.4379562043789" y="157.61326013672965" width="6.861313868613138" height="340.3867398632703" fill="#785EF0" data-tooltip="1.96x baseline (CRuby 4.1.0dev)"/>
<rect x="777.299270072992" y="304.6290912447268" width="6.861313868613138" height="193.37090875527312" fill="#FFB000" data-tooltip="1.11x baseline (YJIT 3.4.7)"/>
<rect x="784.1605839416052" y="142.38631947926083" width="6.861313868613138" height="355.61368052073914" fill="#DC267F" data-tooltip="2.04x baseline (YJIT 4.1.0dev)"/>
<line x1="780.7299270072984" y1="498.0" x2="780.7299270072984" y2="502.79999999999995" stroke="#000"/>
<text x="780.7299270072984" y="512.4" fill="#111" font-size="small" text-anchor="end" transform="rotate(-60, 780.7299270072984, 512.4)">
rack
</text>
<rect x="797.8832116788313" y="196.8661747343565" width="6.861313868613138" height="301.13382526564345" fill="#785EF0" data-tooltip="1.73x baseline (CRuby 4.1.0dev)"/>
<rect x="804.7445255474445" y="316.77237308146397" width="6.861313868613138" height="181.22762691853598" fill="#FFB000" data-tooltip="1.04x baseline (YJIT 3.4.7)"/>
<rect x="811.6058394160576" y="187.89601534828802" width="6.861313868613138" height="310.1039846517119" fill="#DC267F" data-tooltip="1.78x baseline (YJIT 4.1.0dev)"/>
<line x1="808.1751824817509" y1="498.0" x2="808.1751824817509" y2="502.79999999999995" stroke="#000"/>
<text x="808.1751824817509" y="512.4" fill="#111" font-size="small" text-anchor="end" transform="rotate(-60, 808.1751824817509, 512.4)">
ruby-json
</text>
<rect x="825.3284671532838" y="368.78002090788465" width="6.861313868613138" height="129.2199790921153" fill="#785EF0" data-tooltip="0.74x baseline (CRuby 4.1.0dev)"/>
<rect x="832.1897810218969" y="223.80150778014547" width="6.861313868613138" height="274.1984922198544" fill="#FFB000" data-tooltip="1.58x baseline (YJIT 3.4.7)"/>
<rect x="839.05109489051" y="320.1582123758594" width="6.861313868613138" height="177.84178762414058" fill="#DC267F" data-tooltip="1.02x baseline (YJIT 4.1.0dev)"/>
<line x1="835.6204379562033" y1="498.0" x2="835.6204379562033" y2="502.79999999999995" stroke="#000"/>
<text x="835.6204379562033" y="512.4" fill="#111" font-size="small" text-anchor="end" transform="rotate(-60, 835.6204379562033, 512.4)">
rubyboy
</text>
<rect x="852.7737226277362" y="207.07827438076956" width="6.861313868613138" height="290.92172561923036" fill="#785EF0" data-tooltip="1.67x baseline (CRuby 4.1.0dev)"/>
<rect x="859.6350364963494" y="309.0844895347774" width="6.861313868613138" height="188.91551046522258" fill="#FFB000" data-tooltip="1.09x baseline (YJIT 3.4.7)"/>
<rect x="866.4963503649624" y="189.38483269769247" width="6.861313868613138" height="308.61516730230744" fill="#DC267F" data-tooltip="1.77x baseline (YJIT 4.1.0dev)"/>
<line x1="863.0656934306558" y1="498.0" x2="863.0656934306558" y2="502.79999999999995" stroke="#000"/>
<text x="863.0656934306558" y="512.4" fill="#111" font-size="small" text-anchor="end" transform="rotate(-60, 863.0656934306558, 512.4)">
rubykon
</text>
<rect x="880.2189781021887" y="384.4127816636995" width="6.861313868613138" height="113.58721833630045" fill="#785EF0" data-tooltip="0.65x baseline (CRuby 4.1.0dev)"/>
<rect x="887.0802919708017" y="338.80887340593404" width="6.861313868613138" height="159.19112659406585" fill="#FFB000" data-tooltip="0.92x baseline (YJIT 3.4.7)"/>
<rect x="893.9416058394148" y="388.0243144191921" width="6.861313868613138" height="109.97568558080792" fill="#DC267F" data-tooltip="0.63x baseline (YJIT 4.1.0dev)"/>
<line x1="890.5109489051082" y1="498.0" x2="890.5109489051082" y2="502.79999999999995" stroke="#000"/>
<text x="890.5109489051082" y="512.4" fill="#111" font-size="small" text-anchor="end" transform="rotate(-60, 890.5109489051082, 512.4)">
splay
</text>
<rect x="907.6642335766411" y="256.75783795344637" width="6.861313868613138" height="241.2421620465536" fill="#785EF0" data-tooltip="1.39x baseline (CRuby 4.1.0dev)"/>
<rect x="914.5255474452541" y="313.77967704756355" width="6.861313868613138" height="184.2203229524364" fill="#FFB000" data-tooltip="1.06x baseline (YJIT 3.4.7)"/>
<rect x="921.3868613138673" y="246.20216727462835" width="6.861313868613138" height="251.7978327253716" fill="#DC267F" data-tooltip="1.45x baseline (YJIT 4.1.0dev)"/>
<line x1="917.9562043795606" y1="498.0" x2="917.9562043795606" y2="502.79999999999995" stroke="#000"/>
<text x="917.9562043795606" y="512.4" fill="#111" font-size="small" text-anchor="end" transform="rotate(-60, 917.9562043795606, 512.4)">
sudoku
</text>
<rect x="935.1094890510935" y="251.38544474393527" width="6.861313868613138" height="246.61455525606468" fill="#785EF0" data-tooltip="1.42x baseline (CRuby 4.1.0dev)"/>
<rect x="941.9708029197066" y="304.152511639304" width="6.861313868613138" height="193.8474883606959" fill="#FFB000" data-tooltip="1.11x baseline (YJIT 3.4.7)"/>
<rect x="948.8321167883197" y="234.164665523156" width="6.861313868613138" height="263.83533447684397" fill="#DC267F" data-tooltip="1.52x baseline (YJIT 4.1.0dev)"/>
<line x1="945.4014598540131" y1="498.0" x2="945.4014598540131" y2="502.79999999999995" stroke="#000"/>
<text x="945.4014598540131" y="512.4" fill="#111" font-size="small" text-anchor="end" transform="rotate(-60, 945.4014598540131, 512.4)">
tinygql
</text>
<rect x="962.5547445255459" y="276.0419113991973" width="6.861313868613138" height="221.95808860080263" fill="#785EF0" data-tooltip="1.28x baseline (CRuby 4.1.0dev)"/>
<rect x="969.416058394159" y="311.2012085281333" width="6.861313868613138" height="186.7987914718667" fill="#FFB000" data-tooltip="1.07x baseline (YJIT 3.4.7)"/>
<rect x="976.2773722627721" y="260.76904047515217" width="6.861313868613138" height="237.2309595248478" fill="#DC267F" data-tooltip="1.36x baseline (YJIT 4.1.0dev)"/>
<line x1="972.8467153284655" y1="498.0" x2="972.8467153284655" y2="502.79999999999995" stroke="#000"/>
<text x="972.8467153284655" y="512.4" fill="#111" font-size="small" text-anchor="end" transform="rotate(-60, 972.8467153284655, 512.4)" font-style="italic">
geomean*
</text>
<line x1="50.0" y1="324.07012987012985" x2="990.0" y2="324.07012987012985" stroke="#648FFF" stroke-width="2"/>
<rect x="58.68631386861314" y="216.07783390814288" width="17.85" height="7.2" transform="rotate(-60, 62.291970802919714, 222.73783390814287)" fill="#fffa"/>
<text x="58.861313868613145" y="222.73783390814287" fill="#111" font-size="0.5em" text-anchor="start" textLength="17.5" transform="rotate(-60, 62.291970802919714, 222.73783390814287)" style="text-shadow: 0 0 1px #fff;">
1.54
</text>
<rect x="65.54762773722629" y="294.17621416648734" width="17.85" height="7.2" transform="rotate(-60, 69.15328467153286, 300.83621416648737)" fill="#fffa"/>
<text x="65.72262773722629" y="300.83621416648737" fill="#111" font-size="0.5em" text-anchor="start" textLength="17.5" transform="rotate(-60, 69.15328467153286, 300.83621416648737)" style="text-shadow: 0 0 1px #fff;">
1.09
</text>
<rect x="72.40894160583943" y="194.42422714768435" width="17.85" height="7.2" transform="rotate(-60, 76.01459854014598, 201.08422714768435)" fill="#fffa"/>
<text x="72.58394160583941" y="201.08422714768435" fill="#111" font-size="0.5em" text-anchor="start" textLength="17.5" transform="rotate(-60, 76.01459854014598, 201.08422714768435)" style="text-shadow: 0 0 1px #fff;">
1.66
</text>
<rect x="86.13156934306569" y="197.5453229482715" width="17.85" height="7.2" transform="rotate(-60, 89.73722627737226, 204.2053229482715)" fill="#fffa"/>
<text x="86.30656934306569" y="204.2053229482715" fill="#111" font-size="0.5em" text-anchor="start" textLength="17.5" transform="rotate(-60, 89.73722627737226, 204.2053229482715)" style="text-shadow: 0 0 1px #fff;">
1.65
</text>
<rect x="92.99288321167883" y="292.2915565865754" width="17.85" height="7.2" transform="rotate(-60, 96.59854014598538, 298.9515565865754)" fill="#fffa"/>
<text x="93.16788321167883" y="298.9515565865754" fill="#111" font-size="0.5em" text-anchor="start" textLength="17.5" transform="rotate(-60, 96.59854014598538, 298.9515565865754)" style="text-shadow: 0 0 1px #fff;">
1.10
</text>
<rect x="99.85419708029195" y="179.8696392164722" width="17.85" height="7.2" transform="rotate(-60, 103.45985401459852, 186.5296392164722)" fill="#fffa"/>
<text x="100.02919708029195" y="186.5296392164722" fill="#111" font-size="0.5em" text-anchor="start" textLength="17.5" transform="rotate(-60, 103.45985401459852, 186.5296392164722)" style="text-shadow: 0 0 1px #fff;">
1.75
</text>
<rect x="113.57682481751823" y="145.01983961150333" width="17.85" height="7.2" transform="rotate(-60, 117.18248175182478, 151.67983961150333)" fill="#fffa"/>
<text x="113.75182481751823" y="151.67983961150333" fill="#111" font-size="0.5em" text-anchor="start" textLength="17.5" transform="rotate(-60, 117.18248175182478, 151.67983961150333)" style="text-shadow: 0 0 1px #fff;">
1.95
</text>
<rect x="120.43813868613137" y="292.3679748724689" width="17.85" height="7.2" transform="rotate(-60, 124.04379562043792, 299.02797487246886)" fill="#fffa"/>
<text x="120.61313868613135" y="299.02797487246886" fill="#111" font-size="0.5em" text-anchor="start" textLength="17.5" transform="rotate(-60, 124.04379562043792, 299.02797487246886)" style="text-shadow: 0 0 1px #fff;">
1.10
</text>
<rect x="127.29945255474448" y="143.3789917800895" width="17.85" height="7.2" transform="rotate(-60, 130.90510948905106, 150.0389917800895)" fill="#fffa"/>
<text x="127.47445255474449" y="150.0389917800895" fill="#111" font-size="0.5em" text-anchor="start" textLength="17.5" transform="rotate(-60, 130.90510948905106, 150.0389917800895)" style="text-shadow: 0 0 1px #fff;">
1.96
</text>
<rect x="141.02208029197075" y="197.29733309659088" width="17.85" height="7.2" transform="rotate(-60, 144.62773722627733, 203.95733309659087)" fill="#fffa"/>
<text x="141.19708029197076" y="203.95733309659087" fill="#111" font-size="0.5em" text-anchor="start" textLength="17.5" transform="rotate(-60, 144.62773722627733, 203.95733309659087)" style="text-shadow: 0 0 1px #fff;">
1.65
</text>
<rect x="147.8833941605839" y="290.03728338068174" width="17.85" height="7.2" transform="rotate(-60, 151.48905109489047, 296.69728338068177)" fill="#fffa"/>
<text x="148.0583941605839" y="296.69728338068177" fill="#111" font-size="0.5em" text-anchor="start" textLength="17.5" transform="rotate(-60, 151.48905109489047, 296.69728338068177)" style="text-shadow: 0 0 1px #fff;">
1.11
</text>
<rect x="154.74470802919703" y="174.02741883116877" width="17.85" height="7.2" transform="rotate(-60, 158.3503649635036, 180.68741883116877)" fill="#fffa"/>
<text x="154.919708029197" y="180.68741883116877" fill="#111" font-size="0.5em" text-anchor="start" textLength="17.5" transform="rotate(-60, 158.3503649635036, 180.68741883116877)" style="text-shadow: 0 0 1px #fff;">
1.78
</text>
<rect x="168.46733576642328" y="272.70822005372577" width="17.85" height="7.2" transform="rotate(-60, 172.07299270072988, 279.3682200537258)" fill="#fffa"/>
<text x="168.6423357664233" y="279.3682200537258" fill="#111" font-size="0.5em" text-anchor="start" textLength="17.5" transform="rotate(-60, 172.07299270072988, 279.3682200537258)" style="text-shadow: 0 0 1px #fff;">
1.21
</text>
<rect x="175.3286496350364" y="289.95239942744723" width="17.85" height="7.2" transform="rotate(-60, 178.934306569343, 296.6123994274472)" fill="#fffa"/>
<text x="175.50364963503642" y="296.6123994274472" fill="#111" font-size="0.5em" text-anchor="start" textLength="17.5" transform="rotate(-60, 178.934306569343, 296.6123994274472)" style="text-shadow: 0 0 1px #fff;">
1.11
</text>
<rect x="182.18996350364955" y="255.20143896365332" width="17.85" height="7.2" transform="rotate(-60, 185.79562043795613, 261.8614389636533)" fill="#fffa"/>
<text x="182.36496350364956" y="261.8614389636533" fill="#111" font-size="0.5em" text-anchor="start" textLength="17.5" transform="rotate(-60, 185.79562043795613, 261.8614389636533)" style="text-shadow: 0 0 1px #fff;">
1.31
</text>
<rect x="195.91259124087583" y="223.67128258880413" width="17.85" height="7.2" transform="rotate(-60, 199.5182481751824, 230.33128258880413)" fill="#fffa"/>
<text x="196.08759124087584" y="230.33128258880413" fill="#111" font-size="0.5em" text-anchor="start" textLength="17.5" transform="rotate(-60, 199.5182481751824, 230.33128258880413)" style="text-shadow: 0 0 1px #fff;">
1.50
</text>
<rect x="202.77390510948894" y="297.3500850519042" width="17.85" height="7.2" transform="rotate(-60, 206.37956204379554, 304.0100850519042)" fill="#fffa"/>
<text x="202.94890510948895" y="304.0100850519042" fill="#111" font-size="0.5em" text-anchor="start" textLength="17.5" transform="rotate(-60, 206.37956204379554, 304.0100850519042)" style="text-shadow: 0 0 1px #fff;">
1.07
</text>
<rect x="209.63521897810207" y="203.6465458197873" width="17.85" height="7.2" transform="rotate(-60, 213.24087591240868, 210.3065458197873)" fill="#fffa"/>
<text x="209.81021897810209" y="210.3065458197873" fill="#111" font-size="0.5em" text-anchor="start" textLength="17.5" transform="rotate(-60, 213.24087591240868, 210.3065458197873)" style="text-shadow: 0 0 1px #fff;">
1.61
</text>
<rect x="223.35784671532835" y="218.48396895576104" width="17.85" height="7.2" transform="rotate(-60, 226.96350364963493, 225.14396895576104)" fill="#fffa"/>
<text x="223.53284671532836" y="225.14396895576104" fill="#111" font-size="0.5em" text-anchor="start" textLength="17.5" transform="rotate(-60, 226.96350364963493, 225.14396895576104)" style="text-shadow: 0 0 1px #fff;">
1.53
</text>
<rect x="230.2191605839415" y="290.4139935281241" width="17.85" height="7.2" transform="rotate(-60, 233.82481751824807, 297.0739935281241)" fill="#fffa"/>
<text x="230.3941605839415" y="297.0739935281241" fill="#111" font-size="0.5em" text-anchor="start" textLength="17.5" transform="rotate(-60, 233.82481751824807, 297.0739935281241)" style="text-shadow: 0 0 1px #fff;">
1.11
</text>
<rect x="237.08047445255463" y="197.39453766752894" width="17.85" height="7.2" transform="rotate(-60, 240.6861313868612, 204.05453766752893)" fill="#fffa"/>
<text x="237.25547445255464" y="204.05453766752893" fill="#111" font-size="0.5em" text-anchor="start" textLength="17.5" transform="rotate(-60, 240.6861313868612, 204.05453766752893)" style="text-shadow: 0 0 1px #fff;">
1.65
</text>
<rect x="250.8031021897809" y="191.92706698115882" width="17.85" height="7.2" transform="rotate(-60, 254.40875912408745, 198.5870669811588)" fill="#fffa"/>
<text x="250.97810218978088" y="198.5870669811588" fill="#111" font-size="0.5em" text-anchor="start" textLength="17.5" transform="rotate(-60, 254.40875912408745, 198.5870669811588)" style="text-shadow: 0 0 1px #fff;">
1.68
</text>
<rect x="257.66441605839407" y="294.71578504646334" width="17.85" height="7.2" transform="rotate(-60, 261.2700729927006, 301.3757850464633)" fill="#fffa"/>
<text x="257.8394160583941" y="301.3757850464633" fill="#111" font-size="0.5em" text-anchor="start" textLength="17.5" transform="rotate(-60, 261.2700729927006, 301.3757850464633)" style="text-shadow: 0 0 1px #fff;">
1.09
</text>
<rect x="264.52572992700726" y="172.42912160050008" width="17.85" height="7.2" transform="rotate(-60, 268.1313868613138, 179.08912160050008)" fill="#fffa"/>
<text x="264.7007299270072" y="179.08912160050008" fill="#111" font-size="0.5em" text-anchor="start" textLength="17.5" transform="rotate(-60, 268.1313868613138, 179.08912160050008)" style="text-shadow: 0 0 1px #fff;">
1.79
</text>
<rect x="278.24835766423354" y="196.80991313492294" width="17.85" height="7.2" transform="rotate(-60, 281.8540145985401, 203.46991313492293)" fill="#fffa"/>
<text x="278.42335766423355" y="203.46991313492293" fill="#111" font-size="0.5em" text-anchor="start" textLength="17.5" transform="rotate(-60, 281.8540145985401, 203.46991313492293)" style="text-shadow: 0 0 1px #fff;">
1.65
</text>
<rect x="285.10967153284673" y="292.21943537699946" width="17.85" height="7.2" transform="rotate(-60, 288.71532846715326, 298.8794353769995)" fill="#fffa"/>
<text x="285.2846715328467" y="298.8794353769995" fill="#111" font-size="0.5em" text-anchor="start" textLength="17.5" transform="rotate(-60, 288.71532846715326, 298.8794353769995)" style="text-shadow: 0 0 1px #fff;">
1.10
</text>
<rect x="291.97098540145987" y="176.74328394449523" width="17.85" height="7.2" transform="rotate(-60, 295.5766423357664, 183.40328394449523)" fill="#fffa"/>
<text x="292.1459854014599" y="183.40328394449523" fill="#111" font-size="0.5em" text-anchor="start" textLength="17.5" transform="rotate(-60, 295.5766423357664, 183.40328394449523)" style="text-shadow: 0 0 1px #fff;">
1.77
</text>
<rect x="305.6936131386862" y="238.53384299656912" width="17.85" height="7.2" transform="rotate(-60, 309.2992700729927, 245.19384299656912)" fill="#fffa"/>
<text x="305.86861313868616" y="245.19384299656912" fill="#111" font-size="0.5em" text-anchor="start" textLength="17.5" transform="rotate(-60, 309.2992700729927, 245.19384299656912)" style="text-shadow: 0 0 1px #fff;">
1.41
</text>
<rect x="312.55492700729934" y="304.53907477323645" width="17.85" height="7.2" transform="rotate(-60, 316.1605839416059, 311.1990747732364)" fill="#fffa"/>
<text x="312.72992700729935" y="311.1990747732364" fill="#111" font-size="0.5em" text-anchor="start" textLength="17.5" transform="rotate(-60, 316.1605839416059, 311.1990747732364)" style="text-shadow: 0 0 1px #fff;">
1.03
</text>
<rect x="319.41624087591254" y="233.41455610734258" width="17.85" height="7.2" transform="rotate(-60, 323.02189781021906, 240.07455610734257)" fill="#fffa"/>
<text x="319.5912408759125" y="240.07455610734257" fill="#111" font-size="0.5em" text-anchor="start" textLength="17.5" transform="rotate(-60, 323.02189781021906, 240.07455610734257)" style="text-shadow: 0 0 1px #fff;">
1.44
</text>
<rect x="333.13886861313887" y="268.30745046762104" width="17.85" height="7.2" transform="rotate(-60, 336.7445255474454, 274.96745046762106)" fill="#fffa"/>
<text x="333.3138686131388" y="274.96745046762106" fill="#111" font-size="0.5em" text-anchor="start" textLength="17.5" transform="rotate(-60, 336.7445255474454, 274.96745046762106)" style="text-shadow: 0 0 1px #fff;">
1.24
</text>
<rect x="340.000182481752" y="299.0766140685253" width="17.85" height="7.2" transform="rotate(-60, 343.60583941605853, 305.7366140685253)" fill="#fffa"/>
<text x="340.175182481752" y="305.7366140685253" fill="#111" font-size="0.5em" text-anchor="start" textLength="17.5" transform="rotate(-60, 343.60583941605853, 305.7366140685253)" style="text-shadow: 0 0 1px #fff;">
1.06
</text>
<rect x="346.8614963503652" y="255.34680599264215" width="17.85" height="7.2" transform="rotate(-60, 350.4671532846717, 262.00680599264217)" fill="#fffa"/>
<text x="347.03649635036516" y="262.00680599264217" fill="#111" font-size="0.5em" text-anchor="start" textLength="17.5" transform="rotate(-60, 350.4671532846717, 262.00680599264217)" style="text-shadow: 0 0 1px #fff;">
1.31
</text>
<rect x="360.5841240875915" y="86.03999999999998" width="17.85" height="7.2" transform="rotate(-60, 364.18978102189806, 92.69999999999999)" fill="#fffa"/>
<text x="360.7591240875915" y="92.69999999999999" fill="#111" font-size="0.5em" text-anchor="start" textLength="17.5" transform="rotate(-60, 364.18978102189806, 92.69999999999999)" style="text-shadow: 0 0 1px #fff;">
2.29
</text>
<rect x="367.44543795620467" y="286.6005751391465" width="17.85" height="7.2" transform="rotate(-60, 371.0510948905112, 293.2605751391465)" fill="#fffa"/>
<text x="367.6204379562046" y="293.2605751391465" fill="#111" font-size="0.5em" text-anchor="start" textLength="17.5" transform="rotate(-60, 371.0510948905112, 293.2605751391465)" style="text-shadow: 0 0 1px #fff;">
1.13
</text>
<rect x="374.3067518248178" y="109.07279220779215" width="17.85" height="7.2" transform="rotate(-60, 377.91240875912433, 115.73279220779214)" fill="#fffa"/>
<text x="374.4817518248178" y="115.73279220779214" fill="#111" font-size="0.5em" text-anchor="start" textLength="17.5" transform="rotate(-60, 377.91240875912433, 115.73279220779214)" style="text-shadow: 0 0 1px #fff;">
2.15
</text>
<rect x="388.02937956204414" y="148.34442843375697" width="17.85" height="7.2" transform="rotate(-60, 391.63503649635066, 155.00442843375697)" fill="#fffa"/>
<text x="388.2043795620441" y="155.00442843375697" fill="#111" font-size="0.5em" text-anchor="start" textLength="17.5" transform="rotate(-60, 391.63503649635066, 155.00442843375697)" style="text-shadow: 0 0 1px #fff;">
1.93
</text>
<rect x="394.8906934306573" y="305.78874030563077" width="17.85" height="7.2" transform="rotate(-60, 398.49635036496386, 312.44874030563074)" fill="#fffa"/>
<text x="395.0656934306573" y="312.44874030563074" fill="#111" font-size="0.5em" text-anchor="start" textLength="17.5" transform="rotate(-60, 398.49635036496386, 312.44874030563074)" style="text-shadow: 0 0 1px #fff;">
1.02
</text>
<rect x="401.7520072992705" y="145.01839475012616" width="17.85" height="7.2" transform="rotate(-60, 405.357664233577, 151.67839475012616)" fill="#fffa"/>
<text x="401.92700729927043" y="151.67839475012616" fill="#111" font-size="0.5em" text-anchor="start" textLength="17.5" transform="rotate(-60, 405.357664233577, 151.67839475012616)" style="text-shadow: 0 0 1px #fff;">
1.95
</text>
<rect x="415.4746350364968" y="265.9636309829529" width="17.85" height="7.2" transform="rotate(-60, 419.08029197080333, 272.62363098295293)" fill="#fffa"/>
<text x="415.64963503649676" y="272.62363098295293" fill="#111" font-size="0.5em" text-anchor="start" textLength="17.5" transform="rotate(-60, 419.08029197080333, 272.62363098295293)" style="text-shadow: 0 0 1px #fff;">
1.25
</text>
<rect x="422.33594890510994" y="300.6840947000269" width="17.85" height="7.2" transform="rotate(-60, 425.94160583941647, 307.3440947000269)" fill="#fffa"/>
<text x="422.51094890510996" y="307.3440947000269" fill="#111" font-size="0.5em" text-anchor="start" textLength="17.5" transform="rotate(-60, 425.94160583941647, 307.3440947000269)" style="text-shadow: 0 0 1px #fff;">
1.05
</text>
<rect x="429.1972627737231" y="253.40748844375958" width="17.85" height="7.2" transform="rotate(-60, 432.80291970802966, 260.0674884437596)" fill="#fffa"/>
<text x="429.3722627737231" y="260.0674884437596" fill="#111" font-size="0.5em" text-anchor="start" textLength="17.5" transform="rotate(-60, 432.80291970802966, 260.0674884437596)" style="text-shadow: 0 0 1px #fff;">
1.32
</text>
<rect x="442.9198905109494" y="391.23231976481924" width="17.85" height="7.2" transform="rotate(-60, 446.52554744525594, 397.89231976481926)" fill="#fffa"/>
<text x="443.0948905109494" y="397.89231976481926" fill="#111" font-size="0.5em" text-anchor="start" textLength="17.5" transform="rotate(-60, 446.52554744525594, 397.89231976481926)" style="text-shadow: 0 0 1px #fff;">
0.53
</text>
<rect x="449.7812043795626" y="357.20803476058677" width="17.85" height="7.2" transform="rotate(-60, 453.38686131386913, 363.86803476058674)" fill="#fffa"/>
<text x="449.95620437956256" y="363.86803476058674" fill="#111" font-size="0.5em" text-anchor="start" textLength="17.5" transform="rotate(-60, 453.38686131386913, 363.86803476058674)" style="text-shadow: 0 0 1px #fff;">
0.73
</text>
<rect x="456.64251824817575" y="387.6639418814462" width="17.85" height="7.2" transform="rotate(-60, 460.24817518248227, 394.3239418814462)" fill="#fffa"/>
<text x="456.81751824817576" y="394.3239418814462" fill="#111" font-size="0.5em" text-anchor="start" textLength="17.5" transform="rotate(-60, 460.24817518248227, 394.3239418814462)" style="text-shadow: 0 0 1px #fff;">
0.55
</text>
<rect x="470.3651459854021" y="389.80019881711803" width="17.85" height="7.2" transform="rotate(-60, 473.9708029197086, 396.460198817118)" fill="#fffa"/>
<text x="470.54014598540203" y="396.460198817118" fill="#111" font-size="0.5em" text-anchor="start" textLength="17.5" transform="rotate(-60, 473.9708029197086, 396.460198817118)" style="text-shadow: 0 0 1px #fff;">
0.54
</text>
<rect x="477.2264598540152" y="308.7998702387911" width="17.85" height="7.2" transform="rotate(-60, 480.8321167883218, 315.45987023879104)" fill="#fffa"/>
<text x="477.40145985401523" y="315.45987023879104" fill="#111" font-size="0.5em" text-anchor="start" textLength="17.5" transform="rotate(-60, 480.8321167883218, 315.45987023879104)" style="text-shadow: 0 0 1px #fff;">
1.01
</text>
<rect x="484.0877737226284" y="388.7061473555798" width="17.85" height="7.2" transform="rotate(-60, 487.69343065693494, 395.3661473555798)" fill="#fffa"/>
<text x="484.26277372262837" y="395.3661473555798" fill="#111" font-size="0.5em" text-anchor="start" textLength="17.5" transform="rotate(-60, 487.69343065693494, 395.3661473555798)" style="text-shadow: 0 0 1px #fff;">
0.55
</text>
<rect x="497.81040145985475" y="304.2178795749704" width="17.85" height="7.2" transform="rotate(-60, 501.41605839416127, 310.87787957497045)" fill="#fffa"/>
<text x="497.9854014598547" y="310.87787957497045" fill="#111" font-size="0.5em" text-anchor="start" textLength="17.5" transform="rotate(-60, 501.41605839416127, 310.87787957497045)" style="text-shadow: 0 0 1px #fff;">
1.03
</text>
<rect x="504.67171532846777" y="278.0189327036599" width="17.85" height="7.2" transform="rotate(-60, 508.27737226277435, 284.67893270365994)" fill="#fffa"/>
<text x="504.84671532846784" y="284.67893270365994" fill="#111" font-size="0.5em" text-anchor="start" textLength="17.5" transform="rotate(-60, 508.27737226277435, 284.67893270365994)" style="text-shadow: 0 0 1px #fff;">
1.18
</text>
<rect x="511.5330291970809" y="277.97028099173554" width="17.85" height="7.2" transform="rotate(-60, 515.1386861313874, 284.6302809917355)" fill="#fffa"/>
<text x="511.7080291970809" y="284.6302809917355" fill="#111" font-size="0.5em" text-anchor="start" textLength="17.5" transform="rotate(-60, 515.1386861313874, 284.6302809917355)" style="text-shadow: 0 0 1px #fff;">
1.18
</text>
<rect x="525.2556569343071" y="290.9677675772503" width="17.85" height="7.2" transform="rotate(-60, 528.8613138686137, 297.6277675772503)" fill="#fffa"/>
<text x="525.4306569343071" y="297.6277675772503" fill="#111" font-size="0.5em" text-anchor="start" textLength="17.5" transform="rotate(-60, 528.8613138686137, 297.6277675772503)" style="text-shadow: 0 0 1px #fff;">
1.11
</text>
<rect x="532.1169708029202" y="276.97341021047913" width="17.85" height="7.2" transform="rotate(-60, 535.7226277372267, 283.6334102104791)" fill="#fffa"/>
<text x="532.2919708029202" y="283.6334102104791" fill="#111" font-size="0.5em" text-anchor="start" textLength="17.5" transform="rotate(-60, 535.7226277372267, 283.6334102104791)" style="text-shadow: 0 0 1px #fff;">
1.19
</text>
<rect x="538.9782846715333" y="264.5284281236005" width="17.85" height="7.2" transform="rotate(-60, 542.5839416058399, 271.1884281236005)" fill="#fffa"/>
<text x="539.1532846715334" y="271.1884281236005" fill="#111" font-size="0.5em" text-anchor="start" textLength="17.5" transform="rotate(-60, 542.5839416058399, 271.1884281236005)" style="text-shadow: 0 0 1px #fff;">
1.26
</text>
<rect x="552.7009124087596" y="260.5081144201285" width="17.85" height="7.2" transform="rotate(-60, 556.3065693430661, 267.1681144201285)" fill="#fffa"/>
<text x="552.8759124087595" y="267.1681144201285" fill="#111" font-size="0.5em" text-anchor="start" textLength="17.5" transform="rotate(-60, 556.3065693430661, 267.1681144201285)" style="text-shadow: 0 0 1px #fff;">
1.28
</text>
<rect x="559.5622262773726" y="303.5175295272208" width="17.85" height="7.2" transform="rotate(-60, 563.1678832116792, 310.17752952722077)" fill="#fffa"/>
<text x="559.7372262773727" y="310.17752952722077" fill="#111" font-size="0.5em" text-anchor="start" textLength="17.5" transform="rotate(-60, 563.1678832116792, 310.17752952722077)" style="text-shadow: 0 0 1px #fff;">
1.04
</text>
<rect x="566.4235401459857" y="252.88813481138087" width="17.85" height="7.2" transform="rotate(-60, 570.0291970802923, 259.54813481138086)" fill="#fffa"/>
<text x="566.5985401459858" y="259.54813481138086" fill="#111" font-size="0.5em" text-anchor="start" textLength="17.5" transform="rotate(-60, 570.0291970802923, 259.54813481138086)" style="text-shadow: 0 0 1px #fff;">
1.33
</text>
<rect x="580.1461678832119" y="266.9849778473503" width="17.85" height="7.2" transform="rotate(-60, 583.7518248175186, 273.64497784735033)" fill="#fffa"/>
<text x="580.321167883212" y="273.64497784735033" fill="#111" font-size="0.5em" text-anchor="start" textLength="17.5" transform="rotate(-60, 583.7518248175186, 273.64497784735033)" style="text-shadow: 0 0 1px #fff;">
1.25
</text>
<rect x="587.007481751825" y="297.127446477711" width="17.85" height="7.2" transform="rotate(-60, 590.6131386861316, 303.78744647771094)" fill="#fffa"/>
<text x="587.1824817518251" y="303.78744647771094" fill="#111" font-size="0.5em" text-anchor="start" textLength="17.5" transform="rotate(-60, 590.6131386861316, 303.78744647771094)" style="text-shadow: 0 0 1px #fff;">
1.07
</text>
<rect x="593.8687956204382" y="251.75959243374564" width="17.85" height="7.2" transform="rotate(-60, 597.4744525547447, 258.41959243374566)" fill="#fffa"/>
<text x="594.0437956204382" y="258.41959243374566" fill="#111" font-size="0.5em" text-anchor="start" textLength="17.5" transform="rotate(-60, 597.4744525547447, 258.41959243374566)" style="text-shadow: 0 0 1px #fff;">
1.33
</text>
<rect x="607.5914233576643" y="271.69084035839813" width="17.85" height="7.2" transform="rotate(-60, 611.1970802919709, 278.3508403583981)" fill="#fffa"/>
<text x="607.7664233576644" y="278.3508403583981" fill="#111" font-size="0.5em" text-anchor="start" textLength="17.5" transform="rotate(-60, 611.1970802919709, 278.3508403583981)" style="text-shadow: 0 0 1px #fff;">
1.22
</text>
<rect x="614.4527372262775" y="298.72482056121453" width="17.85" height="7.2" transform="rotate(-60, 618.058394160584, 305.38482056121455)" fill="#fffa"/>
<text x="614.6277372262775" y="305.38482056121455" fill="#111" font-size="0.5em" text-anchor="start" textLength="17.5" transform="rotate(-60, 618.058394160584, 305.38482056121455)" style="text-shadow: 0 0 1px #fff;">
1.06
</text>
<rect x="621.3140510948906" y="267.2640261001869" width="17.85" height="7.2" transform="rotate(-60, 624.9197080291972, 273.9240261001869)" fill="#fffa"/>
<text x="621.4890510948906" y="273.9240261001869" fill="#111" font-size="0.5em" text-anchor="start" textLength="17.5" transform="rotate(-60, 624.9197080291972, 273.9240261001869)" style="text-shadow: 0 0 1px #fff;">
1.25
</text>
<rect x="635.0366788321168" y="265.3697607570221" width="17.85" height="7.2" transform="rotate(-60, 638.6423357664233, 272.0297607570221)" fill="#fffa"/>
<text x="635.2116788321168" y="272.0297607570221" fill="#111" font-size="0.5em" text-anchor="start" textLength="17.5" transform="rotate(-60, 638.6423357664233, 272.0297607570221)" style="text-shadow: 0 0 1px #fff;">
1.26
</text>
<rect x="641.8979927007299" y="300.9586549570205" width="17.85" height="7.2" transform="rotate(-60, 645.5036496350365, 307.6186549570205)" fill="#fffa"/>
<text x="642.07299270073" y="307.6186549570205" fill="#111" font-size="0.5em" text-anchor="start" textLength="17.5" transform="rotate(-60, 645.5036496350365, 307.6186549570205)" style="text-shadow: 0 0 1px #fff;">
1.05
</text>
<rect x="648.759306569343" y="253.00044996799824" width="17.85" height="7.2" transform="rotate(-60, 652.3649635036496, 259.66044996799826)" fill="#fffa"/>
<text x="648.934306569343" y="259.66044996799826" fill="#111" font-size="0.5em" text-anchor="start" textLength="17.5" transform="rotate(-60, 652.3649635036496, 259.66044996799826)" style="text-shadow: 0 0 1px #fff;">
1.33
</text>
<rect x="662.4819343065692" y="266.96319287801407" width="17.85" height="7.2" transform="rotate(-60, 666.0875912408758, 273.6231928780141)" fill="#fffa"/>
<text x="662.6569343065693" y="273.6231928780141" fill="#111" font-size="0.5em" text-anchor="start" textLength="17.5" transform="rotate(-60, 666.0875912408758, 273.6231928780141)" style="text-shadow: 0 0 1px #fff;">
1.25
</text>
<rect x="669.3432481751823" y="293.1388807527707" width="17.85" height="7.2" transform="rotate(-60, 672.9489051094889, 299.7988807527707)" fill="#fffa"/>
<text x="669.5182481751824" y="299.7988807527707" fill="#111" font-size="0.5em" text-anchor="start" textLength="17.5" transform="rotate(-60, 672.9489051094889, 299.7988807527707)" style="text-shadow: 0 0 1px #fff;">
1.10
</text>
<rect x="676.2045620437955" y="232.3235101215996" width="17.85" height="7.2" transform="rotate(-60, 679.8102189781021, 238.9835101215996)" fill="#fffa"/>
<text x="676.3795620437954" y="238.9835101215996" fill="#111" font-size="0.5em" text-anchor="start" textLength="17.5" transform="rotate(-60, 679.8102189781021, 238.9835101215996)" style="text-shadow: 0 0 1px #fff;">
1.45
</text>
<rect x="689.9271897810216" y="285.0014062162942" width="17.85" height="7.2" transform="rotate(-60, 693.5328467153282, 291.6614062162942)" fill="#fffa"/>
<text x="690.1021897810217" y="291.6614062162942" fill="#111" font-size="0.5em" text-anchor="start" textLength="17.5" transform="rotate(-60, 693.5328467153282, 291.6614062162942)" style="text-shadow: 0 0 1px #fff;">
1.14
</text>
<rect x="696.7885036496348" y="302.2635972770309" width="17.85" height="7.2" transform="rotate(-60, 700.3941605839414, 308.92359727703086)" fill="#fffa"/>
<text x="696.9635036496347" y="308.92359727703086" fill="#111" font-size="0.5em" text-anchor="start" textLength="17.5" transform="rotate(-60, 700.3941605839414, 308.92359727703086)" style="text-shadow: 0 0 1px #fff;">
1.04
</text>
<rect x="703.6498175182478" y="278.00166679366407" width="17.85" height="7.2" transform="rotate(-60, 707.2554744525544, 284.6616667936641)" fill="#fffa"/>
<text x="703.8248175182479" y="284.6616667936641" fill="#111" font-size="0.5em" text-anchor="start" textLength="17.5" transform="rotate(-60, 707.2554744525544, 284.6616667936641)" style="text-shadow: 0 0 1px #fff;">
1.18
</text>
<rect x="717.3724452554741" y="296.95410503778015" width="17.85" height="7.2" transform="rotate(-60, 720.9781021897807, 303.6141050377802)" fill="#fffa"/>
<text x="717.5474452554741" y="303.6141050377802" fill="#111" font-size="0.5em" text-anchor="start" textLength="17.5" transform="rotate(-60, 720.9781021897807, 303.6141050377802)" style="text-shadow: 0 0 1px #fff;">
1.07
</text>
<rect x="724.2337591240872" y="300.9075979094163" width="17.85" height="7.2" transform="rotate(-60, 727.8394160583938, 307.56759790941635)" fill="#fffa"/>
<text x="724.4087591240872" y="307.56759790941635" fill="#111" font-size="0.5em" text-anchor="start" textLength="17.5" transform="rotate(-60, 727.8394160583938, 307.56759790941635)" style="text-shadow: 0 0 1px #fff;">
1.05
</text>
<rect x="731.0950729927002" y="278.3298193412776" width="17.85" height="7.2" transform="rotate(-60, 734.7007299270068, 284.98981934127755)" fill="#fffa"/>
<text x="731.2700729927003" y="284.98981934127755" fill="#111" font-size="0.5em" text-anchor="start" textLength="17.5" transform="rotate(-60, 734.7007299270068, 284.98981934127755)" style="text-shadow: 0 0 1px #fff;">
1.18
</text>
<rect x="744.8177007299265" y="349.27007252872625" width="17.85" height="7.2" transform="rotate(-60, 748.4233576642331, 355.93007252872627)" fill="#fffa"/>
<text x="744.9927007299265" y="355.93007252872627" fill="#111" font-size="0.5em" text-anchor="start" textLength="17.5" transform="rotate(-60, 748.4233576642331, 355.93007252872627)" style="text-shadow: 0 0 1px #fff;">
0.77
</text>
<rect x="751.6790145985395" y="307.60826279254115" width="17.85" height="7.2" transform="rotate(-60, 755.2846715328461, 314.2682627925411)" fill="#fffa"/>
<text x="751.8540145985396" y="314.2682627925411" fill="#111" font-size="0.5em" text-anchor="start" textLength="17.5" transform="rotate(-60, 755.2846715328461, 314.2682627925411)" style="text-shadow: 0 0 1px #fff;">
1.01
</text>
<rect x="758.5403284671527" y="314.6527697972307" width="17.85" height="7.2" transform="rotate(-60, 762.1459854014593, 321.3127697972307)" fill="#fffa"/>
<text x="758.7153284671527" y="321.3127697972307" fill="#111" font-size="0.5em" text-anchor="start" textLength="17.5" transform="rotate(-60, 762.1459854014593, 321.3127697972307)" style="text-shadow: 0 0 1px #fff;">
0.97
</text>
<rect x="772.262956204379" y="143.45326013672963" width="17.85" height="7.2" transform="rotate(-60, 775.8686131386855, 150.11326013672962)" fill="#fffa"/>
<text x="772.4379562043789" y="150.11326013672962" fill="#111" font-size="0.5em" text-anchor="start" textLength="17.5" transform="rotate(-60, 775.8686131386855, 150.11326013672962)" style="text-shadow: 0 0 1px #fff;">
1.96
</text>
<rect x="779.124270072992" y="290.46909124472677" width="17.85" height="7.2" transform="rotate(-60, 782.7299270072986, 297.1290912447268)" fill="#fffa"/>
<text x="779.299270072992" y="297.1290912447268" fill="#111" font-size="0.5em" text-anchor="start" textLength="17.5" transform="rotate(-60, 782.7299270072986, 297.1290912447268)" style="text-shadow: 0 0 1px #fff;">
1.11
</text>
<rect x="785.9855839416051" y="128.2263194792608" width="17.85" height="7.2" transform="rotate(-60, 789.5912408759117, 134.8863194792608)" fill="#fffa"/>
<text x="786.1605839416052" y="134.8863194792608" fill="#111" font-size="0.5em" text-anchor="start" textLength="17.5" transform="rotate(-60, 789.5912408759117, 134.8863194792608)" style="text-shadow: 0 0 1px #fff;">
2.04
</text>
<rect x="799.7082116788313" y="182.7061747343565" width="17.85" height="7.2" transform="rotate(-60, 803.313868613138, 189.3661747343565)" fill="#fffa"/>
<text x="799.8832116788313" y="189.3661747343565" fill="#111" font-size="0.5em" text-anchor="start" textLength="17.5" transform="rotate(-60, 803.313868613138, 189.3661747343565)" style="text-shadow: 0 0 1px #fff;">
1.73
</text>
<rect x="806.5695255474444" y="302.612373081464" width="17.85" height="7.2" transform="rotate(-60, 810.175182481751, 309.27237308146397)" fill="#fffa"/>
<text x="806.7445255474445" y="309.27237308146397" fill="#111" font-size="0.5em" text-anchor="start" textLength="17.5" transform="rotate(-60, 810.175182481751, 309.27237308146397)" style="text-shadow: 0 0 1px #fff;">
1.04
</text>
<rect x="813.4308394160576" y="173.736015348288" width="17.85" height="7.2" transform="rotate(-60, 817.0364963503641, 180.396015348288)" fill="#fffa"/>
<text x="813.6058394160576" y="180.396015348288" fill="#111" font-size="0.5em" text-anchor="start" textLength="17.5" transform="rotate(-60, 817.0364963503641, 180.396015348288)" style="text-shadow: 0 0 1px #fff;">
1.78
</text>
<rect x="827.1534671532837" y="354.6200209078847" width="17.85" height="7.2" transform="rotate(-60, 830.7591240875903, 361.28002090788465)" fill="#fffa"/>
<text x="827.3284671532838" y="361.28002090788465" fill="#111" font-size="0.5em" text-anchor="start" textLength="17.5" transform="rotate(-60, 830.7591240875903, 361.28002090788465)" style="text-shadow: 0 0 1px #fff;">
0.74
</text>
<rect x="834.0147810218969" y="209.64150778014547" width="17.85" height="7.2" transform="rotate(-60, 837.6204379562034, 216.30150778014547)" fill="#fffa"/>
<text x="834.1897810218969" y="216.30150778014547" fill="#111" font-size="0.5em" text-anchor="start" textLength="17.5" transform="rotate(-60, 837.6204379562034, 216.30150778014547)" style="text-shadow: 0 0 1px #fff;">
1.58
</text>
<rect x="840.87609489051" y="305.99821237585945" width="17.85" height="7.2" transform="rotate(-60, 844.4817518248166, 312.6582123758594)" fill="#fffa"/>
<text x="841.05109489051" y="312.6582123758594" fill="#111" font-size="0.5em" text-anchor="start" textLength="17.5" transform="rotate(-60, 844.4817518248166, 312.6582123758594)" style="text-shadow: 0 0 1px #fff;">
1.02
</text>
<rect x="854.5987226277362" y="192.91827438076956" width="17.85" height="7.2" transform="rotate(-60, 858.2043795620427, 199.57827438076956)" fill="#fffa"/>
<text x="854.7737226277362" y="199.57827438076956" fill="#111" font-size="0.5em" text-anchor="start" textLength="17.5" transform="rotate(-60, 858.2043795620427, 199.57827438076956)" style="text-shadow: 0 0 1px #fff;">
1.67
</text>
<rect x="861.4600364963493" y="294.9244895347774" width="17.85" height="7.2" transform="rotate(-60, 865.0656934306559, 301.58448953477745)" fill="#fffa"/>
<text x="861.6350364963494" y="301.58448953477745" fill="#111" font-size="0.5em" text-anchor="start" textLength="17.5" transform="rotate(-60, 865.0656934306559, 301.58448953477745)" style="text-shadow: 0 0 1px #fff;">
1.09
</text>
<rect x="868.3213503649624" y="175.22483269769248" width="17.85" height="7.2" transform="rotate(-60, 871.927007299269, 181.88483269769247)" fill="#fffa"/>
<text x="868.4963503649624" y="181.88483269769247" fill="#111" font-size="0.5em" text-anchor="start" textLength="17.5" transform="rotate(-60, 871.927007299269, 181.88483269769247)" style="text-shadow: 0 0 1px #fff;">
1.77
</text>
<rect x="882.0439781021886" y="370.2527816636995" width="17.85" height="7.2" transform="rotate(-60, 885.6496350364952, 376.9127816636995)" fill="#fffa"/>
<text x="882.2189781021887" y="376.9127816636995" fill="#111" font-size="0.5em" text-anchor="start" textLength="17.5" transform="rotate(-60, 885.6496350364952, 376.9127816636995)" style="text-shadow: 0 0 1px #fff;">
0.65
</text>
<rect x="888.9052919708017" y="324.64887340593407" width="17.85" height="7.2" transform="rotate(-60, 892.5109489051083, 331.30887340593404)" fill="#fffa"/>
<text x="889.0802919708018" y="331.30887340593404" fill="#111" font-size="0.5em" text-anchor="start" textLength="17.5" transform="rotate(-60, 892.5109489051083, 331.30887340593404)" style="text-shadow: 0 0 1px #fff;">
0.92
</text>
<rect x="895.7666058394149" y="373.8643144191921" width="17.85" height="7.2" transform="rotate(-60, 899.3722627737214, 380.5243144191921)" fill="#fffa"/>
<text x="895.9416058394148" y="380.5243144191921" fill="#111" font-size="0.5em" text-anchor="start" textLength="17.5" transform="rotate(-60, 899.3722627737214, 380.5243144191921)" style="text-shadow: 0 0 1px #fff;">
0.63
</text>
<rect x="909.489233576641" y="242.59783795344634" width="17.85" height="7.2" transform="rotate(-60, 913.0948905109476, 249.25783795344634)" fill="#fffa"/>
<text x="909.6642335766411" y="249.25783795344634" fill="#111" font-size="0.5em" text-anchor="start" textLength="17.5" transform="rotate(-60, 913.0948905109476, 249.25783795344634)" style="text-shadow: 0 0 1px #fff;">
1.39
</text>
<rect x="916.3505474452542" y="299.6196770475636" width="17.85" height="7.2" transform="rotate(-60, 919.9562043795607, 306.2796770475636)" fill="#fffa"/>
<text x="916.5255474452541" y="306.2796770475636" fill="#111" font-size="0.5em" text-anchor="start" textLength="17.5" transform="rotate(-60, 919.9562043795607, 306.2796770475636)" style="text-shadow: 0 0 1px #fff;">
1.06
</text>
<rect x="923.2118613138672" y="232.04216727462835" width="17.85" height="7.2" transform="rotate(-60, 926.8175182481738, 238.70216727462835)" fill="#fffa"/>
<text x="923.3868613138673" y="238.70216727462835" fill="#111" font-size="0.5em" text-anchor="start" textLength="17.5" transform="rotate(-60, 926.8175182481738, 238.70216727462835)" style="text-shadow: 0 0 1px #fff;">
1.45
</text>
<rect x="936.9344890510935" y="237.22544474393527" width="17.85" height="7.2" transform="rotate(-60, 940.5401459854, 243.88544474393527)" fill="#fffa"/>
<text x="937.1094890510935" y="243.88544474393527" fill="#111" font-size="0.5em" text-anchor="start" textLength="17.5" transform="rotate(-60, 940.5401459854, 243.88544474393527)" style="text-shadow: 0 0 1px #fff;">
1.42
</text>
<rect x="943.7958029197066" y="289.992511639304" width="17.85" height="7.2" transform="rotate(-60, 947.4014598540132, 296.652511639304)" fill="#fffa"/>
<text x="943.9708029197066" y="296.652511639304" fill="#111" font-size="0.5em" text-anchor="start" textLength="17.5" transform="rotate(-60, 947.4014598540132, 296.652511639304)" style="text-shadow: 0 0 1px #fff;">
1.11
</text>
<rect x="950.6571167883196" y="220.004665523156" width="17.85" height="7.2" transform="rotate(-60, 954.2627737226262, 226.664665523156)" fill="#fffa"/>
<text x="950.8321167883197" y="226.664665523156" fill="#111" font-size="0.5em" text-anchor="start" textLength="17.5" transform="rotate(-60, 954.2627737226262, 226.664665523156)" style="text-shadow: 0 0 1px #fff;">
1.52
</text>
<rect x="964.3797445255459" y="261.8819113991973" width="17.85" height="7.2" transform="rotate(-60, 967.9854014598525, 268.5419113991973)" fill="#fffa"/>
<text x="964.5547445255459" y="268.5419113991973" fill="#111" font-size="0.5em" text-anchor="start" textLength="17.5" transform="rotate(-60, 967.9854014598525, 268.5419113991973)" style="text-shadow: 0 0 1px #fff;">
1.28
</text>
<rect x="971.2410583941589" y="297.04120852813327" width="17.85" height="7.2" transform="rotate(-60, 974.8467153284655, 303.7012085281333)" fill="#fffa"/>
<text x="971.416058394159" y="303.7012085281333" fill="#111" font-size="0.5em" text-anchor="start" textLength="17.5" transform="rotate(-60, 974.8467153284655, 303.7012085281333)" style="text-shadow: 0 0 1px #fff;">
1.07
</text>
<rect x="978.1023722627721" y="246.60904047515214" width="17.85" height="7.2" transform="rotate(-60, 981.7080291970786, 253.26904047515214)" fill="#fffa"/>
<text x="978.2773722627721" y="253.26904047515214" fill="#111" font-size="0.5em" text-anchor="start" textLength="17.5" transform="rotate(-60, 981.7080291970786, 253.26904047515214)" style="text-shadow: 0 0 1px #fff;">
1.36
</text>
</svg>