<svg viewBox="0 0 1000 600" xmlns="http://www.w3.org/2000/svg" xmlns:xlink="http://www.w3.org/1999/xlink" width="100%" height="100%">

<rect x="50.0" y="30.0" width="940.0" height="467.99999999999994" stroke="#000" fill="#fff"/>
<line x1="42.0" y1="497.9999999999999" x2="50.0" y2="497.9999999999999" stroke="#000"/>
<text x="26.000000000000004" y="497.9999999999999" text-anchor="end" font-weight="bold" font-size="small" fill="#111">
0.0
</text>
<line x1="42.0" y1="449.4713448488587" x2="50.0" y2="449.4713448488587" stroke="#000"/>
<text x="26.000000000000004" y="449.4713448488587" text-anchor="end" font-weight="bold" font-size="small" fill="#111">
0.2
</text>
<line x1="42.0" y1="400.9426896977174" x2="50.0" y2="400.9426896977174" stroke="#000"/>
<text x="26.000000000000004" y="400.9426896977174" text-anchor="end" font-weight="bold" font-size="small" fill="#111">
0.4
</text>
<line x1="42.0" y1="352.4140345465762" x2="50.0" y2="352.4140345465762" stroke="#000"/>
<text x="26.000000000000004" y="352.4140345465762" text-anchor="end" font-weight="bold" font-size="small" fill="#111">
0.6
</text>
<line x1="42.0" y1="303.8853793954349" x2="50.0" y2="303.8853793954349" stroke="#000"/>
<text x="26.000000000000004" y="303.8853793954349" text-anchor="end" font-weight="bold" font-size="small" fill="#111">
0.8
</text>
<line x1="42.0" y1="255.3567242442936" x2="50.0" y2="255.3567242442936" stroke="#000"/>
<text x="26.000000000000004" y="255.3567242442936" text-anchor="end" font-weight="bold" font-size="small" fill="#111">
1.0
</text>
<line x1="42.0" y1="206.82806909315238" x2="50.0" y2="206.82806909315238" stroke="#000"/>
<text x="26.000000000000004" y="206.82806909315238" text-anchor="end" font-weight="bold" font-size="small" fill="#111">
1.2
</text>
<line x1="42.0" y1="158.2994139420111" x2="50.0" y2="158.2994139420111" stroke="#000"/>
<text x="26.000000000000004" y="158.2994139420111" text-anchor="end" font-weight="bold" font-size="small" fill="#111">
1.4
</text>
<line x1="42.0" y1="109.77075879086985" x2="50.0" y2="109.77075879086985" stroke="#000"/>
<text x="26.000000000000004" y="109.77075879086985" text-anchor="end" font-weight="bold" font-size="small" fill="#111">
1.6
</text>
<line x1="142.75" y1="54.60000000000001" x2="262.75" y2="54.60000000000001" stroke="#648FFF" stroke-width="2"/>
<text x="202.75" y="49.500000000000014" font-size="small" text-anchor="middle" font-weight="bold" fill="#000">
CRuby 3.4.7
</text>
<rect x="354.25" y="35.400000000000006" width="120.0" height="19.2" fill="#785EF0" stroke="none"/>
<text x="414.25" y="49.500000000000014" font-size="small" text-anchor="middle" font-weight="bold" fill="#fff" style="text-shadow: 0 0 1px #000;">
CRuby 4.1.0dev
</text>
<rect x="565.75" y="35.400000000000006" width="120.0" height="19.2" fill="#FFB000" stroke="none"/>
<text x="625.7499999999999" y="49.500000000000014" font-size="small" text-anchor="middle" font-weight="bold" fill="#fff" style="text-shadow: 0 0 1px #000;">
YJIT 3.4.7
</text>
<rect x="777.25" y="35.400000000000006" width="120.0" height="19.2" fill="#DC267F" stroke="none"/>
<text x="837.2499999999999" y="49.500000000000014" font-size="small" text-anchor="middle" font-weight="bold" fill="#fff" style="text-shadow: 0 0 1px #000;">
YJIT 4.1.0dev
</text>
<rect x="59.30693069306931" y="376.170920137545" width="9.306930693069306" height="121.82907986245496" fill="#785EF0" data-tooltip="0.50x baseline (CRuby 4.1.0dev)"/>
<rect x="68.61386138613862" y="232.71965130409023" width="9.306930693069306" height="265.2803486959097" fill="#FFB000" data-tooltip="1.09x baseline (YJIT 3.4.7)"/>
<rect x="77.92079207920791" y="282.45756650667244" width="9.306930693069306" height="215.54243349332754" fill="#DC267F" data-tooltip="0.89x baseline (YJIT 4.1.0dev)"/>
<line x1="73.26732673267327" y1="498.0" x2="73.26732673267327" y2="502.79999999999995" stroke="#000"/>
<text x="73.26732673267327" y="512.4" fill="#111" font-size="small" text-anchor="end" transform="rotate(-60, 73.26732673267327, 512.4)">
30k_ifelse
</text>
<rect x="96.53465346534652" y="284.1381935627036" width="9.306930693069306" height="213.86180643729637" fill="#785EF0" data-tooltip="0.88x baseline (CRuby 4.1.0dev)"/>
<rect x="105.84158415841583" y="240.6958256052538" width="9.306930693069306" height="257.3041743947461" fill="#FFB000" data-tooltip="1.06x baseline (YJIT 3.4.7)"/>
<rect x="115.14851485148513" y="243.70365124741556" width="9.306930693069306" height="254.29634875258444" fill="#DC267F" data-tooltip="1.05x baseline (YJIT 4.1.0dev)"/>
<line x1="110.49504950495047" y1="498.0" x2="110.49504950495047" y2="502.79999999999995" stroke="#000"/>
<text x="110.49504950495047" y="512.4" fill="#111" font-size="small" text-anchor="end" transform="rotate(-60, 110.49504950495047, 512.4)">
30k_methods
</text>
<rect x="133.76237623762376" y="197.045444067086" width="9.306930693069306" height="300.9545559329139" fill="#785EF0" data-tooltip="1.24x baseline (CRuby 4.1.0dev)"/>
<rect x="143.06930693069305" y="246.59935249606832" width="9.306930693069306" height="251.40064750393162" fill="#FFB000" data-tooltip="1.04x baseline (YJIT 3.4.7)"/>
<rect x="152.37623762376236" y="167.854204906335" width="9.306930693069306" height="330.14579509366496" fill="#DC267F" data-tooltip="1.36x baseline (YJIT 4.1.0dev)"/>
<line x1="147.72277227722773" y1="498.0" x2="147.72277227722773" y2="502.79999999999995" stroke="#000"/>
<text x="147.72277227722773" y="512.4" fill="#111" font-size="small" text-anchor="end" transform="rotate(-60, 147.72277227722773, 512.4)">
attr_accessor
</text>
<rect x="170.990099009901" y="195.88882425720382" width="9.306930693069306" height="302.1111757427961" fill="#785EF0" data-tooltip="1.25x baseline (CRuby 4.1.0dev)"/>
<rect x="180.29702970297032" y="246.52556304860607" width="9.306930693069306" height="251.4744369513939" fill="#FFB000" data-tooltip="1.04x baseline (YJIT 3.4.7)"/>
<rect x="189.60396039603964" y="175.0216449802969" width="9.306930693069306" height="322.97835501970303" fill="#DC267F" data-tooltip="1.33x baseline (YJIT 4.1.0dev)"/>
<line x1="184.950495049505" y1="498.0" x2="184.950495049505" y2="502.79999999999995" stroke="#000"/>
<text x="184.950495049505" y="512.4" fill="#111" font-size="small" text-anchor="end" transform="rotate(-60, 184.950495049505, 512.4)">
cfunc_itself
</text>
<rect x="208.21782178217828" y="197.11664221138057" width="9.306930693069306" height="300.8833577886194" fill="#785EF0" data-tooltip="1.24x baseline (CRuby 4.1.0dev)"/>
<rect x="217.52475247524757" y="246.67055064036282" width="9.306930693069306" height="251.32944935963712" fill="#FFB000" data-tooltip="1.04x baseline (YJIT 3.4.7)"/>
<rect x="226.83168316831689" y="179.81549314781347" width="9.306930693069306" height="318.18450685218653" fill="#DC267F" data-tooltip="1.31x baseline (YJIT 4.1.0dev)"/>
<line x1="222.17821782178225" y1="498.0" x2="222.17821782178225" y2="502.79999999999995" stroke="#000"/>
<text x="222.17821782178225" y="512.4" fill="#111" font-size="small" text-anchor="end" transform="rotate(-60, 222.17821782178225, 512.4)">
fib
</text>
<rect x="245.44554455445552" y="195.90627375837374" width="9.306930693069306" height="302.09372624162614" fill="#785EF0" data-tooltip="1.25x baseline (CRuby 4.1.0dev)"/>
<rect x="254.7524752475248" y="246.24336177459568" width="9.306930693069306" height="251.75663822540423" fill="#FFB000" data-tooltip="1.04x baseline (YJIT 3.4.7)"/>
<rect x="264.0594059405941" y="161.37517377553414" width="9.306930693069306" height="336.6248262244658" fill="#DC267F" data-tooltip="1.39x baseline (YJIT 4.1.0dev)"/>
<line x1="259.4059405940595" y1="498.0" x2="259.4059405940595" y2="502.79999999999995" stroke="#000"/>
<text x="259.4059405940595" y="512.4" fill="#111" font-size="small" text-anchor="end" transform="rotate(-60, 259.4059405940595, 512.4)">
getivar
</text>
<rect x="282.67326732673274" y="197.1337264243559" width="9.306930693069306" height="300.866273575644" fill="#785EF0" data-tooltip="1.24x baseline (CRuby 4.1.0dev)"/>
<rect x="291.98019801980206" y="246.24603509887547" width="9.306930693069306" height="251.75396490112448" fill="#FFB000" data-tooltip="1.04x baseline (YJIT 3.4.7)"/>
<rect x="301.2871287128714" y="186.7418466178633" width="9.306930693069306" height="311.2581533821366" fill="#DC267F" data-tooltip="1.28x baseline (YJIT 4.1.0dev)"/>
<line x1="296.6336633663368" y1="498.0" x2="296.6336633663368" y2="502.79999999999995" stroke="#000"/>
<text x="296.6336633663368" y="512.4" fill="#111" font-size="small" text-anchor="end" transform="rotate(-60, 296.6336633663368, 512.4)">
getivar-module
</text>
<rect x="319.90099009901" y="197.11664221138057" width="9.306930693069306" height="300.8833577886194" fill="#785EF0" data-tooltip="1.24x baseline (CRuby 4.1.0dev)"/>
<rect x="329.20792079207934" y="246.52815435177385" width="9.306930693069306" height="251.4718456482261" fill="#FFB000" data-tooltip="1.04x baseline (YJIT 3.4.7)"/>
<rect x="338.51485148514865" y="176.32678407738223" width="9.306930693069306" height="321.67321592261766" fill="#DC267F" data-tooltip="1.33x baseline (YJIT 4.1.0dev)"/>
<line x1="333.861386138614" y1="498.0" x2="333.861386138614" y2="502.79999999999995" stroke="#000"/>
<text x="333.861386138614" y="512.4" fill="#111" font-size="small" text-anchor="end" transform="rotate(-60, 333.861386138614, 512.4)">
keyword_args
</text>
<rect x="357.1287128712873" y="204.86483652066622" width="9.306930693069306" height="293.13516347933376" fill="#785EF0" data-tooltip="1.21x baseline (CRuby 4.1.0dev)"/>
<rect x="366.4356435643566" y="203.69916718075265" width="9.306930693069306" height="294.3008328192473" fill="#FFB000" data-tooltip="1.21x baseline (YJIT 3.4.7)"/>
<rect x="375.74257425742593" y="100.19999999999999" width="9.306930693069306" height="397.79999999999995" fill="#DC267F" data-tooltip="1.64x baseline (YJIT 4.1.0dev)"/>
<line x1="371.0891089108913" y1="498.0" x2="371.0891089108913" y2="502.79999999999995" stroke="#000"/>
<text x="371.0891089108913" y="512.4" fill="#111" font-size="small" text-anchor="end" transform="rotate(-60, 371.0891089108913, 512.4)">
loops-times
</text>
<rect x="394.35643564356457" y="126.52147744591595" width="9.306930693069306" height="371.47852255408395" fill="#785EF0" data-tooltip="1.53x baseline (CRuby 4.1.0dev)"/>
<rect x="403.6633663366338" y="246.73922017430817" width="9.306930693069306" height="251.26077982569177" fill="#FFB000" data-tooltip="1.04x baseline (YJIT 3.4.7)"/>
<rect x="412.97029702970315" y="120.39663984245522" width="9.306930693069306" height="377.6033601575447" fill="#DC267F" data-tooltip="1.56x baseline (YJIT 4.1.0dev)"/>
<line x1="408.3168316831686" y1="498.0" x2="408.3168316831686" y2="502.79999999999995" stroke="#000"/>
<text x="408.3168316831686" y="512.4" fill="#111" font-size="small" text-anchor="end" transform="rotate(-60, 408.3168316831686, 512.4)">
object-new
</text>
<rect x="431.5841584158418" y="164.84802507746338" width="9.306930693069306" height="333.15197492253657" fill="#785EF0" data-tooltip="1.37x baseline (CRuby 4.1.0dev)"/>
<rect x="440.8910891089111" y="247.15372713777973" width="9.306930693069306" height="250.84627286222022" fill="#FFB000" data-tooltip="1.03x baseline (YJIT 3.4.7)"/>
<rect x="450.1980198019804" y="158.91980868115917" width="9.306930693069306" height="339.0801913188407" fill="#DC267F" data-tooltip="1.40x baseline (YJIT 4.1.0dev)"/>
<line x1="445.54455445544585" y1="498.0" x2="445.54455445544585" y2="502.79999999999995" stroke="#000"/>
<text x="445.54455445544585" y="512.4" fill="#111" font-size="small" text-anchor="end" transform="rotate(-60, 445.54455445544585, 512.4)">
object-new-initialize
</text>
<rect x="468.81188118811906" y="126.55928121551645" width="9.306930693069306" height="371.4407187844835" fill="#785EF0" data-tooltip="1.53x baseline (CRuby 4.1.0dev)"/>
<rect x="478.1188118811884" y="246.67055064036282" width="9.306930693069306" height="251.32944935963712" fill="#FFB000" data-tooltip="1.04x baseline (YJIT 3.4.7)"/>
<rect x="487.4257425742577" y="119.2258723531814" width="9.306930693069306" height="378.7741276468185" fill="#DC267F" data-tooltip="1.56x baseline (YJIT 4.1.0dev)"/>
<line x1="482.77227722772307" y1="498.0" x2="482.77227722772307" y2="502.79999999999995" stroke="#000"/>
<text x="482.77227722772307" y="512.4" fill="#111" font-size="small" text-anchor="end" transform="rotate(-60, 482.77227722772307, 512.4)">
object-new-no-escape
</text>
<rect x="506.0396039603963" y="197.045444067086" width="9.306930693069306" height="300.9545559329139" fill="#785EF0" data-tooltip="1.24x baseline (CRuby 4.1.0dev)"/>
<rect x="515.3465346534656" y="246.17216363030124" width="9.306930693069306" height="251.82783636969873" fill="#FFB000" data-tooltip="1.04x baseline (YJIT 3.4.7)"/>
<rect x="524.6534653465349" y="142.86365625896028" width="9.306930693069306" height="355.13634374103964" fill="#DC267F" data-tooltip="1.46x baseline (YJIT 4.1.0dev)"/>
<line x1="520.0000000000002" y1="498.0" x2="520.0000000000002" y2="502.79999999999995" stroke="#000"/>
<text x="520.0000000000002" y="512.4" fill="#111" font-size="small" text-anchor="end" transform="rotate(-60, 520.0000000000002, 512.4)">
respond_to
</text>
<rect x="543.2673267326735" y="171.5558946325438" width="9.306930693069306" height="326.44410536745613" fill="#785EF0" data-tooltip="1.35x baseline (CRuby 4.1.0dev)"/>
<rect x="552.5742574257429" y="247.38191830620198" width="9.306930693069306" height="250.61808169379796" fill="#FFB000" data-tooltip="1.03x baseline (YJIT 3.4.7)"/>
<rect x="561.8811881188121" y="164.75769940662957" width="9.306930693069306" height="333.24230059337043" fill="#DC267F" data-tooltip="1.37x baseline (YJIT 4.1.0dev)"/>
<line x1="557.2277227722775" y1="498.0" x2="557.2277227722775" y2="502.79999999999995" stroke="#000"/>
<text x="557.2277227722775" y="512.4" fill="#111" font-size="small" text-anchor="end" transform="rotate(-60, 557.2277227722775, 512.4)">
ruby-xor
</text>
<rect x="580.4950495049508" y="196.95710988571446" width="9.306930693069306" height="301.04289011428546" fill="#785EF0" data-tooltip="1.24x baseline (CRuby 4.1.0dev)"/>
<rect x="589.8019801980201" y="245.52849646199618" width="9.306930693069306" height="252.47150353800382" fill="#FFB000" data-tooltip="1.04x baseline (YJIT 3.4.7)"/>
<rect x="599.1089108910894" y="150.2374183988512" width="9.306930693069306" height="347.7625816011487" fill="#DC267F" data-tooltip="1.43x baseline (YJIT 4.1.0dev)"/>
<line x1="594.4554455445548" y1="498.0" x2="594.4554455445548" y2="502.79999999999995" stroke="#000"/>
<text x="594.4554455445548" y="512.4" fill="#111" font-size="small" text-anchor="end" transform="rotate(-60, 594.4554455445548, 512.4)">
send_bmethod
</text>
<rect x="617.722772277228" y="197.16786479892053" width="9.306930693069306" height="300.8321352010794" fill="#785EF0" data-tooltip="1.24x baseline (CRuby 4.1.0dev)"/>
<rect x="627.0297029702974" y="246.53591914499503" width="9.306930693069306" height="251.4640808550049" fill="#FFB000" data-tooltip="1.04x baseline (YJIT 3.4.7)"/>
<rect x="636.3366336633667" y="185.99958737480856" width="9.306930693069306" height="312.00041262519136" fill="#DC267F" data-tooltip="1.29x baseline (YJIT 4.1.0dev)"/>
<line x1="631.683168316832" y1="498.0" x2="631.683168316832" y2="502.79999999999995" stroke="#000"/>
<text x="631.683168316832" y="512.4" fill="#111" font-size="small" text-anchor="end" transform="rotate(-60, 631.683168316832, 512.4)">
send_cfunc_block
</text>
<rect x="654.9504950495053" y="196.9742459227915" width="9.306930693069306" height="301.0257540772084" fill="#785EF0" data-tooltip="1.24x baseline (CRuby 4.1.0dev)"/>
<rect x="664.2574257425746" y="246.59935249606832" width="9.306930693069306" height="251.40064750393162" fill="#FFB000" data-tooltip="1.04x baseline (YJIT 3.4.7)"/>
<rect x="673.564356435644" y="174.54683047001936" width="9.306930693069306" height="323.45316952998064" fill="#DC267F" data-tooltip="1.33x baseline (YJIT 4.1.0dev)"/>
<line x1="668.9108910891093" y1="498.0" x2="668.9108910891093" y2="502.79999999999995" stroke="#000"/>
<text x="668.9108910891093" y="512.4" fill="#111" font-size="small" text-anchor="end" transform="rotate(-60, 668.9108910891093, 512.4)">
send_rubyfunc_block
</text>
<rect x="692.1782178217826" y="194.7671034496616" width="9.306930693069306" height="303.23289655033835" fill="#785EF0" data-tooltip="1.25x baseline (CRuby 4.1.0dev)"/>
<rect x="701.4851485148519" y="245.74497476453416" width="9.306930693069306" height="252.25502523546578" fill="#FFB000" data-tooltip="1.04x baseline (YJIT 3.4.7)"/>
<rect x="710.7920792079212" y="150.48185769847333" width="9.306930693069306" height="347.51814230152655" fill="#DC267F" data-tooltip="1.43x baseline (YJIT 4.1.0dev)"/>
<line x1="706.1386138613865" y1="498.0" x2="706.1386138613865" y2="502.79999999999995" stroke="#000"/>
<text x="706.1386138613865" y="512.4" fill="#111" font-size="small" text-anchor="end" transform="rotate(-60, 706.1386138613865, 512.4)">
setivar
</text>
<rect x="729.4059405940599" y="195.90627375837374" width="9.306930693069306" height="302.09372624162614" fill="#785EF0" data-tooltip="1.25x baseline (CRuby 4.1.0dev)"/>
<rect x="738.7128712871291" y="246.52815435177385" width="9.306930693069306" height="251.4718456482261" fill="#FFB000" data-tooltip="1.04x baseline (YJIT 3.4.7)"/>
<rect x="748.0198019801985" y="183.3754003625392" width="9.306930693069306" height="314.6245996374608" fill="#DC267F" data-tooltip="1.30x baseline (YJIT 4.1.0dev)"/>
<line x1="743.3663366336638" y1="498.0" x2="743.3663366336638" y2="502.79999999999995" stroke="#000"/>
<text x="743.3663366336638" y="512.4" fill="#111" font-size="small" text-anchor="end" transform="rotate(-60, 743.3663366336638, 512.4)">
setivar_object
</text>
<rect x="766.6336633663371" y="195.90627375837374" width="9.306930693069306" height="302.09372624162614" fill="#785EF0" data-tooltip="1.25x baseline (CRuby 4.1.0dev)"/>
<rect x="775.9405940594064" y="246.4569562074793" width="9.306930693069306" height="251.54304379252065" fill="#FFB000" data-tooltip="1.04x baseline (YJIT 3.4.7)"/>
<rect x="785.2475247524757" y="181.95143747664892" width="9.306930693069306" height="316.04856252335105" fill="#DC267F" data-tooltip="1.30x baseline (YJIT 4.1.0dev)"/>
<line x1="780.594059405941" y1="498.0" x2="780.594059405941" y2="502.79999999999995" stroke="#000"/>
<text x="780.594059405941" y="512.4" fill="#111" font-size="small" text-anchor="end" transform="rotate(-60, 780.594059405941, 512.4)">
setivar_young
</text>
<rect x="803.8613861386143" y="236.58345770782492" width="9.306930693069306" height="261.416542292175" fill="#785EF0" data-tooltip="1.08x baseline (CRuby 4.1.0dev)"/>
<rect x="813.1683168316837" y="251.9412317319335" width="9.306930693069306" height="246.05876826806644" fill="#FFB000" data-tooltip="1.01x baseline (YJIT 3.4.7)"/>
<rect x="822.475247524753" y="234.17111684245177" width="9.306930693069306" height="263.82888315754815" fill="#DC267F" data-tooltip="1.09x baseline (YJIT 4.1.0dev)"/>
<line x1="817.8217821782183" y1="498.0" x2="817.8217821782183" y2="502.79999999999995" stroke="#000"/>
<text x="817.8217821782183" y="512.4" fill="#111" font-size="small" text-anchor="end" transform="rotate(-60, 817.8217821782183, 512.4)">
str_concat
</text>
<rect x="841.0891089108916" y="197.045444067086" width="9.306930693069306" height="300.9545559329139" fill="#785EF0" data-tooltip="1.24x baseline (CRuby 4.1.0dev)"/>
<rect x="850.396039603961" y="246.67055064036282" width="9.306930693069306" height="251.32944935963712" fill="#FFB000" data-tooltip="1.04x baseline (YJIT 3.4.7)"/>
<rect x="859.7029702970302" y="167.7830067620405" width="9.306930693069306" height="330.21699323795946" fill="#DC267F" data-tooltip="1.36x baseline (YJIT 4.1.0dev)"/>
<line x1="855.0495049504956" y1="498.0" x2="855.0495049504956" y2="502.79999999999995" stroke="#000"/>
<text x="855.0495049504956" y="512.4" fill="#111" font-size="small" text-anchor="end" transform="rotate(-60, 855.0495049504956, 512.4)">
structaref
</text>
<rect x="878.3168316831689" y="195.90627375837374" width="9.306930693069306" height="302.09372624162614" fill="#785EF0" data-tooltip="1.25x baseline (CRuby 4.1.0dev)"/>
<rect x="887.6237623762382" y="246.52815435177385" width="9.306930693069306" height="251.4718456482261" fill="#FFB000" data-tooltip="1.04x baseline (YJIT 3.4.7)"/>
<rect x="896.9306930693075" y="184.65696695984047" width="9.306930693069306" height="313.34303304015947" fill="#DC267F" data-tooltip="1.29x baseline (YJIT 4.1.0dev)"/>
<line x1="892.2772277227729" y1="498.0" x2="892.2772277227729" y2="502.79999999999995" stroke="#000"/>
<text x="892.2772277227729" y="512.4" fill="#111" font-size="small" text-anchor="end" transform="rotate(-60, 892.2772277227729, 512.4)">
structaset
</text>
<rect x="915.5445544554461" y="126.3790393621145" width="9.306930693069306" height="371.6209606378854" fill="#785EF0" data-tooltip="1.53x baseline (CRuby 4.1.0dev)"/>
<rect x="924.8514851485154" y="246.31190592290395" width="9.306930693069306" height="251.688094077096" fill="#FFB000" data-tooltip="1.04x baseline (YJIT 3.4.7)"/>
<rect x="934.1584158415848" y="119.18591613014317" width="9.306930693069306" height="378.81408386985674" fill="#DC267F" data-tooltip="1.56x baseline (YJIT 4.1.0dev)"/>
<line x1="929.5049504950501" y1="498.0" x2="929.5049504950501" y2="502.79999999999995" stroke="#000"/>
<text x="929.5049504950501" y="512.4" fill="#111" font-size="small" text-anchor="end" transform="rotate(-60, 929.5049504950501, 512.4)">
throw
</text>
<rect x="952.7722772277234" y="204.13923219302237" width="9.306930693069306" height="293.86076780697755" fill="#785EF0" data-tooltip="1.21x baseline (CRuby 4.1.0dev)"/>
<rect x="962.0792079207927" y="244.26775229362238" width="9.306930693069306" height="253.7322477063776" fill="#FFB000" data-tooltip="1.05x baseline (YJIT 3.4.7)"/>
<rect x="971.386138613862" y="173.97163121454787" width="9.306930693069306" height="324.02836878545213" fill="#DC267F" data-tooltip="1.34x baseline (YJIT 4.1.0dev)"/>
<line x1="966.7326732673274" y1="498.0" x2="966.7326732673274" y2="502.79999999999995" stroke="#000"/>
<text x="966.7326732673274" y="512.4" fill="#111" font-size="small" text-anchor="end" transform="rotate(-60, 966.7326732673274, 512.4)" font-style="italic">
geomean*
</text>
<line x1="50.0" y1="255.3567242442936" x2="990.0" y2="255.3567242442936" stroke="#648FFF" stroke-width="2"/>
<rect x="61.131930693069314" y="362.01092013754504" width="17.85" height="7.2" transform="rotate(-60, 65.96039603960396, 368.67092013754507)" fill="#fffa"/>
<text x="61.30693069306931" y="368.67092013754507" fill="#111" font-size="0.5em" text-anchor="start" textLength="17.5" transform="rotate(-60, 65.96039603960396, 368.67092013754507)" style="text-shadow: 0 0 1px #fff;">
0.50
</text>
<rect x="70.43886138613863" y="218.55965130409024" width="17.85" height="7.2" transform="rotate(-60, 75.26732673267328, 225.21965130409023)" fill="#fffa"/>
<text x="70.61386138613862" y="225.21965130409023" fill="#111" font-size="0.5em" text-anchor="start" textLength="17.5" transform="rotate(-60, 75.26732673267328, 225.21965130409023)" style="text-shadow: 0 0 1px #fff;">
1.09
</text>
<rect x="79.74579207920793" y="268.2975665066724" width="17.85" height="7.2" transform="rotate(-60, 84.57425742574257, 274.95756650667244)" fill="#fffa"/>
<text x="79.92079207920793" y="274.95756650667244" fill="#111" font-size="0.5em" text-anchor="start" textLength="17.5" transform="rotate(-60, 84.57425742574257, 274.95756650667244)" style="text-shadow: 0 0 1px #fff;">
0.89
</text>
<rect x="98.35965346534653" y="269.97819356270355" width="17.85" height="7.2" transform="rotate(-60, 103.18811881188118, 276.6381935627036)" fill="#fffa"/>
<text x="98.53465346534652" y="276.6381935627036" fill="#111" font-size="0.5em" text-anchor="start" textLength="17.5" transform="rotate(-60, 103.18811881188118, 276.6381935627036)" style="text-shadow: 0 0 1px #fff;">
0.88
</text>
<rect x="107.66658415841583" y="226.5358256052538" width="17.85" height="7.2" transform="rotate(-60, 112.49504950495049, 233.1958256052538)" fill="#fffa"/>
<text x="107.84158415841583" y="233.1958256052538" fill="#111" font-size="0.5em" text-anchor="start" textLength="17.5" transform="rotate(-60, 112.49504950495049, 233.1958256052538)" style="text-shadow: 0 0 1px #fff;">
1.06
</text>
<rect x="116.97351485148513" y="229.54365124741554" width="17.85" height="7.2" transform="rotate(-60, 121.80198019801979, 236.20365124741554)" fill="#fffa"/>
<text x="117.14851485148513" y="236.20365124741554" fill="#111" font-size="0.5em" text-anchor="start" textLength="17.5" transform="rotate(-60, 121.80198019801979, 236.20365124741554)" style="text-shadow: 0 0 1px #fff;">
1.05
</text>
<rect x="135.58737623762374" y="182.885444067086" width="17.85" height="7.2" transform="rotate(-60, 140.41584158415841, 189.545444067086)" fill="#fffa"/>
<text x="135.76237623762376" y="189.545444067086" fill="#111" font-size="0.5em" text-anchor="start" textLength="17.5" transform="rotate(-60, 140.41584158415841, 189.545444067086)" style="text-shadow: 0 0 1px #fff;">
1.24
</text>
<rect x="144.89430693069306" y="232.4393524960683" width="17.85" height="7.2" transform="rotate(-60, 149.7227722772277, 239.09935249606832)" fill="#fffa"/>
<text x="145.06930693069305" y="239.09935249606832" fill="#111" font-size="0.5em" text-anchor="start" textLength="17.5" transform="rotate(-60, 149.7227722772277, 239.09935249606832)" style="text-shadow: 0 0 1px #fff;">
1.04
</text>
<rect x="154.20123762376235" y="153.69420490633502" width="17.85" height="7.2" transform="rotate(-60, 159.02970297029702, 160.354204906335)" fill="#fffa"/>
<text x="154.37623762376236" y="160.354204906335" fill="#111" font-size="0.5em" text-anchor="start" textLength="17.5" transform="rotate(-60, 159.02970297029702, 160.354204906335)" style="text-shadow: 0 0 1px #fff;">
1.36
</text>
<rect x="172.815099009901" y="181.72882425720383" width="17.85" height="7.2" transform="rotate(-60, 177.64356435643566, 188.38882425720382)" fill="#fffa"/>
<text x="172.990099009901" y="188.38882425720382" fill="#111" font-size="0.5em" text-anchor="start" textLength="17.5" transform="rotate(-60, 177.64356435643566, 188.38882425720382)" style="text-shadow: 0 0 1px #fff;">
1.25
</text>
<rect x="182.1220297029703" y="232.36556304860605" width="17.85" height="7.2" transform="rotate(-60, 186.95049504950498, 239.02556304860607)" fill="#fffa"/>
<text x="182.29702970297032" y="239.02556304860607" fill="#111" font-size="0.5em" text-anchor="start" textLength="17.5" transform="rotate(-60, 186.95049504950498, 239.02556304860607)" style="text-shadow: 0 0 1px #fff;">
1.04
</text>
<rect x="191.42896039603963" y="160.86164498029692" width="17.85" height="7.2" transform="rotate(-60, 196.2574257425743, 167.5216449802969)" fill="#fffa"/>
<text x="191.60396039603964" y="167.5216449802969" fill="#111" font-size="0.5em" text-anchor="start" textLength="17.5" transform="rotate(-60, 196.2574257425743, 167.5216449802969)" style="text-shadow: 0 0 1px #fff;">
1.33
</text>
<rect x="210.04282178217827" y="182.95664221138054" width="17.85" height="7.2" transform="rotate(-60, 214.87128712871294, 189.61664221138054)" fill="#fffa"/>
<text x="210.21782178217828" y="189.61664221138054" fill="#111" font-size="0.5em" text-anchor="start" textLength="17.5" transform="rotate(-60, 214.87128712871294, 189.61664221138054)" style="text-shadow: 0 0 1px #fff;">
1.24
</text>
<rect x="219.34975247524758" y="232.51055064036282" width="17.85" height="7.2" transform="rotate(-60, 224.17821782178223, 239.17055064036282)" fill="#fffa"/>
<text x="219.52475247524757" y="239.17055064036282" fill="#111" font-size="0.5em" text-anchor="start" textLength="17.5" transform="rotate(-60, 224.17821782178223, 239.17055064036282)" style="text-shadow: 0 0 1px #fff;">
1.04
</text>
<rect x="228.65668316831687" y="165.65549314781347" width="17.85" height="7.2" transform="rotate(-60, 233.48514851485155, 172.31549314781347)" fill="#fffa"/>
<text x="228.83168316831689" y="172.31549314781347" fill="#111" font-size="0.5em" text-anchor="start" textLength="17.5" transform="rotate(-60, 233.48514851485155, 172.31549314781347)" style="text-shadow: 0 0 1px #fff;">
1.31
</text>
<rect x="247.2705445544555" y="181.74627375837375" width="17.85" height="7.2" transform="rotate(-60, 252.09900990099015, 188.40627375837374)" fill="#fffa"/>
<text x="247.44554455445552" y="188.40627375837374" fill="#111" font-size="0.5em" text-anchor="start" textLength="17.5" transform="rotate(-60, 252.09900990099015, 188.40627375837374)" style="text-shadow: 0 0 1px #fff;">
1.25
</text>
<rect x="256.57747524752483" y="232.0833617745957" width="17.85" height="7.2" transform="rotate(-60, 261.4059405940595, 238.74336177459568)" fill="#fffa"/>
<text x="256.75247524752484" y="238.74336177459568" fill="#111" font-size="0.5em" text-anchor="start" textLength="17.5" transform="rotate(-60, 261.4059405940595, 238.74336177459568)" style="text-shadow: 0 0 1px #fff;">
1.04
</text>
<rect x="265.88440594059415" y="147.21517377553414" width="17.85" height="7.2" transform="rotate(-60, 270.7128712871288, 153.87517377553414)" fill="#fffa"/>
<text x="266.0594059405941" y="153.87517377553414" fill="#111" font-size="0.5em" text-anchor="start" textLength="17.5" transform="rotate(-60, 270.7128712871288, 153.87517377553414)" style="text-shadow: 0 0 1px #fff;">
1.39
</text>
<rect x="284.4982673267328" y="182.97372642435587" width="17.85" height="7.2" transform="rotate(-60, 289.32673267326743, 189.6337264243559)" fill="#fffa"/>
<text x="284.67326732673274" y="189.6337264243559" fill="#111" font-size="0.5em" text-anchor="start" textLength="17.5" transform="rotate(-60, 289.32673267326743, 189.6337264243559)" style="text-shadow: 0 0 1px #fff;">
1.24
</text>
<rect x="293.8051980198021" y="232.08603509887547" width="17.85" height="7.2" transform="rotate(-60, 298.63366336633675, 238.74603509887547)" fill="#fffa"/>
<text x="293.98019801980206" y="238.74603509887547" fill="#111" font-size="0.5em" text-anchor="start" textLength="17.5" transform="rotate(-60, 298.63366336633675, 238.74603509887547)" style="text-shadow: 0 0 1px #fff;">
1.04
</text>
<rect x="303.1121287128714" y="172.5818466178633" width="17.85" height="7.2" transform="rotate(-60, 307.94059405940607, 179.2418466178633)" fill="#fffa"/>
<text x="303.2871287128714" y="179.2418466178633" fill="#111" font-size="0.5em" text-anchor="start" textLength="17.5" transform="rotate(-60, 307.94059405940607, 179.2418466178633)" style="text-shadow: 0 0 1px #fff;">
1.28
</text>
<rect x="321.72599009901006" y="182.95664221138054" width="17.85" height="7.2" transform="rotate(-60, 326.5544554455447, 189.61664221138054)" fill="#fffa"/>
<text x="321.90099009901" y="189.61664221138054" fill="#111" font-size="0.5em" text-anchor="start" textLength="17.5" transform="rotate(-60, 326.5544554455447, 189.61664221138054)" style="text-shadow: 0 0 1px #fff;">
1.24
</text>
<rect x="331.0329207920794" y="232.36815435177382" width="17.85" height="7.2" transform="rotate(-60, 335.86138613861397, 239.02815435177385)" fill="#fffa"/>
<text x="331.20792079207934" y="239.02815435177385" fill="#111" font-size="0.5em" text-anchor="start" textLength="17.5" transform="rotate(-60, 335.86138613861397, 239.02815435177385)" style="text-shadow: 0 0 1px #fff;">
1.04
</text>
<rect x="340.33985148514864" y="162.16678407738223" width="17.85" height="7.2" transform="rotate(-60, 345.1683168316833, 168.82678407738223)" fill="#fffa"/>
<text x="340.51485148514865" y="168.82678407738223" fill="#111" font-size="0.5em" text-anchor="start" textLength="17.5" transform="rotate(-60, 345.1683168316833, 168.82678407738223)" style="text-shadow: 0 0 1px #fff;">
1.33
</text>
<rect x="358.9537128712873" y="190.70483652066622" width="17.85" height="7.2" transform="rotate(-60, 363.7821782178219, 197.36483652066622)" fill="#fffa"/>
<text x="359.1287128712873" y="197.36483652066622" fill="#111" font-size="0.5em" text-anchor="start" textLength="17.5" transform="rotate(-60, 363.7821782178219, 197.36483652066622)" style="text-shadow: 0 0 1px #fff;">
1.21
</text>
<rect x="368.2606435643566" y="189.53916718075266" width="17.85" height="7.2" transform="rotate(-60, 373.08910891089124, 196.19916718075265)" fill="#fffa"/>
<text x="368.4356435643566" y="196.19916718075265" fill="#111" font-size="0.5em" text-anchor="start" textLength="17.5" transform="rotate(-60, 373.08910891089124, 196.19916718075265)" style="text-shadow: 0 0 1px #fff;">
1.21
</text>
<rect x="377.5675742574259" y="86.03999999999998" width="17.85" height="7.2" transform="rotate(-60, 382.39603960396056, 92.69999999999999)" fill="#fffa"/>
<text x="377.74257425742593" y="92.69999999999999" fill="#111" font-size="0.5em" text-anchor="start" textLength="17.5" transform="rotate(-60, 382.39603960396056, 92.69999999999999)" style="text-shadow: 0 0 1px #fff;">
1.64
</text>
<rect x="396.18143564356455" y="112.36147744591594" width="17.85" height="7.2" transform="rotate(-60, 401.0099009900992, 119.02147744591593)" fill="#fffa"/>
<text x="396.35643564356457" y="119.02147744591593" fill="#111" font-size="0.5em" text-anchor="start" textLength="17.5" transform="rotate(-60, 401.0099009900992, 119.02147744591593)" style="text-shadow: 0 0 1px #fff;">
1.53
</text>
<rect x="405.4883663366339" y="232.57922017430818" width="17.85" height="7.2" transform="rotate(-60, 410.3168316831685, 239.23922017430817)" fill="#fffa"/>
<text x="405.6633663366339" y="239.23922017430817" fill="#111" font-size="0.5em" text-anchor="start" textLength="17.5" transform="rotate(-60, 410.3168316831685, 239.23922017430817)" style="text-shadow: 0 0 1px #fff;">
1.04
</text>
<rect x="414.7952970297032" y="106.23663984245522" width="17.85" height="7.2" transform="rotate(-60, 419.62376237623783, 112.89663984245522)" fill="#fffa"/>
<text x="414.97029702970315" y="112.89663984245522" fill="#111" font-size="0.5em" text-anchor="start" textLength="17.5" transform="rotate(-60, 419.62376237623783, 112.89663984245522)" style="text-shadow: 0 0 1px #fff;">
1.56
</text>
<rect x="433.40915841584183" y="150.68802507746338" width="17.85" height="7.2" transform="rotate(-60, 438.2376237623765, 157.34802507746338)" fill="#fffa"/>
<text x="433.5841584158418" y="157.34802507746338" fill="#111" font-size="0.5em" text-anchor="start" textLength="17.5" transform="rotate(-60, 438.2376237623765, 157.34802507746338)" style="text-shadow: 0 0 1px #fff;">
1.37
</text>
<rect x="442.71608910891115" y="232.99372713777973" width="17.85" height="7.2" transform="rotate(-60, 447.5445544554458, 239.65372713777973)" fill="#fffa"/>
<text x="442.8910891089111" y="239.65372713777973" fill="#111" font-size="0.5em" text-anchor="start" textLength="17.5" transform="rotate(-60, 447.5445544554458, 239.65372713777973)" style="text-shadow: 0 0 1px #fff;">
1.03
</text>
<rect x="452.02301980198047" y="144.75980868115917" width="17.85" height="7.2" transform="rotate(-60, 456.8514851485151, 151.41980868115917)" fill="#fffa"/>
<text x="452.1980198019804" y="151.41980868115917" fill="#111" font-size="0.5em" text-anchor="start" textLength="17.5" transform="rotate(-60, 456.8514851485151, 151.41980868115917)" style="text-shadow: 0 0 1px #fff;">
1.40
</text>
<rect x="470.6368811881191" y="112.39928121551644" width="17.85" height="7.2" transform="rotate(-60, 475.46534653465375, 119.05928121551645)" fill="#fffa"/>
<text x="470.81188118811906" y="119.05928121551645" fill="#111" font-size="0.5em" text-anchor="start" textLength="17.5" transform="rotate(-60, 475.46534653465375, 119.05928121551645)" style="text-shadow: 0 0 1px #fff;">
1.53
</text>
<rect x="479.9438118811884" y="232.51055064036282" width="17.85" height="7.2" transform="rotate(-60, 484.772277227723, 239.17055064036282)" fill="#fffa"/>
<text x="480.1188118811884" y="239.17055064036282" fill="#111" font-size="0.5em" text-anchor="start" textLength="17.5" transform="rotate(-60, 484.772277227723, 239.17055064036282)" style="text-shadow: 0 0 1px #fff;">
1.04
</text>
<rect x="489.2507425742577" y="105.06587235318139" width="17.85" height="7.2" transform="rotate(-60, 494.0792079207923, 111.72587235318139)" fill="#fffa"/>
<text x="489.4257425742577" y="111.72587235318139" fill="#111" font-size="0.5em" text-anchor="start" textLength="17.5" transform="rotate(-60, 494.0792079207923, 111.72587235318139)" style="text-shadow: 0 0 1px #fff;">
1.56
</text>
<rect x="507.8646039603962" y="182.885444067086" width="17.85" height="7.2" transform="rotate(-60, 512.693069306931, 189.545444067086)" fill="#fffa"/>
<text x="508.0396039603963" y="189.545444067086" fill="#111" font-size="0.5em" text-anchor="start" textLength="17.5" transform="rotate(-60, 512.693069306931, 189.545444067086)" style="text-shadow: 0 0 1px #fff;">
1.24
</text>
<rect x="517.1715346534655" y="232.01216363030125" width="17.85" height="7.2" transform="rotate(-60, 522.0000000000002, 238.67216363030124)" fill="#fffa"/>
<text x="517.3465346534656" y="238.67216363030124" fill="#111" font-size="0.5em" text-anchor="start" textLength="17.5" transform="rotate(-60, 522.0000000000002, 238.67216363030124)" style="text-shadow: 0 0 1px #fff;">
1.04
</text>
<rect x="526.4784653465349" y="128.70365625896025" width="17.85" height="7.2" transform="rotate(-60, 531.3069306930696, 135.36365625896025)" fill="#fffa"/>
<text x="526.6534653465349" y="135.36365625896025" fill="#111" font-size="0.5em" text-anchor="start" textLength="17.5" transform="rotate(-60, 531.3069306930696, 135.36365625896025)" style="text-shadow: 0 0 1px #fff;">
1.46
</text>
<rect x="545.0923267326735" y="157.3958946325438" width="17.85" height="7.2" transform="rotate(-60, 549.9207920792082, 164.0558946325438)" fill="#fffa"/>
<text x="545.2673267326735" y="164.0558946325438" fill="#111" font-size="0.5em" text-anchor="start" textLength="17.5" transform="rotate(-60, 549.9207920792082, 164.0558946325438)" style="text-shadow: 0 0 1px #fff;">
1.35
</text>
<rect x="554.3992574257428" y="233.22191830620199" width="17.85" height="7.2" transform="rotate(-60, 559.2277227722775, 239.88191830620198)" fill="#fffa"/>
<text x="554.5742574257429" y="239.88191830620198" fill="#111" font-size="0.5em" text-anchor="start" textLength="17.5" transform="rotate(-60, 559.2277227722775, 239.88191830620198)" style="text-shadow: 0 0 1px #fff;">
1.03
</text>
<rect x="563.7061881188122" y="150.59769940662957" width="17.85" height="7.2" transform="rotate(-60, 568.5346534653468, 157.25769940662957)" fill="#fffa"/>
<text x="563.8811881188121" y="157.25769940662957" fill="#111" font-size="0.5em" text-anchor="start" textLength="17.5" transform="rotate(-60, 568.5346534653468, 157.25769940662957)" style="text-shadow: 0 0 1px #fff;">
1.37
</text>
<rect x="582.3200495049507" y="182.79710988571446" width="17.85" height="7.2" transform="rotate(-60, 587.1485148514854, 189.45710988571446)" fill="#fffa"/>
<text x="582.4950495049508" y="189.45710988571446" fill="#111" font-size="0.5em" text-anchor="start" textLength="17.5" transform="rotate(-60, 587.1485148514854, 189.45710988571446)" style="text-shadow: 0 0 1px #fff;">
1.24
</text>
<rect x="591.6269801980201" y="231.36849646199616" width="17.85" height="7.2" transform="rotate(-60, 596.4554455445548, 238.02849646199616)" fill="#fffa"/>
<text x="591.8019801980201" y="238.02849646199616" fill="#111" font-size="0.5em" text-anchor="start" textLength="17.5" transform="rotate(-60, 596.4554455445548, 238.02849646199616)" style="text-shadow: 0 0 1px #fff;">
1.04
</text>
<rect x="600.9339108910893" y="136.0774183988512" width="17.85" height="7.2" transform="rotate(-60, 605.762376237624, 142.7374183988512)" fill="#fffa"/>
<text x="601.1089108910894" y="142.7374183988512" fill="#111" font-size="0.5em" text-anchor="start" textLength="17.5" transform="rotate(-60, 605.762376237624, 142.7374183988512)" style="text-shadow: 0 0 1px #fff;">
1.43
</text>
<rect x="619.547772277228" y="183.0078647989205" width="17.85" height="7.2" transform="rotate(-60, 624.3762376237627, 189.6678647989205)" fill="#fffa"/>
<text x="619.722772277228" y="189.6678647989205" fill="#111" font-size="0.5em" text-anchor="start" textLength="17.5" transform="rotate(-60, 624.3762376237627, 189.6678647989205)" style="text-shadow: 0 0 1px #fff;">
1.24
</text>
<rect x="628.8547029702974" y="232.37591914499504" width="17.85" height="7.2" transform="rotate(-60, 633.683168316832, 239.03591914499503)" fill="#fffa"/>
<text x="629.0297029702974" y="239.03591914499503" fill="#111" font-size="0.5em" text-anchor="start" textLength="17.5" transform="rotate(-60, 633.683168316832, 239.03591914499503)" style="text-shadow: 0 0 1px #fff;">
1.04
</text>
<rect x="638.1616336633666" y="171.83958737480853" width="17.85" height="7.2" transform="rotate(-60, 642.9900990099013, 178.49958737480856)" fill="#fffa"/>
<text x="638.3366336633667" y="178.49958737480856" fill="#111" font-size="0.5em" text-anchor="start" textLength="17.5" transform="rotate(-60, 642.9900990099013, 178.49958737480856)" style="text-shadow: 0 0 1px #fff;">
1.29
</text>
<rect x="656.7754950495053" y="182.8142459227915" width="17.85" height="7.2" transform="rotate(-60, 661.60396039604, 189.4742459227915)" fill="#fffa"/>
<text x="656.9504950495053" y="189.4742459227915" fill="#111" font-size="0.5em" text-anchor="start" textLength="17.5" transform="rotate(-60, 661.60396039604, 189.4742459227915)" style="text-shadow: 0 0 1px #fff;">
1.24
</text>
<rect x="666.0824257425746" y="232.4393524960683" width="17.85" height="7.2" transform="rotate(-60, 670.9108910891093, 239.09935249606832)" fill="#fffa"/>
<text x="666.2574257425746" y="239.09935249606832" fill="#111" font-size="0.5em" text-anchor="start" textLength="17.5" transform="rotate(-60, 670.9108910891093, 239.09935249606832)" style="text-shadow: 0 0 1px #fff;">
1.04
</text>
<rect x="675.3893564356439" y="160.38683047001936" width="17.85" height="7.2" transform="rotate(-60, 680.2178217821786, 167.04683047001936)" fill="#fffa"/>
<text x="675.564356435644" y="167.04683047001936" fill="#111" font-size="0.5em" text-anchor="start" textLength="17.5" transform="rotate(-60, 680.2178217821786, 167.04683047001936)" style="text-shadow: 0 0 1px #fff;">
1.33
</text>
<rect x="694.0032178217825" y="180.60710344966157" width="17.85" height="7.2" transform="rotate(-60, 698.8316831683172, 187.2671034496616)" fill="#fffa"/>
<text x="694.1782178217826" y="187.2671034496616" fill="#111" font-size="0.5em" text-anchor="start" textLength="17.5" transform="rotate(-60, 698.8316831683172, 187.2671034496616)" style="text-shadow: 0 0 1px #fff;">
1.25
</text>
<rect x="703.3101485148519" y="231.58497476453417" width="17.85" height="7.2" transform="rotate(-60, 708.1386138613866, 238.24497476453416)" fill="#fffa"/>
<text x="703.4851485148519" y="238.24497476453416" fill="#111" font-size="0.5em" text-anchor="start" textLength="17.5" transform="rotate(-60, 708.1386138613866, 238.24497476453416)" style="text-shadow: 0 0 1px #fff;">
1.04
</text>
<rect x="712.6170792079212" y="136.32185769847334" width="17.85" height="7.2" transform="rotate(-60, 717.4455445544559, 142.98185769847333)" fill="#fffa"/>
<text x="712.7920792079212" y="142.98185769847333" fill="#111" font-size="0.5em" text-anchor="start" textLength="17.5" transform="rotate(-60, 717.4455445544559, 142.98185769847333)" style="text-shadow: 0 0 1px #fff;">
1.43
</text>
<rect x="731.2309405940598" y="181.74627375837375" width="17.85" height="7.2" transform="rotate(-60, 736.0594059405945, 188.40627375837374)" fill="#fffa"/>
<text x="731.4059405940599" y="188.40627375837374" fill="#111" font-size="0.5em" text-anchor="start" textLength="17.5" transform="rotate(-60, 736.0594059405945, 188.40627375837374)" style="text-shadow: 0 0 1px #fff;">
1.25
</text>
<rect x="740.5378712871291" y="232.36815435177382" width="17.85" height="7.2" transform="rotate(-60, 745.3663366336638, 239.02815435177385)" fill="#fffa"/>
<text x="740.7128712871291" y="239.02815435177385" fill="#111" font-size="0.5em" text-anchor="start" textLength="17.5" transform="rotate(-60, 745.3663366336638, 239.02815435177385)" style="text-shadow: 0 0 1px #fff;">
1.04
</text>
<rect x="749.8448019801984" y="169.2154003625392" width="17.85" height="7.2" transform="rotate(-60, 754.6732673267331, 175.8754003625392)" fill="#fffa"/>
<text x="750.0198019801985" y="175.8754003625392" fill="#111" font-size="0.5em" text-anchor="start" textLength="17.5" transform="rotate(-60, 754.6732673267331, 175.8754003625392)" style="text-shadow: 0 0 1px #fff;">
1.30
</text>
<rect x="768.4586633663371" y="181.74627375837375" width="17.85" height="7.2" transform="rotate(-60, 773.2871287128718, 188.40627375837374)" fill="#fffa"/>
<text x="768.6336633663371" y="188.40627375837374" fill="#111" font-size="0.5em" text-anchor="start" textLength="17.5" transform="rotate(-60, 773.2871287128718, 188.40627375837374)" style="text-shadow: 0 0 1px #fff;">
1.25
</text>
<rect x="777.7655940594063" y="232.2969562074793" width="17.85" height="7.2" transform="rotate(-60, 782.594059405941, 238.9569562074793)" fill="#fffa"/>
<text x="777.9405940594064" y="238.9569562074793" fill="#111" font-size="0.5em" text-anchor="start" textLength="17.5" transform="rotate(-60, 782.594059405941, 238.9569562074793)" style="text-shadow: 0 0 1px #fff;">
1.04
</text>
<rect x="787.0725247524757" y="167.79143747664892" width="17.85" height="7.2" transform="rotate(-60, 791.9009900990104, 174.45143747664892)" fill="#fffa"/>
<text x="787.2475247524757" y="174.45143747664892" fill="#111" font-size="0.5em" text-anchor="start" textLength="17.5" transform="rotate(-60, 791.9009900990104, 174.45143747664892)" style="text-shadow: 0 0 1px #fff;">
1.30
</text>
<rect x="805.6863861386144" y="222.42345770782492" width="17.85" height="7.2" transform="rotate(-60, 810.514851485149, 229.08345770782492)" fill="#fffa"/>
<text x="805.8613861386143" y="229.08345770782492" fill="#111" font-size="0.5em" text-anchor="start" textLength="17.5" transform="rotate(-60, 810.514851485149, 229.08345770782492)" style="text-shadow: 0 0 1px #fff;">
1.08
</text>
<rect x="814.9933168316836" y="237.7812317319335" width="17.85" height="7.2" transform="rotate(-60, 819.8217821782183, 244.4412317319335)" fill="#fffa"/>
<text x="815.1683168316837" y="244.4412317319335" fill="#111" font-size="0.5em" text-anchor="start" textLength="17.5" transform="rotate(-60, 819.8217821782183, 244.4412317319335)" style="text-shadow: 0 0 1px #fff;">
1.01
</text>
<rect x="824.300247524753" y="220.01111684245177" width="17.85" height="7.2" transform="rotate(-60, 829.1287128712877, 226.67111684245177)" fill="#fffa"/>
<text x="824.475247524753" y="226.67111684245177" fill="#111" font-size="0.5em" text-anchor="start" textLength="17.5" transform="rotate(-60, 829.1287128712877, 226.67111684245177)" style="text-shadow: 0 0 1px #fff;">
1.09
</text>
<rect x="842.9141089108916" y="182.885444067086" width="17.85" height="7.2" transform="rotate(-60, 847.7425742574263, 189.545444067086)" fill="#fffa"/>
<text x="843.0891089108916" y="189.545444067086" fill="#111" font-size="0.5em" text-anchor="start" textLength="17.5" transform="rotate(-60, 847.7425742574263, 189.545444067086)" style="text-shadow: 0 0 1px #fff;">
1.24
</text>
<rect x="852.2210396039609" y="232.51055064036282" width="17.85" height="7.2" transform="rotate(-60, 857.0495049504956, 239.17055064036282)" fill="#fffa"/>
<text x="852.396039603961" y="239.17055064036282" fill="#111" font-size="0.5em" text-anchor="start" textLength="17.5" transform="rotate(-60, 857.0495049504956, 239.17055064036282)" style="text-shadow: 0 0 1px #fff;">
1.04
</text>
<rect x="861.5279702970303" y="153.6230067620405" width="17.85" height="7.2" transform="rotate(-60, 866.3564356435649, 160.2830067620405)" fill="#fffa"/>
<text x="861.7029702970302" y="160.2830067620405" fill="#111" font-size="0.5em" text-anchor="start" textLength="17.5" transform="rotate(-60, 866.3564356435649, 160.2830067620405)" style="text-shadow: 0 0 1px #fff;">
1.36
</text>
<rect x="880.1418316831688" y="181.74627375837375" width="17.85" height="7.2" transform="rotate(-60, 884.9702970297035, 188.40627375837374)" fill="#fffa"/>
<text x="880.3168316831689" y="188.40627375837374" fill="#111" font-size="0.5em" text-anchor="start" textLength="17.5" transform="rotate(-60, 884.9702970297035, 188.40627375837374)" style="text-shadow: 0 0 1px #fff;">
1.25
</text>
<rect x="889.4487623762382" y="232.36815435177382" width="17.85" height="7.2" transform="rotate(-60, 894.2772277227729, 239.02815435177385)" fill="#fffa"/>
<text x="889.6237623762382" y="239.02815435177385" fill="#111" font-size="0.5em" text-anchor="start" textLength="17.5" transform="rotate(-60, 894.2772277227729, 239.02815435177385)" style="text-shadow: 0 0 1px #fff;">
1.04
</text>
<rect x="898.7556930693074" y="170.49696695984048" width="17.85" height="7.2" transform="rotate(-60, 903.5841584158421, 177.15696695984047)" fill="#fffa"/>
<text x="898.9306930693075" y="177.15696695984047" fill="#111" font-size="0.5em" text-anchor="start" textLength="17.5" transform="rotate(-60, 903.5841584158421, 177.15696695984047)" style="text-shadow: 0 0 1px #fff;">
1.29
</text>
<rect x="917.3695544554461" y="112.21903936211449" width="17.85" height="7.2" transform="rotate(-60, 922.1980198019808, 118.8790393621145)" fill="#fffa"/>
<text x="917.5445544554461" y="118.8790393621145" fill="#111" font-size="0.5em" text-anchor="start" textLength="17.5" transform="rotate(-60, 922.1980198019808, 118.8790393621145)" style="text-shadow: 0 0 1px #fff;">
1.53
</text>
<rect x="926.6764851485154" y="232.15190592290395" width="17.85" height="7.2" transform="rotate(-60, 931.5049504950501, 238.81190592290395)" fill="#fffa"/>
<text x="926.8514851485155" y="238.81190592290395" fill="#111" font-size="0.5em" text-anchor="start" textLength="17.5" transform="rotate(-60, 931.5049504950501, 238.81190592290395)" style="text-shadow: 0 0 1px #fff;">
1.04
</text>
<rect x="935.9834158415847" y="105.02591613014317" width="17.85" height="7.2" transform="rotate(-60, 940.8118811881194, 111.68591613014317)" fill="#fffa"/>
<text x="936.1584158415848" y="111.68591613014317" fill="#111" font-size="0.5em" text-anchor="start" textLength="17.5" transform="rotate(-60, 940.8118811881194, 111.68591613014317)" style="text-shadow: 0 0 1px #fff;">
1.56
</text>
<rect x="954.5972772277233" y="189.97923219302237" width="17.85" height="7.2" transform="rotate(-60, 959.425742574258, 196.63923219302237)" fill="#fffa"/>
<text x="954.7722772277234" y="196.63923219302237" fill="#111" font-size="0.5em" text-anchor="start" textLength="17.5" transform="rotate(-60, 959.425742574258, 196.63923219302237)" style="text-shadow: 0 0 1px #fff;">
1.21
</text>
<rect x="963.9042079207927" y="230.10775229362238" width="17.85" height="7.2" transform="rotate(-60, 968.7326732673274, 236.76775229362238)" fill="#fffa"/>
<text x="964.0792079207927" y="236.76775229362238" fill="#111" font-size="0.5em" text-anchor="start" textLength="17.5" transform="rotate(-60, 968.7326732673274, 236.76775229362238)" style="text-shadow: 0 0 1px #fff;">
1.05
</text>
<rect x="973.211138613862" y="159.81163121454784" width="17.85" height="7.2" transform="rotate(-60, 978.0396039603967, 166.47163121454784)" fill="#fffa"/>
<text x="973.386138613862" y="166.47163121454784" fill="#111" font-size="0.5em" text-anchor="start" textLength="17.5" transform="rotate(-60, 978.0396039603967, 166.47163121454784)" style="text-shadow: 0 0 1px #fff;">
1.34
</text>
</svg>