<svg viewBox="0 0 1000 600" xmlns="http://www.w3.org/2000/svg" xmlns:xlink="http://www.w3.org/1999/xlink" width="100%" height="100%">

<rect x="50.0" y="30.0" width="940.0" height="467.99999999999994" stroke="#000" fill="#fff"/>
<line x1="42.0" y1="497.9999999999999" x2="50.0" y2="497.9999999999999" stroke="#000"/>
<text x="26.000000000000004" y="497.9999999999999" text-anchor="end" font-weight="bold" font-size="small" fill="#111">
0.0
</text>
<line x1="42.0" y1="450.32126427789075" x2="50.0" y2="450.32126427789075" stroke="#000"/>
<text x="26.000000000000004" y="450.32126427789075" text-anchor="end" font-weight="bold" font-size="small" fill="#111">
0.2
</text>
<line x1="42.0" y1="402.64252855578155" x2="50.0" y2="402.64252855578155" stroke="#000"/>
<text x="26.000000000000004" y="402.64252855578155" text-anchor="end" font-weight="bold" font-size="small" fill="#111">
0.4
</text>
<line x1="42.0" y1="354.9637928336723" x2="50.0" y2="354.9637928336723" stroke="#000"/>
<text x="26.000000000000004" y="354.9637928336723" text-anchor="end" font-weight="bold" font-size="small" fill="#111">
0.6
</text>
<line x1="42.0" y1="307.2850571115631" x2="50.0" y2="307.2850571115631" stroke="#000"/>
<text x="26.000000000000004" y="307.2850571115631" text-anchor="end" font-weight="bold" font-size="small" fill="#111">
0.8
</text>
<line x1="42.0" y1="259.60632138945385" x2="50.0" y2="259.60632138945385" stroke="#000"/>
<text x="26.000000000000004" y="259.60632138945385" text-anchor="end" font-weight="bold" font-size="small" fill="#111">
1.0
</text>
<line x1="42.0" y1="211.92758566734472" x2="50.0" y2="211.92758566734472" stroke="#000"/>
<text x="26.000000000000004" y="211.92758566734472" text-anchor="end" font-weight="bold" font-size="small" fill="#111">
1.2
</text>
<line x1="42.0" y1="164.24884994523552" x2="50.0" y2="164.24884994523552" stroke="#000"/>
<text x="26.000000000000004" y="164.24884994523552" text-anchor="end" font-weight="bold" font-size="small" fill="#111">
1.4
</text>
<line x1="42.0" y1="116.5701142231263" x2="50.0" y2="116.5701142231263" stroke="#000"/>
<text x="26.000000000000004" y="116.5701142231263" text-anchor="end" font-weight="bold" font-size="small" fill="#111">
1.6
</text>
<line x1="142.75" y1="54.60000000000001" x2="262.75" y2="54.60000000000001" stroke="#648FFF" stroke-width="2"/>
<text x="202.75" y="49.500000000000014" font-size="small" text-anchor="middle" font-weight="bold" fill="#000">
CRuby 3.4.7
</text>
<rect x="354.25" y="35.400000000000006" width="120.0" height="19.2" fill="#785EF0" stroke="none"/>
<text x="414.25" y="49.500000000000014" font-size="small" text-anchor="middle" font-weight="bold" fill="#fff" style="text-shadow: 0 0 1px #000;">
CRuby 4.1.0dev
</text>
<rect x="565.75" y="35.400000000000006" width="120.0" height="19.2" fill="#FFB000" stroke="none"/>
<text x="625.7499999999999" y="49.500000000000014" font-size="small" text-anchor="middle" font-weight="bold" fill="#fff" style="text-shadow: 0 0 1px #000;">
YJIT 3.4.7
</text>
<rect x="777.25" y="35.400000000000006" width="120.0" height="19.2" fill="#DC267F" stroke="none"/>
<text x="837.2499999999999" y="49.500000000000014" font-size="small" text-anchor="middle" font-weight="bold" fill="#fff" style="text-shadow: 0 0 1px #000;">
YJIT 4.1.0dev
</text>
<rect x="59.30693069306931" y="379.15663304680584" width="9.306930693069306" height="118.84336695319406" fill="#785EF0" data-tooltip="0.50x baseline (CRuby 4.1.0dev)"/>
<rect x="68.61386138613862" y="225.75814965061682" width="9.306930693069306" height="272.2418503493831" fill="#FFB000" data-tooltip="1.14x baseline (YJIT 3.4.7)"/>
<rect x="77.92079207920791" y="275.29538337811465" width="9.306930693069306" height="222.7046166218853" fill="#DC267F" data-tooltip="0.93x baseline (YJIT 4.1.0dev)"/>
<line x1="73.26732673267327" y1="498.0" x2="73.26732673267327" y2="502.79999999999995" stroke="#000"/>
<text x="73.26732673267327" y="512.4" fill="#111" font-size="small" text-anchor="end" transform="rotate(-60, 73.26732673267327, 512.4)">
30k_ifelse
</text>
<rect x="96.53465346534652" y="289.3358806461713" width="9.306930693069306" height="208.66411935382865" fill="#785EF0" data-tooltip="0.88x baseline (CRuby 4.1.0dev)"/>
<rect x="105.84158415841583" y="240.8770585445328" width="9.306930693069306" height="257.1229414554672" fill="#FFB000" data-tooltip="1.08x baseline (YJIT 3.4.7)"/>
<rect x="115.14851485148513" y="245.04710555031176" width="9.306930693069306" height="252.9528944496882" fill="#DC267F" data-tooltip="1.06x baseline (YJIT 4.1.0dev)"/>
<line x1="110.49504950495047" y1="498.0" x2="110.49504950495047" y2="502.79999999999995" stroke="#000"/>
<text x="110.49504950495047" y="512.4" fill="#111" font-size="small" text-anchor="end" transform="rotate(-60, 110.49504950495047, 512.4)">
30k_methods
</text>
<rect x="133.76237623762376" y="199.25917787183457" width="9.306930693069306" height="298.7408221281654" fill="#785EF0" data-tooltip="1.25x baseline (CRuby 4.1.0dev)"/>
<rect x="143.06930693069305" y="250.3221454636663" width="9.306930693069306" height="247.67785453633365" fill="#FFB000" data-tooltip="1.04x baseline (YJIT 3.4.7)"/>
<rect x="152.37623762376236" y="170.8076710024854" width="9.306930693069306" height="327.1923289975145" fill="#DC267F" data-tooltip="1.37x baseline (YJIT 4.1.0dev)"/>
<line x1="147.72277227722773" y1="498.0" x2="147.72277227722773" y2="502.79999999999995" stroke="#000"/>
<text x="147.72277227722773" y="512.4" fill="#111" font-size="small" text-anchor="end" transform="rotate(-60, 147.72277227722773, 512.4)">
attr_accessor
</text>
<rect x="170.990099009901" y="196.76865366898636" width="9.306930693069306" height="301.2313463310136" fill="#785EF0" data-tooltip="1.26x baseline (CRuby 4.1.0dev)"/>
<rect x="180.29702970297032" y="250.31922866318692" width="9.306930693069306" height="247.68077133681302" fill="#FFB000" data-tooltip="1.04x baseline (YJIT 3.4.7)"/>
<rect x="189.60396039603964" y="176.47186230754812" width="9.306930693069306" height="321.5281376924519" fill="#DC267F" data-tooltip="1.35x baseline (YJIT 4.1.0dev)"/>
<line x1="184.950495049505" y1="498.0" x2="184.950495049505" y2="502.79999999999995" stroke="#000"/>
<text x="184.950495049505" y="512.4" fill="#111" font-size="small" text-anchor="end" transform="rotate(-60, 184.950495049505, 512.4)">
cfunc_itself
</text>
<rect x="208.21782178217828" y="199.2402186687187" width="9.306930693069306" height="298.75978133128126" fill="#785EF0" data-tooltip="1.25x baseline (CRuby 4.1.0dev)"/>
<rect x="217.52475247524757" y="250.39412457226973" width="9.306930693069306" height="247.6058754277302" fill="#FFB000" data-tooltip="1.04x baseline (YJIT 3.4.7)"/>
<rect x="226.83168316831689" y="180.44134548893638" width="9.306930693069306" height="317.55865451106354" fill="#DC267F" data-tooltip="1.33x baseline (YJIT 4.1.0dev)"/>
<line x1="222.17821782178225" y1="498.0" x2="222.17821782178225" y2="502.79999999999995" stroke="#000"/>
<text x="222.17821782178225" y="512.4" fill="#111" font-size="small" text-anchor="end" transform="rotate(-60, 222.17821782178225, 512.4)">
fib
</text>
<rect x="245.44554455445552" y="198.06121968786195" width="9.306930693069306" height="299.938780312138" fill="#785EF0" data-tooltip="1.26x baseline (CRuby 4.1.0dev)"/>
<rect x="254.7524752475248" y="250.17240069066975" width="9.306930693069306" height="247.8275993093302" fill="#FFB000" data-tooltip="1.04x baseline (YJIT 3.4.7)"/>
<rect x="264.0594059405941" y="164.36864576363277" width="9.306930693069306" height="333.6313542363672" fill="#DC267F" data-tooltip="1.40x baseline (YJIT 4.1.0dev)"/>
<line x1="259.4059405940595" y1="498.0" x2="259.4059405940595" y2="502.79999999999995" stroke="#000"/>
<text x="259.4059405940595" y="512.4" fill="#111" font-size="small" text-anchor="end" transform="rotate(-60, 259.4059405940595, 512.4)">
getivar
</text>
<rect x="282.67326732673274" y="199.18430548533624" width="9.306930693069306" height="298.81569451466373" fill="#785EF0" data-tooltip="1.25x baseline (CRuby 4.1.0dev)"/>
<rect x="291.98019801980206" y="250.09752830417142" width="9.306930693069306" height="247.90247169582852" fill="#FFB000" data-tooltip="1.04x baseline (YJIT 3.4.7)"/>
<rect x="301.2871287128714" y="187.27959603210863" width="9.306930693069306" height="310.72040396789134" fill="#DC267F" data-tooltip="1.30x baseline (YJIT 4.1.0dev)"/>
<line x1="296.6336633663368" y1="498.0" x2="296.6336633663368" y2="502.79999999999995" stroke="#000"/>
<text x="296.6336633663368" y="512.4" fill="#111" font-size="small" text-anchor="end" transform="rotate(-60, 296.6336633663368, 512.4)">
getivar-module
</text>
<rect x="319.90099009901" y="199.16532275963596" width="9.306930693069306" height="298.834677240364" fill="#785EF0" data-tooltip="1.25x baseline (CRuby 4.1.0dev)"/>
<rect x="329.20792079207934" y="250.16943684502138" width="9.306930693069306" height="247.83056315497856" fill="#FFB000" data-tooltip="1.04x baseline (YJIT 3.4.7)"/>
<rect x="338.51485148514865" y="177.89488458012124" width="9.306930693069306" height="320.10511541987876" fill="#DC267F" data-tooltip="1.34x baseline (YJIT 4.1.0dev)"/>
<line x1="333.861386138614" y1="498.0" x2="333.861386138614" y2="502.79999999999995" stroke="#000"/>
<text x="333.861386138614" y="512.4" fill="#111" font-size="small" text-anchor="end" transform="rotate(-60, 333.861386138614, 512.4)">
keyword_args
</text>
<rect x="357.1287128712873" y="205.64096385542163" width="9.306930693069306" height="292.3590361445783" fill="#785EF0" data-tooltip="1.23x baseline (CRuby 4.1.0dev)"/>
<rect x="366.4356435643566" y="214.35509309967145" width="9.306930693069306" height="283.6449069003285" fill="#FFB000" data-tooltip="1.19x baseline (YJIT 3.4.7)"/>
<rect x="375.74257425742593" y="100.19999999999999" width="9.306930693069306" height="397.79999999999995" fill="#DC267F" data-tooltip="1.67x baseline (YJIT 4.1.0dev)"/>
<line x1="371.0891089108913" y1="498.0" x2="371.0891089108913" y2="502.79999999999995" stroke="#000"/>
<text x="371.0891089108913" y="512.4" fill="#111" font-size="small" text-anchor="end" transform="rotate(-60, 371.0891089108913, 512.4)">
loops-times
</text>
<rect x="394.35643564356457" y="114.23336185974294" width="9.306930693069306" height="383.766638140257" fill="#785EF0" data-tooltip="1.61x baseline (CRuby 4.1.0dev)"/>
<rect x="403.6633663366338" y="250.46902048135254" width="9.306930693069306" height="247.5309795186474" fill="#FFB000" data-tooltip="1.04x baseline (YJIT 3.4.7)"/>
<rect x="412.97029702970315" y="106.81866686054596" width="9.306930693069306" height="391.18133313945395" fill="#DC267F" data-tooltip="1.64x baseline (YJIT 4.1.0dev)"/>
<line x1="408.3168316831686" y1="498.0" x2="408.3168316831686" y2="502.79999999999995" stroke="#000"/>
<text x="408.3168316831686" y="512.4" fill="#111" font-size="small" text-anchor="end" transform="rotate(-60, 408.3168316831686, 512.4)">
object-new
</text>
<rect x="431.5841584158418" y="165.50736026314306" width="9.306930693069306" height="332.49263973685686" fill="#785EF0" data-tooltip="1.39x baseline (CRuby 4.1.0dev)"/>
<rect x="440.8910891089111" y="250.92693988664274" width="9.306930693069306" height="247.0730601133572" fill="#FFB000" data-tooltip="1.04x baseline (YJIT 3.4.7)"/>
<rect x="450.1980198019804" y="156.97263511871213" width="9.306930693069306" height="341.0273648812878" fill="#DC267F" data-tooltip="1.43x baseline (YJIT 4.1.0dev)"/>
<line x1="445.54455445544585" y1="498.0" x2="445.54455445544585" y2="502.79999999999995" stroke="#000"/>
<text x="445.54455445544585" y="512.4" fill="#111" font-size="small" text-anchor="end" transform="rotate(-60, 445.54455445544585, 512.4)">
object-new-initialize
</text>
<rect x="468.81188118811906" y="114.27901919627865" width="9.306930693069306" height="383.72098080372126" fill="#785EF0" data-tooltip="1.61x baseline (CRuby 4.1.0dev)"/>
<rect x="478.1188118811884" y="250.3970178501646" width="9.306930693069306" height="247.60298214983536" fill="#FFB000" data-tooltip="1.04x baseline (YJIT 3.4.7)"/>
<rect x="487.4257425742577" y="105.29433281648424" width="9.306930693069306" height="392.70566718351574" fill="#DC267F" data-tooltip="1.65x baseline (YJIT 4.1.0dev)"/>
<line x1="482.77227722772307" y1="498.0" x2="482.77227722772307" y2="502.79999999999995" stroke="#000"/>
<text x="482.77227722772307" y="512.4" fill="#111" font-size="small" text-anchor="end" transform="rotate(-60, 482.77227722772307, 512.4)">
object-new-no-escape
</text>
<rect x="506.0396039603963" y="199.25917787183457" width="9.306930693069306" height="298.7408221281654" fill="#785EF0" data-tooltip="1.25x baseline (CRuby 4.1.0dev)"/>
<rect x="515.3465346534656" y="250.17240069066975" width="9.306930693069306" height="247.8275993093302" fill="#FFB000" data-tooltip="1.04x baseline (YJIT 3.4.7)"/>
<rect x="524.6534653465349" y="149.9182751694633" width="9.306930693069306" height="348.08172483053664" fill="#DC267F" data-tooltip="1.46x baseline (YJIT 4.1.0dev)"/>
<line x1="520.0000000000002" y1="498.0" x2="520.0000000000002" y2="502.79999999999995" stroke="#000"/>
<text x="520.0000000000002" y="512.4" fill="#111" font-size="small" text-anchor="end" transform="rotate(-60, 520.0000000000002, 512.4)">
respond_to
</text>
<rect x="543.2673267326735" y="161.93872771558054" width="9.306930693069306" height="336.06127228441943" fill="#785EF0" data-tooltip="1.41x baseline (CRuby 4.1.0dev)"/>
<rect x="552.5742574257429" y="251.19966357147877" width="9.306930693069306" height="246.80033642852118" fill="#FFB000" data-tooltip="1.04x baseline (YJIT 3.4.7)"/>
<rect x="561.8811881188121" y="153.66876352066194" width="9.306930693069306" height="344.33123647933803" fill="#DC267F" data-tooltip="1.44x baseline (YJIT 4.1.0dev)"/>
<line x1="557.2277227722775" y1="498.0" x2="557.2277227722775" y2="502.79999999999995" stroke="#000"/>
<text x="557.2277227722775" y="512.4" fill="#111" font-size="small" text-anchor="end" transform="rotate(-60, 557.2277227722775, 512.4)">
ruby-xor
</text>
<rect x="580.4950495049508" y="199.16532275963596" width="9.306930693069306" height="298.834677240364" fill="#785EF0" data-tooltip="1.25x baseline (CRuby 4.1.0dev)"/>
<rect x="589.8019801980201" y="249.42047775419334" width="9.306930693069306" height="248.5795222458066" fill="#FFB000" data-tooltip="1.04x baseline (YJIT 3.4.7)"/>
<rect x="599.1089108910894" y="147.7118332197537" width="9.306930693069306" height="350.28816678024623" fill="#DC267F" data-tooltip="1.47x baseline (YJIT 4.1.0dev)"/>
<line x1="594.4554455445548" y1="498.0" x2="594.4554455445548" y2="502.79999999999995" stroke="#000"/>
<text x="594.4554455445548" y="512.4" fill="#111" font-size="small" text-anchor="end" transform="rotate(-60, 594.4554455445548, 512.4)">
send_bmethod
</text>
<rect x="617.722772277228" y="199.31598409416048" width="9.306930693069306" height="298.68401590583943" fill="#785EF0" data-tooltip="1.25x baseline (CRuby 4.1.0dev)"/>
<rect x="627.0297029702974" y="250.18128106785719" width="9.306930693069306" height="247.81871893214276" fill="#FFB000" data-tooltip="1.04x baseline (YJIT 3.4.7)"/>
<rect x="636.3366336633667" y="186.37525412879356" width="9.306930693069306" height="311.62474587120636" fill="#DC267F" data-tooltip="1.31x baseline (YJIT 4.1.0dev)"/>
<line x1="631.683168316832" y1="498.0" x2="631.683168316832" y2="502.79999999999995" stroke="#000"/>
<text x="631.683168316832" y="512.4" fill="#111" font-size="small" text-anchor="end" transform="rotate(-60, 631.683168316832, 512.4)">
send_cfunc_block
</text>
<rect x="654.9504950495053" y="199.37188595898004" width="9.306930693069306" height="298.6281140410199" fill="#785EF0" data-tooltip="1.25x baseline (CRuby 4.1.0dev)"/>
<rect x="664.2574257425746" y="250.40279895722" width="9.306930693069306" height="247.59720104277994" fill="#FFB000" data-tooltip="1.04x baseline (YJIT 3.4.7)"/>
<rect x="673.564356435644" y="173.25782637483678" width="9.306930693069306" height="324.7421736251631" fill="#DC267F" data-tooltip="1.36x baseline (YJIT 4.1.0dev)"/>
<line x1="668.9108910891093" y1="498.0" x2="668.9108910891093" y2="502.79999999999995" stroke="#000"/>
<text x="668.9108910891093" y="512.4" fill="#111" font-size="small" text-anchor="end" transform="rotate(-60, 668.9108910891093, 512.4)">
send_rubyfunc_block
</text>
<rect x="692.1782178217826" y="195.4954232145788" width="9.306930693069306" height="302.5045767854212" fill="#785EF0" data-tooltip="1.27x baseline (CRuby 4.1.0dev)"/>
<rect x="701.4851485148519" y="249.27068593602775" width="9.306930693069306" height="248.7293140639722" fill="#FFB000" data-tooltip="1.04x baseline (YJIT 3.4.7)"/>
<rect x="710.7920792079212" y="149.05995958324405" width="9.306930693069306" height="348.9400404167559" fill="#DC267F" data-tooltip="1.46x baseline (YJIT 4.1.0dev)"/>
<line x1="706.1386138613865" y1="498.0" x2="706.1386138613865" y2="502.79999999999995" stroke="#000"/>
<text x="706.1386138613865" y="512.4" fill="#111" font-size="small" text-anchor="end" transform="rotate(-60, 706.1386138613865, 512.4)">
setivar
</text>
<rect x="729.4059405940599" y="198.06121968786195" width="9.306930693069306" height="299.938780312138" fill="#785EF0" data-tooltip="1.26x baseline (CRuby 4.1.0dev)"/>
<rect x="738.7128712871291" y="250.24727307716805" width="9.306930693069306" height="247.7527269228319" fill="#FFB000" data-tooltip="1.04x baseline (YJIT 3.4.7)"/>
<rect x="748.0198019801985" y="183.31135954769934" width="9.306930693069306" height="314.6886404523006" fill="#DC267F" data-tooltip="1.32x baseline (YJIT 4.1.0dev)"/>
<line x1="743.3663366336638" y1="498.0" x2="743.3663366336638" y2="502.79999999999995" stroke="#000"/>
<text x="743.3663366336638" y="512.4" fill="#111" font-size="small" text-anchor="end" transform="rotate(-60, 743.3663366336638, 512.4)">
setivar_object
</text>
<rect x="766.6336633663371" y="198.06121968786195" width="9.306930693069306" height="299.938780312138" fill="#785EF0" data-tooltip="1.26x baseline (CRuby 4.1.0dev)"/>
<rect x="775.9405940594064" y="250.3970178501646" width="9.306930693069306" height="247.60298214983536" fill="#FFB000" data-tooltip="1.04x baseline (YJIT 3.4.7)"/>
<rect x="785.2475247524757" y="181.9636565907302" width="9.306930693069306" height="316.0363434092697" fill="#DC267F" data-tooltip="1.33x baseline (YJIT 4.1.0dev)"/>
<line x1="780.594059405941" y1="498.0" x2="780.594059405941" y2="502.79999999999995" stroke="#000"/>
<text x="780.594059405941" y="512.4" fill="#111" font-size="small" text-anchor="end" transform="rotate(-60, 780.594059405941, 512.4)">
setivar_young
</text>
<rect x="803.8613861386143" y="240.67400005843015" width="9.306930693069306" height="257.3259999415698" fill="#785EF0" data-tooltip="1.08x baseline (CRuby 4.1.0dev)"/>
<rect x="813.1683168316837" y="256.7988668954998" width="9.306930693069306" height="241.20113310450012" fill="#FFB000" data-tooltip="1.01x baseline (YJIT 3.4.7)"/>
<rect x="822.475247524753" y="237.81855488936577" width="9.306930693069306" height="260.1814451106342" fill="#DC267F" data-tooltip="1.09x baseline (YJIT 4.1.0dev)"/>
<line x1="817.8217821782183" y1="498.0" x2="817.8217821782183" y2="502.79999999999995" stroke="#000"/>
<text x="817.8217821782183" y="512.4" fill="#111" font-size="small" text-anchor="end" transform="rotate(-60, 817.8217821782183, 512.4)">
str_concat
</text>
<rect x="841.0891089108916" y="199.25917787183457" width="9.306930693069306" height="298.7408221281654" fill="#785EF0" data-tooltip="1.25x baseline (CRuby 4.1.0dev)"/>
<rect x="850.396039603961" y="250.3221454636663" width="9.306930693069306" height="247.67785453633365" fill="#FFB000" data-tooltip="1.04x baseline (YJIT 3.4.7)"/>
<rect x="859.7029702970302" y="169.16047849952315" width="9.306930693069306" height="328.8395215004768" fill="#DC267F" data-tooltip="1.38x baseline (YJIT 4.1.0dev)"/>
<line x1="855.0495049504956" y1="498.0" x2="855.0495049504956" y2="502.79999999999995" stroke="#000"/>
<text x="855.0495049504956" y="512.4" fill="#111" font-size="small" text-anchor="end" transform="rotate(-60, 855.0495049504956, 512.4)">
structaref
</text>
<rect x="878.3168316831689" y="197.9669882143111" width="9.306930693069306" height="300.0330117856888" fill="#785EF0" data-tooltip="1.26x baseline (CRuby 4.1.0dev)"/>
<rect x="887.6237623762382" y="250.24433275410414" width="9.306930693069306" height="247.7556672458958" fill="#FFB000" data-tooltip="1.04x baseline (YJIT 3.4.7)"/>
<rect x="896.9306930693075" y="183.21249412499995" width="9.306930693069306" height="314.78750587499997" fill="#DC267F" data-tooltip="1.32x baseline (YJIT 4.1.0dev)"/>
<line x1="892.2772277227729" y1="498.0" x2="892.2772277227729" y2="502.79999999999995" stroke="#000"/>
<text x="892.2772277227729" y="512.4" fill="#111" font-size="small" text-anchor="end" transform="rotate(-60, 892.2772277227729, 512.4)">
structaset
</text>
<rect x="915.5445544554461" y="114.27901919627865" width="9.306930693069306" height="383.72098080372126" fill="#785EF0" data-tooltip="1.61x baseline (CRuby 4.1.0dev)"/>
<rect x="924.8514851485154" y="250.3221454636663" width="9.306930693069306" height="247.67785453633365" fill="#FFB000" data-tooltip="1.04x baseline (YJIT 3.4.7)"/>
<rect x="934.1584158415848" y="105.59382236247738" width="9.306930693069306" height="392.40617763752255" fill="#DC267F" data-tooltip="1.65x baseline (YJIT 4.1.0dev)"/>
<line x1="929.5049504950501" y1="498.0" x2="929.5049504950501" y2="502.79999999999995" stroke="#000"/>
<text x="929.5049504950501" y="512.4" fill="#111" font-size="small" text-anchor="end" transform="rotate(-60, 929.5049504950501, 512.4)">
throw
</text>
<rect x="952.7722772277234" y="204.66214588324627" width="9.306930693069306" height="293.3378541167537" fill="#785EF0" data-tooltip="1.23x baseline (CRuby 4.1.0dev)"/>
<rect x="962.0792079207927" y="247.78004685071795" width="9.306930693069306" height="250.219953149282" fill="#FFB000" data-tooltip="1.05x baseline (YJIT 3.4.7)"/>
<rect x="971.386138613862" y="172.31707476142225" width="9.306930693069306" height="325.6829252385777" fill="#DC267F" data-tooltip="1.37x baseline (YJIT 4.1.0dev)"/>
<line x1="966.7326732673274" y1="498.0" x2="966.7326732673274" y2="502.79999999999995" stroke="#000"/>
<text x="966.7326732673274" y="512.4" fill="#111" font-size="small" text-anchor="end" transform="rotate(-60, 966.7326732673274, 512.4)" font-style="italic">
geomean*
</text>
<line x1="50.0" y1="259.60632138945385" x2="990.0" y2="259.60632138945385" stroke="#648FFF" stroke-width="2"/>
<rect x="61.131930693069314" y="364.99663304680587" width="17.85" height="7.2" transform="rotate(-60, 65.96039603960396, 371.65663304680584)" fill="#fffa"/>
<text x="61.30693069306931" y="371.65663304680584" fill="#111" font-size="0.5em" text-anchor="start" textLength="17.5" transform="rotate(-60, 65.96039603960396, 371.65663304680584)" style="text-shadow: 0 0 1px #fff;">
0.50
</text>
<rect x="70.43886138613863" y="211.5981496506168" width="17.85" height="7.2" transform="rotate(-60, 75.26732673267328, 218.2581496506168)" fill="#fffa"/>
<text x="70.61386138613862" y="218.2581496506168" fill="#111" font-size="0.5em" text-anchor="start" textLength="17.5" transform="rotate(-60, 75.26732673267328, 218.2581496506168)" style="text-shadow: 0 0 1px #fff;">
1.14
</text>
<rect x="79.74579207920793" y="261.1353833781146" width="17.85" height="7.2" transform="rotate(-60, 84.57425742574257, 267.79538337811465)" fill="#fffa"/>
<text x="79.92079207920793" y="267.79538337811465" fill="#111" font-size="0.5em" text-anchor="start" textLength="17.5" transform="rotate(-60, 84.57425742574257, 267.79538337811465)" style="text-shadow: 0 0 1px #fff;">
0.93
</text>
<rect x="98.35965346534653" y="275.17588064617127" width="17.85" height="7.2" transform="rotate(-60, 103.18811881188118, 281.8358806461713)" fill="#fffa"/>
<text x="98.53465346534652" y="281.8358806461713" fill="#111" font-size="0.5em" text-anchor="start" textLength="17.5" transform="rotate(-60, 103.18811881188118, 281.8358806461713)" style="text-shadow: 0 0 1px #fff;">
0.88
</text>
<rect x="107.66658415841583" y="226.7170585445328" width="17.85" height="7.2" transform="rotate(-60, 112.49504950495049, 233.3770585445328)" fill="#fffa"/>
<text x="107.84158415841583" y="233.3770585445328" fill="#111" font-size="0.5em" text-anchor="start" textLength="17.5" transform="rotate(-60, 112.49504950495049, 233.3770585445328)" style="text-shadow: 0 0 1px #fff;">
1.08
</text>
<rect x="116.97351485148513" y="230.88710555031176" width="17.85" height="7.2" transform="rotate(-60, 121.80198019801979, 237.54710555031176)" fill="#fffa"/>
<text x="117.14851485148513" y="237.54710555031176" fill="#111" font-size="0.5em" text-anchor="start" textLength="17.5" transform="rotate(-60, 121.80198019801979, 237.54710555031176)" style="text-shadow: 0 0 1px #fff;">
1.06
</text>
<rect x="135.58737623762374" y="185.09917787183454" width="17.85" height="7.2" transform="rotate(-60, 140.41584158415841, 191.75917787183454)" fill="#fffa"/>
<text x="135.76237623762376" y="191.75917787183454" fill="#111" font-size="0.5em" text-anchor="start" textLength="17.5" transform="rotate(-60, 140.41584158415841, 191.75917787183454)" style="text-shadow: 0 0 1px #fff;">
1.25
</text>
<rect x="144.89430693069306" y="236.1621454636663" width="17.85" height="7.2" transform="rotate(-60, 149.7227722772277, 242.8221454636663)" fill="#fffa"/>
<text x="145.06930693069305" y="242.8221454636663" fill="#111" font-size="0.5em" text-anchor="start" textLength="17.5" transform="rotate(-60, 149.7227722772277, 242.8221454636663)" style="text-shadow: 0 0 1px #fff;">
1.04
</text>
<rect x="154.20123762376235" y="156.6476710024854" width="17.85" height="7.2" transform="rotate(-60, 159.02970297029702, 163.3076710024854)" fill="#fffa"/>
<text x="154.37623762376236" y="163.3076710024854" fill="#111" font-size="0.5em" text-anchor="start" textLength="17.5" transform="rotate(-60, 159.02970297029702, 163.3076710024854)" style="text-shadow: 0 0 1px #fff;">
1.37
</text>
<rect x="172.815099009901" y="182.60865366898636" width="17.85" height="7.2" transform="rotate(-60, 177.64356435643566, 189.26865366898636)" fill="#fffa"/>
<text x="172.990099009901" y="189.26865366898636" fill="#111" font-size="0.5em" text-anchor="start" textLength="17.5" transform="rotate(-60, 177.64356435643566, 189.26865366898636)" style="text-shadow: 0 0 1px #fff;">
1.26
</text>
<rect x="182.1220297029703" y="236.15922866318692" width="17.85" height="7.2" transform="rotate(-60, 186.95049504950498, 242.81922866318692)" fill="#fffa"/>
<text x="182.29702970297032" y="242.81922866318692" fill="#111" font-size="0.5em" text-anchor="start" textLength="17.5" transform="rotate(-60, 186.95049504950498, 242.81922866318692)" style="text-shadow: 0 0 1px #fff;">
1.04
</text>
<rect x="191.42896039603963" y="162.31186230754813" width="17.85" height="7.2" transform="rotate(-60, 196.2574257425743, 168.97186230754812)" fill="#fffa"/>
<text x="191.60396039603964" y="168.97186230754812" fill="#111" font-size="0.5em" text-anchor="start" textLength="17.5" transform="rotate(-60, 196.2574257425743, 168.97186230754812)" style="text-shadow: 0 0 1px #fff;">
1.35
</text>
<rect x="210.04282178217827" y="185.0802186687187" width="17.85" height="7.2" transform="rotate(-60, 214.87128712871294, 191.7402186687187)" fill="#fffa"/>
<text x="210.21782178217828" y="191.7402186687187" fill="#111" font-size="0.5em" text-anchor="start" textLength="17.5" transform="rotate(-60, 214.87128712871294, 191.7402186687187)" style="text-shadow: 0 0 1px #fff;">
1.25
</text>
<rect x="219.34975247524758" y="236.23412457226974" width="17.85" height="7.2" transform="rotate(-60, 224.17821782178223, 242.89412457226973)" fill="#fffa"/>
<text x="219.52475247524757" y="242.89412457226973" fill="#111" font-size="0.5em" text-anchor="start" textLength="17.5" transform="rotate(-60, 224.17821782178223, 242.89412457226973)" style="text-shadow: 0 0 1px #fff;">
1.04
</text>
<rect x="228.65668316831687" y="166.28134548893638" width="17.85" height="7.2" transform="rotate(-60, 233.48514851485155, 172.94134548893638)" fill="#fffa"/>
<text x="228.83168316831689" y="172.94134548893638" fill="#111" font-size="0.5em" text-anchor="start" textLength="17.5" transform="rotate(-60, 233.48514851485155, 172.94134548893638)" style="text-shadow: 0 0 1px #fff;">
1.33
</text>
<rect x="247.2705445544555" y="183.90121968786192" width="17.85" height="7.2" transform="rotate(-60, 252.09900990099015, 190.56121968786195)" fill="#fffa"/>
<text x="247.44554455445552" y="190.56121968786195" fill="#111" font-size="0.5em" text-anchor="start" textLength="17.5" transform="rotate(-60, 252.09900990099015, 190.56121968786195)" style="text-shadow: 0 0 1px #fff;">
1.26
</text>
<rect x="256.57747524752483" y="236.01240069066975" width="17.85" height="7.2" transform="rotate(-60, 261.4059405940595, 242.67240069066975)" fill="#fffa"/>
<text x="256.75247524752484" y="242.67240069066975" fill="#111" font-size="0.5em" text-anchor="start" textLength="17.5" transform="rotate(-60, 261.4059405940595, 242.67240069066975)" style="text-shadow: 0 0 1px #fff;">
1.04
</text>
<rect x="265.88440594059415" y="150.20864576363277" width="17.85" height="7.2" transform="rotate(-60, 270.7128712871288, 156.86864576363277)" fill="#fffa"/>
<text x="266.0594059405941" y="156.86864576363277" fill="#111" font-size="0.5em" text-anchor="start" textLength="17.5" transform="rotate(-60, 270.7128712871288, 156.86864576363277)" style="text-shadow: 0 0 1px #fff;">
1.40
</text>
<rect x="284.4982673267328" y="185.0243054853362" width="17.85" height="7.2" transform="rotate(-60, 289.32673267326743, 191.68430548533624)" fill="#fffa"/>
<text x="284.67326732673274" y="191.68430548533624" fill="#111" font-size="0.5em" text-anchor="start" textLength="17.5" transform="rotate(-60, 289.32673267326743, 191.68430548533624)" style="text-shadow: 0 0 1px #fff;">
1.25
</text>
<rect x="293.8051980198021" y="235.93752830417142" width="17.85" height="7.2" transform="rotate(-60, 298.63366336633675, 242.59752830417142)" fill="#fffa"/>
<text x="293.98019801980206" y="242.59752830417142" fill="#111" font-size="0.5em" text-anchor="start" textLength="17.5" transform="rotate(-60, 298.63366336633675, 242.59752830417142)" style="text-shadow: 0 0 1px #fff;">
1.04
</text>
<rect x="303.1121287128714" y="173.1195960321086" width="17.85" height="7.2" transform="rotate(-60, 307.94059405940607, 179.7795960321086)" fill="#fffa"/>
<text x="303.2871287128714" y="179.7795960321086" fill="#111" font-size="0.5em" text-anchor="start" textLength="17.5" transform="rotate(-60, 307.94059405940607, 179.7795960321086)" style="text-shadow: 0 0 1px #fff;">
1.30
</text>
<rect x="321.72599009901006" y="185.00532275963596" width="17.85" height="7.2" transform="rotate(-60, 326.5544554455447, 191.66532275963596)" fill="#fffa"/>
<text x="321.90099009901" y="191.66532275963596" fill="#111" font-size="0.5em" text-anchor="start" textLength="17.5" transform="rotate(-60, 326.5544554455447, 191.66532275963596)" style="text-shadow: 0 0 1px #fff;">
1.25
</text>
<rect x="331.0329207920794" y="236.00943684502138" width="17.85" height="7.2" transform="rotate(-60, 335.86138613861397, 242.66943684502138)" fill="#fffa"/>
<text x="331.20792079207934" y="242.66943684502138" fill="#111" font-size="0.5em" text-anchor="start" textLength="17.5" transform="rotate(-60, 335.86138613861397, 242.66943684502138)" style="text-shadow: 0 0 1px #fff;">
1.04
</text>
<rect x="340.33985148514864" y="163.73488458012122" width="17.85" height="7.2" transform="rotate(-60, 345.1683168316833, 170.39488458012124)" fill="#fffa"/>
<text x="340.51485148514865" y="170.39488458012124" fill="#111" font-size="0.5em" text-anchor="start" textLength="17.5" transform="rotate(-60, 345.1683168316833, 170.39488458012124)" style="text-shadow: 0 0 1px #fff;">
1.34
</text>
<rect x="358.9537128712873" y="191.48096385542163" width="17.85" height="7.2" transform="rotate(-60, 363.7821782178219, 198.14096385542163)" fill="#fffa"/>
<text x="359.1287128712873" y="198.14096385542163" fill="#111" font-size="0.5em" text-anchor="start" textLength="17.5" transform="rotate(-60, 363.7821782178219, 198.14096385542163)" style="text-shadow: 0 0 1px #fff;">
1.23
</text>
<rect x="368.2606435643566" y="200.19509309967145" width="17.85" height="7.2" transform="rotate(-60, 373.08910891089124, 206.85509309967145)" fill="#fffa"/>
<text x="368.4356435643566" y="206.85509309967145" fill="#111" font-size="0.5em" text-anchor="start" textLength="17.5" transform="rotate(-60, 373.08910891089124, 206.85509309967145)" style="text-shadow: 0 0 1px #fff;">
1.19
</text>
<rect x="377.5675742574259" y="86.03999999999998" width="17.85" height="7.2" transform="rotate(-60, 382.39603960396056, 92.69999999999999)" fill="#fffa"/>
<text x="377.74257425742593" y="92.69999999999999" fill="#111" font-size="0.5em" text-anchor="start" textLength="17.5" transform="rotate(-60, 382.39603960396056, 92.69999999999999)" style="text-shadow: 0 0 1px #fff;">
1.67
</text>
<rect x="396.18143564356455" y="100.07336185974295" width="17.85" height="7.2" transform="rotate(-60, 401.0099009900992, 106.73336185974294)" fill="#fffa"/>
<text x="396.35643564356457" y="106.73336185974294" fill="#111" font-size="0.5em" text-anchor="start" textLength="17.5" transform="rotate(-60, 401.0099009900992, 106.73336185974294)" style="text-shadow: 0 0 1px #fff;">
1.61
</text>
<rect x="405.4883663366339" y="236.30902048135252" width="17.85" height="7.2" transform="rotate(-60, 410.3168316831685, 242.96902048135252)" fill="#fffa"/>
<text x="405.6633663366339" y="242.96902048135252" fill="#111" font-size="0.5em" text-anchor="start" textLength="17.5" transform="rotate(-60, 410.3168316831685, 242.96902048135252)" style="text-shadow: 0 0 1px #fff;">
1.04
</text>
<rect x="414.7952970297032" y="92.65866686054596" width="17.85" height="7.2" transform="rotate(-60, 419.62376237623783, 99.31866686054596)" fill="#fffa"/>
<text x="414.97029702970315" y="99.31866686054596" fill="#111" font-size="0.5em" text-anchor="start" textLength="17.5" transform="rotate(-60, 419.62376237623783, 99.31866686054596)" style="text-shadow: 0 0 1px #fff;">
1.64
</text>
<rect x="433.40915841584183" y="151.34736026314306" width="17.85" height="7.2" transform="rotate(-60, 438.2376237623765, 158.00736026314306)" fill="#fffa"/>
<text x="433.5841584158418" y="158.00736026314306" fill="#111" font-size="0.5em" text-anchor="start" textLength="17.5" transform="rotate(-60, 438.2376237623765, 158.00736026314306)" style="text-shadow: 0 0 1px #fff;">
1.39
</text>
<rect x="442.71608910891115" y="236.76693988664272" width="17.85" height="7.2" transform="rotate(-60, 447.5445544554458, 243.4269398866427)" fill="#fffa"/>
<text x="442.8910891089111" y="243.4269398866427" fill="#111" font-size="0.5em" text-anchor="start" textLength="17.5" transform="rotate(-60, 447.5445544554458, 243.4269398866427)" style="text-shadow: 0 0 1px #fff;">
1.04
</text>
<rect x="452.02301980198047" y="142.81263511871214" width="17.85" height="7.2" transform="rotate(-60, 456.8514851485151, 149.47263511871213)" fill="#fffa"/>
<text x="452.1980198019804" y="149.47263511871213" fill="#111" font-size="0.5em" text-anchor="start" textLength="17.5" transform="rotate(-60, 456.8514851485151, 149.47263511871213)" style="text-shadow: 0 0 1px #fff;">
1.43
</text>
<rect x="470.6368811881191" y="100.11901919627864" width="17.85" height="7.2" transform="rotate(-60, 475.46534653465375, 106.77901919627864)" fill="#fffa"/>
<text x="470.81188118811906" y="106.77901919627864" fill="#111" font-size="0.5em" text-anchor="start" textLength="17.5" transform="rotate(-60, 475.46534653465375, 106.77901919627864)" style="text-shadow: 0 0 1px #fff;">
1.61
</text>
<rect x="479.9438118811884" y="236.2370178501646" width="17.85" height="7.2" transform="rotate(-60, 484.772277227723, 242.8970178501646)" fill="#fffa"/>
<text x="480.1188118811884" y="242.8970178501646" fill="#111" font-size="0.5em" text-anchor="start" textLength="17.5" transform="rotate(-60, 484.772277227723, 242.8970178501646)" style="text-shadow: 0 0 1px #fff;">
1.04
</text>
<rect x="489.2507425742577" y="91.13433281648423" width="17.85" height="7.2" transform="rotate(-60, 494.0792079207923, 97.79433281648424)" fill="#fffa"/>
<text x="489.4257425742577" y="97.79433281648424" fill="#111" font-size="0.5em" text-anchor="start" textLength="17.5" transform="rotate(-60, 494.0792079207923, 97.79433281648424)" style="text-shadow: 0 0 1px #fff;">
1.65
</text>
<rect x="507.8646039603962" y="185.09917787183454" width="17.85" height="7.2" transform="rotate(-60, 512.693069306931, 191.75917787183454)" fill="#fffa"/>
<text x="508.0396039603963" y="191.75917787183454" fill="#111" font-size="0.5em" text-anchor="start" textLength="17.5" transform="rotate(-60, 512.693069306931, 191.75917787183454)" style="text-shadow: 0 0 1px #fff;">
1.25
</text>
<rect x="517.1715346534655" y="236.01240069066975" width="17.85" height="7.2" transform="rotate(-60, 522.0000000000002, 242.67240069066975)" fill="#fffa"/>
<text x="517.3465346534656" y="242.67240069066975" fill="#111" font-size="0.5em" text-anchor="start" textLength="17.5" transform="rotate(-60, 522.0000000000002, 242.67240069066975)" style="text-shadow: 0 0 1px #fff;">
1.04
</text>
<rect x="526.4784653465349" y="135.7582751694633" width="17.85" height="7.2" transform="rotate(-60, 531.3069306930696, 142.4182751694633)" fill="#fffa"/>
<text x="526.6534653465349" y="142.4182751694633" fill="#111" font-size="0.5em" text-anchor="start" textLength="17.5" transform="rotate(-60, 531.3069306930696, 142.4182751694633)" style="text-shadow: 0 0 1px #fff;">
1.46
</text>
<rect x="545.0923267326735" y="147.77872771558052" width="17.85" height="7.2" transform="rotate(-60, 549.9207920792082, 154.4387277155805)" fill="#fffa"/>
<text x="545.2673267326735" y="154.4387277155805" fill="#111" font-size="0.5em" text-anchor="start" textLength="17.5" transform="rotate(-60, 549.9207920792082, 154.4387277155805)" style="text-shadow: 0 0 1px #fff;">
1.41
</text>
<rect x="554.3992574257428" y="237.03966357147877" width="17.85" height="7.2" transform="rotate(-60, 559.2277227722775, 243.69966357147877)" fill="#fffa"/>
<text x="554.5742574257429" y="243.69966357147877" fill="#111" font-size="0.5em" text-anchor="start" textLength="17.5" transform="rotate(-60, 559.2277227722775, 243.69966357147877)" style="text-shadow: 0 0 1px #fff;">
1.04
</text>
<rect x="563.7061881188122" y="139.50876352066194" width="17.85" height="7.2" transform="rotate(-60, 568.5346534653468, 146.16876352066194)" fill="#fffa"/>
<text x="563.8811881188121" y="146.16876352066194" fill="#111" font-size="0.5em" text-anchor="start" textLength="17.5" transform="rotate(-60, 568.5346534653468, 146.16876352066194)" style="text-shadow: 0 0 1px #fff;">
1.44
</text>
<rect x="582.3200495049507" y="185.00532275963596" width="17.85" height="7.2" transform="rotate(-60, 587.1485148514854, 191.66532275963596)" fill="#fffa"/>
<text x="582.4950495049508" y="191.66532275963596" fill="#111" font-size="0.5em" text-anchor="start" textLength="17.5" transform="rotate(-60, 587.1485148514854, 191.66532275963596)" style="text-shadow: 0 0 1px #fff;">
1.25
</text>
<rect x="591.6269801980201" y="235.26047775419335" width="17.85" height="7.2" transform="rotate(-60, 596.4554455445548, 241.92047775419334)" fill="#fffa"/>
<text x="591.8019801980201" y="241.92047775419334" fill="#111" font-size="0.5em" text-anchor="start" textLength="17.5" transform="rotate(-60, 596.4554455445548, 241.92047775419334)" style="text-shadow: 0 0 1px #fff;">
1.04
</text>
<rect x="600.9339108910893" y="133.5518332197537" width="17.85" height="7.2" transform="rotate(-60, 605.762376237624, 140.2118332197537)" fill="#fffa"/>
<text x="601.1089108910894" y="140.2118332197537" fill="#111" font-size="0.5em" text-anchor="start" textLength="17.5" transform="rotate(-60, 605.762376237624, 140.2118332197537)" style="text-shadow: 0 0 1px #fff;">
1.47
</text>
<rect x="619.547772277228" y="185.1559840941605" width="17.85" height="7.2" transform="rotate(-60, 624.3762376237627, 191.81598409416048)" fill="#fffa"/>
<text x="619.722772277228" y="191.81598409416048" fill="#111" font-size="0.5em" text-anchor="start" textLength="17.5" transform="rotate(-60, 624.3762376237627, 191.81598409416048)" style="text-shadow: 0 0 1px #fff;">
1.25
</text>
<rect x="628.8547029702974" y="236.0212810678572" width="17.85" height="7.2" transform="rotate(-60, 633.683168316832, 242.68128106785719)" fill="#fffa"/>
<text x="629.0297029702974" y="242.68128106785719" fill="#111" font-size="0.5em" text-anchor="start" textLength="17.5" transform="rotate(-60, 633.683168316832, 242.68128106785719)" style="text-shadow: 0 0 1px #fff;">
1.04
</text>
<rect x="638.1616336633666" y="172.21525412879356" width="17.85" height="7.2" transform="rotate(-60, 642.9900990099013, 178.87525412879356)" fill="#fffa"/>
<text x="638.3366336633667" y="178.87525412879356" fill="#111" font-size="0.5em" text-anchor="start" textLength="17.5" transform="rotate(-60, 642.9900990099013, 178.87525412879356)" style="text-shadow: 0 0 1px #fff;">
1.31
</text>
<rect x="656.7754950495053" y="185.21188595898005" width="17.85" height="7.2" transform="rotate(-60, 661.60396039604, 191.87188595898004)" fill="#fffa"/>
<text x="656.9504950495053" y="191.87188595898004" fill="#111" font-size="0.5em" text-anchor="start" textLength="17.5" transform="rotate(-60, 661.60396039604, 191.87188595898004)" style="text-shadow: 0 0 1px #fff;">
1.25
</text>
<rect x="666.0824257425746" y="236.24279895722" width="17.85" height="7.2" transform="rotate(-60, 670.9108910891093, 242.90279895722)" fill="#fffa"/>
<text x="666.2574257425746" y="242.90279895722" fill="#111" font-size="0.5em" text-anchor="start" textLength="17.5" transform="rotate(-60, 670.9108910891093, 242.90279895722)" style="text-shadow: 0 0 1px #fff;">
1.04
</text>
<rect x="675.3893564356439" y="159.09782637483676" width="17.85" height="7.2" transform="rotate(-60, 680.2178217821786, 165.75782637483678)" fill="#fffa"/>
<text x="675.564356435644" y="165.75782637483678" fill="#111" font-size="0.5em" text-anchor="start" textLength="17.5" transform="rotate(-60, 680.2178217821786, 165.75782637483678)" style="text-shadow: 0 0 1px #fff;">
1.36
</text>
<rect x="694.0032178217825" y="181.33542321457878" width="17.85" height="7.2" transform="rotate(-60, 698.8316831683172, 187.9954232145788)" fill="#fffa"/>
<text x="694.1782178217826" y="187.9954232145788" fill="#111" font-size="0.5em" text-anchor="start" textLength="17.5" transform="rotate(-60, 698.8316831683172, 187.9954232145788)" style="text-shadow: 0 0 1px #fff;">
1.27
</text>
<rect x="703.3101485148519" y="235.11068593602772" width="17.85" height="7.2" transform="rotate(-60, 708.1386138613866, 241.77068593602772)" fill="#fffa"/>
<text x="703.4851485148519" y="241.77068593602772" fill="#111" font-size="0.5em" text-anchor="start" textLength="17.5" transform="rotate(-60, 708.1386138613866, 241.77068593602772)" style="text-shadow: 0 0 1px #fff;">
1.04
</text>
<rect x="712.6170792079212" y="134.89995958324405" width="17.85" height="7.2" transform="rotate(-60, 717.4455445544559, 141.55995958324405)" fill="#fffa"/>
<text x="712.7920792079212" y="141.55995958324405" fill="#111" font-size="0.5em" text-anchor="start" textLength="17.5" transform="rotate(-60, 717.4455445544559, 141.55995958324405)" style="text-shadow: 0 0 1px #fff;">
1.46
</text>
<rect x="731.2309405940598" y="183.90121968786192" width="17.85" height="7.2" transform="rotate(-60, 736.0594059405945, 190.56121968786195)" fill="#fffa"/>
<text x="731.4059405940599" y="190.56121968786195" fill="#111" font-size="0.5em" text-anchor="start" textLength="17.5" transform="rotate(-60, 736.0594059405945, 190.56121968786195)" style="text-shadow: 0 0 1px #fff;">
1.26
</text>
<rect x="740.5378712871291" y="236.08727307716805" width="17.85" height="7.2" transform="rotate(-60, 745.3663366336638, 242.74727307716805)" fill="#fffa"/>
<text x="740.7128712871291" y="242.74727307716805" fill="#111" font-size="0.5em" text-anchor="start" textLength="17.5" transform="rotate(-60, 745.3663366336638, 242.74727307716805)" style="text-shadow: 0 0 1px #fff;">
1.04
</text>
<rect x="749.8448019801984" y="169.15135954769934" width="17.85" height="7.2" transform="rotate(-60, 754.6732673267331, 175.81135954769934)" fill="#fffa"/>
<text x="750.0198019801985" y="175.81135954769934" fill="#111" font-size="0.5em" text-anchor="start" textLength="17.5" transform="rotate(-60, 754.6732673267331, 175.81135954769934)" style="text-shadow: 0 0 1px #fff;">
1.32
</text>
<rect x="768.4586633663371" y="183.90121968786192" width="17.85" height="7.2" transform="rotate(-60, 773.2871287128718, 190.56121968786195)" fill="#fffa"/>
<text x="768.6336633663371" y="190.56121968786195" fill="#111" font-size="0.5em" text-anchor="start" textLength="17.5" transform="rotate(-60, 773.2871287128718, 190.56121968786195)" style="text-shadow: 0 0 1px #fff;">
1.26
</text>
<rect x="777.7655940594063" y="236.2370178501646" width="17.85" height="7.2" transform="rotate(-60, 782.594059405941, 242.8970178501646)" fill="#fffa"/>
<text x="777.9405940594064" y="242.8970178501646" fill="#111" font-size="0.5em" text-anchor="start" textLength="17.5" transform="rotate(-60, 782.594059405941, 242.8970178501646)" style="text-shadow: 0 0 1px #fff;">
1.04
</text>
<rect x="787.0725247524757" y="167.8036565907302" width="17.85" height="7.2" transform="rotate(-60, 791.9009900990104, 174.4636565907302)" fill="#fffa"/>
<text x="787.2475247524757" y="174.4636565907302" fill="#111" font-size="0.5em" text-anchor="start" textLength="17.5" transform="rotate(-60, 791.9009900990104, 174.4636565907302)" style="text-shadow: 0 0 1px #fff;">
1.33
</text>
<rect x="805.6863861386144" y="226.51400005843016" width="17.85" height="7.2" transform="rotate(-60, 810.514851485149, 233.17400005843015)" fill="#fffa"/>
<text x="805.8613861386143" y="233.17400005843015" fill="#111" font-size="0.5em" text-anchor="start" textLength="17.5" transform="rotate(-60, 810.514851485149, 233.17400005843015)" style="text-shadow: 0 0 1px #fff;">
1.08
</text>
<rect x="814.9933168316836" y="242.63886689549983" width="17.85" height="7.2" transform="rotate(-60, 819.8217821782183, 249.29886689549983)" fill="#fffa"/>
<text x="815.1683168316837" y="249.29886689549983" fill="#111" font-size="0.5em" text-anchor="start" textLength="17.5" transform="rotate(-60, 819.8217821782183, 249.29886689549983)" style="text-shadow: 0 0 1px #fff;">
1.01
</text>
<rect x="824.300247524753" y="223.65855488936575" width="17.85" height="7.2" transform="rotate(-60, 829.1287128712877, 230.31855488936574)" fill="#fffa"/>
<text x="824.475247524753" y="230.31855488936574" fill="#111" font-size="0.5em" text-anchor="start" textLength="17.5" transform="rotate(-60, 829.1287128712877, 230.31855488936574)" style="text-shadow: 0 0 1px #fff;">
1.09
</text>
<rect x="842.9141089108916" y="185.09917787183454" width="17.85" height="7.2" transform="rotate(-60, 847.7425742574263, 191.75917787183454)" fill="#fffa"/>
<text x="843.0891089108916" y="191.75917787183454" fill="#111" font-size="0.5em" text-anchor="start" textLength="17.5" transform="rotate(-60, 847.7425742574263, 191.75917787183454)" style="text-shadow: 0 0 1px #fff;">
1.25
</text>
<rect x="852.2210396039609" y="236.1621454636663" width="17.85" height="7.2" transform="rotate(-60, 857.0495049504956, 242.8221454636663)" fill="#fffa"/>
<text x="852.396039603961" y="242.8221454636663" fill="#111" font-size="0.5em" text-anchor="start" textLength="17.5" transform="rotate(-60, 857.0495049504956, 242.8221454636663)" style="text-shadow: 0 0 1px #fff;">
1.04
</text>
<rect x="861.5279702970303" y="155.00047849952315" width="17.85" height="7.2" transform="rotate(-60, 866.3564356435649, 161.66047849952315)" fill="#fffa"/>
<text x="861.7029702970302" y="161.66047849952315" fill="#111" font-size="0.5em" text-anchor="start" textLength="17.5" transform="rotate(-60, 866.3564356435649, 161.66047849952315)" style="text-shadow: 0 0 1px #fff;">
1.38
</text>
<rect x="880.1418316831688" y="183.8069882143111" width="17.85" height="7.2" transform="rotate(-60, 884.9702970297035, 190.4669882143111)" fill="#fffa"/>
<text x="880.3168316831689" y="190.4669882143111" fill="#111" font-size="0.5em" text-anchor="start" textLength="17.5" transform="rotate(-60, 884.9702970297035, 190.4669882143111)" style="text-shadow: 0 0 1px #fff;">
1.26
</text>
<rect x="889.4487623762382" y="236.08433275410414" width="17.85" height="7.2" transform="rotate(-60, 894.2772277227729, 242.74433275410414)" fill="#fffa"/>
<text x="889.6237623762382" y="242.74433275410414" fill="#111" font-size="0.5em" text-anchor="start" textLength="17.5" transform="rotate(-60, 894.2772277227729, 242.74433275410414)" style="text-shadow: 0 0 1px #fff;">
1.04
</text>
<rect x="898.7556930693074" y="169.05249412499992" width="17.85" height="7.2" transform="rotate(-60, 903.5841584158421, 175.71249412499992)" fill="#fffa"/>
<text x="898.9306930693075" y="175.71249412499992" fill="#111" font-size="0.5em" text-anchor="start" textLength="17.5" transform="rotate(-60, 903.5841584158421, 175.71249412499992)" style="text-shadow: 0 0 1px #fff;">
1.32
</text>
<rect x="917.3695544554461" y="100.11901919627864" width="17.85" height="7.2" transform="rotate(-60, 922.1980198019808, 106.77901919627864)" fill="#fffa"/>
<text x="917.5445544554461" y="106.77901919627864" fill="#111" font-size="0.5em" text-anchor="start" textLength="17.5" transform="rotate(-60, 922.1980198019808, 106.77901919627864)" style="text-shadow: 0 0 1px #fff;">
1.61
</text>
<rect x="926.6764851485154" y="236.1621454636663" width="17.85" height="7.2" transform="rotate(-60, 931.5049504950501, 242.8221454636663)" fill="#fffa"/>
<text x="926.8514851485155" y="242.8221454636663" fill="#111" font-size="0.5em" text-anchor="start" textLength="17.5" transform="rotate(-60, 931.5049504950501, 242.8221454636663)" style="text-shadow: 0 0 1px #fff;">
1.04
</text>
<rect x="935.9834158415847" y="91.43382236247737" width="17.85" height="7.2" transform="rotate(-60, 940.8118811881194, 98.09382236247737)" fill="#fffa"/>
<text x="936.1584158415848" y="98.09382236247737" fill="#111" font-size="0.5em" text-anchor="start" textLength="17.5" transform="rotate(-60, 940.8118811881194, 98.09382236247737)" style="text-shadow: 0 0 1px #fff;">
1.65
</text>
<rect x="954.5972772277233" y="190.50214588324627" width="17.85" height="7.2" transform="rotate(-60, 959.425742574258, 197.16214588324627)" fill="#fffa"/>
<text x="954.7722772277234" y="197.16214588324627" fill="#111" font-size="0.5em" text-anchor="start" textLength="17.5" transform="rotate(-60, 959.425742574258, 197.16214588324627)" style="text-shadow: 0 0 1px #fff;">
1.23
</text>
<rect x="963.9042079207927" y="233.62004685071796" width="17.85" height="7.2" transform="rotate(-60, 968.7326732673274, 240.28004685071795)" fill="#fffa"/>
<text x="964.0792079207927" y="240.28004685071795" fill="#111" font-size="0.5em" text-anchor="start" textLength="17.5" transform="rotate(-60, 968.7326732673274, 240.28004685071795)" style="text-shadow: 0 0 1px #fff;">
1.05
</text>
<rect x="973.211138613862" y="158.15707476142222" width="17.85" height="7.2" transform="rotate(-60, 978.0396039603967, 164.81707476142222)" fill="#fffa"/>
<text x="973.386138613862" y="164.81707476142222" fill="#111" font-size="0.5em" text-anchor="start" textLength="17.5" transform="rotate(-60, 978.0396039603967, 164.81707476142222)" style="text-shadow: 0 0 1px #fff;">
1.37
</text>
</svg>