<svg viewBox="0 0 1000 600" xmlns="http://www.w3.org/2000/svg" xmlns:xlink="http://www.w3.org/1999/xlink" width="100%" height="100%">

<rect x="50.0" y="30.0" width="940.0" height="467.99999999999994" stroke="#000" fill="#fff"/>
<line x1="42.0" y1="497.9999999999999" x2="50.0" y2="497.9999999999999" stroke="#000"/>
<text x="26.000000000000004" y="497.9999999999999" text-anchor="end" font-weight="bold" font-size="small" fill="#111">
0.0
</text>
<line x1="42.0" y1="424.95970993003095" x2="50.0" y2="424.95970993003095" stroke="#000"/>
<text x="26.000000000000004" y="424.95970993003095" text-anchor="end" font-weight="bold" font-size="small" fill="#111">
0.5
</text>
<line x1="42.0" y1="351.9194198600621" x2="50.0" y2="351.9194198600621" stroke="#000"/>
<text x="26.000000000000004" y="351.9194198600621" text-anchor="end" font-weight="bold" font-size="small" fill="#111">
1.0
</text>
<line x1="42.0" y1="278.87912979009315" x2="50.0" y2="278.87912979009315" stroke="#000"/>
<text x="26.000000000000004" y="278.87912979009315" text-anchor="end" font-weight="bold" font-size="small" fill="#111">
1.5
</text>
<line x1="42.0" y1="205.83883972012413" x2="50.0" y2="205.83883972012413" stroke="#000"/>
<text x="26.000000000000004" y="205.83883972012413" text-anchor="end" font-weight="bold" font-size="small" fill="#111">
2.0
</text>
<line x1="42.0" y1="132.79854965015525" x2="50.0" y2="132.79854965015525" stroke="#000"/>
<text x="26.000000000000004" y="132.79854965015525" text-anchor="end" font-weight="bold" font-size="small" fill="#111">
2.5
</text>
<line x1="142.75" y1="54.60000000000001" x2="262.75" y2="54.60000000000001" stroke="#648FFF" stroke-width="2"/>
<text x="202.75" y="49.500000000000014" font-size="small" text-anchor="middle" font-weight="bold" fill="#000">
CRuby 3.4.7
</text>
<rect x="354.25" y="35.400000000000006" width="120.0" height="19.2" fill="#785EF0" stroke="none"/>
<text x="414.25" y="49.500000000000014" font-size="small" text-anchor="middle" font-weight="bold" fill="#fff" style="text-shadow: 0 0 1px #000;">
CRuby 4.1.0dev
</text>
<rect x="565.75" y="35.400000000000006" width="120.0" height="19.2" fill="#FFB000" stroke="none"/>
<text x="625.7499999999999" y="49.500000000000014" font-size="small" text-anchor="middle" font-weight="bold" fill="#fff" style="text-shadow: 0 0 1px #000;">
YJIT 3.4.7
</text>
<rect x="777.25" y="35.400000000000006" width="120.0" height="19.2" fill="#DC267F" stroke="none"/>
<text x="837.2499999999999" y="49.500000000000014" font-size="small" text-anchor="middle" font-weight="bold" fill="#fff" style="text-shadow: 0 0 1px #000;">
YJIT 4.1.0dev
</text>
<rect x="63.6231884057971" y="337.25360751728135" width="13.6231884057971" height="160.74639248271862" fill="#785EF0" data-tooltip="1.10x baseline (CRuby 4.1.0dev)"/>
<rect x="77.2463768115942" y="326.96197548590453" width="13.6231884057971" height="171.03802451409538" fill="#FFB000" data-tooltip="1.17x baseline (YJIT 3.4.7)"/>
<rect x="90.8695652173913" y="297.71556210511073" width="13.6231884057971" height="200.28443789488924" fill="#DC267F" data-tooltip="1.37x baseline (YJIT 4.1.0dev)"/>
<line x1="84.05797101449275" y1="498.0" x2="84.05797101449275" y2="502.79999999999995" stroke="#000"/>
<text x="84.05797101449275" y="512.4" fill="#111" font-size="small" text-anchor="end" transform="rotate(-60, 84.05797101449275, 512.4)">
activerecord
</text>
<rect x="118.1159420289855" y="255.17982175601725" width="13.6231884057971" height="242.8201782439827" fill="#785EF0" data-tooltip="1.66x baseline (CRuby 4.1.0dev)"/>
<rect x="131.7391304347826" y="345.55481187771494" width="13.6231884057971" height="152.44518812228506" fill="#FFB000" data-tooltip="1.04x baseline (YJIT 3.4.7)"/>
<rect x="145.36231884057972" y="293.86833131473804" width="13.6231884057971" height="204.1316686852619" fill="#DC267F" data-tooltip="1.40x baseline (YJIT 4.1.0dev)"/>
<line x1="138.55072463768116" y1="498.0" x2="138.55072463768116" y2="502.79999999999995" stroke="#000"/>
<text x="138.55072463768116" y="512.4" fill="#111" font-size="small" text-anchor="end" transform="rotate(-60, 138.55072463768116, 512.4)">
chunky-png
</text>
<rect x="172.6086956521739" y="354.87778875169477" width="13.6231884057971" height="143.12221124830523" fill="#785EF0" data-tooltip="0.98x baseline (CRuby 4.1.0dev)"/>
<rect x="186.231884057971" y="340.40608842208485" width="13.6231884057971" height="157.59391157791512" fill="#FFB000" data-tooltip="1.08x baseline (YJIT 3.4.7)"/>
<rect x="199.8550724637681" y="318.72521660504935" width="13.6231884057971" height="179.2747833949506" fill="#DC267F" data-tooltip="1.23x baseline (YJIT 4.1.0dev)"/>
<line x1="193.04347826086953" y1="498.0" x2="193.04347826086953" y2="502.79999999999995" stroke="#000"/>
<text x="193.04347826086953" y="512.4" fill="#111" font-size="small" text-anchor="end" transform="rotate(-60, 193.04347826086953, 512.4)">
erubi-rails
</text>
<rect x="227.1014492753623" y="319.6833729375709" width="13.6231884057971" height="178.31662706242906" fill="#785EF0" data-tooltip="1.22x baseline (CRuby 4.1.0dev)"/>
<rect x="240.7246376811594" y="312.46576415605654" width="13.6231884057971" height="185.53423584394335" fill="#FFB000" data-tooltip="1.27x baseline (YJIT 3.4.7)"/>
<rect x="254.3478260869565" y="301.83043087932475" width="13.6231884057971" height="196.16956912067525" fill="#DC267F" data-tooltip="1.34x baseline (YJIT 4.1.0dev)"/>
<line x1="247.536231884058" y1="498.0" x2="247.536231884058" y2="502.79999999999995" stroke="#000"/>
<text x="247.536231884058" y="512.4" fill="#111" font-size="small" text-anchor="end" transform="rotate(-60, 247.536231884058, 512.4)">
hexapdf
</text>
<rect x="281.59420289855075" y="126.35625781937816" width="13.6231884057971" height="371.6437421806218" fill="#785EF0" data-tooltip="2.54x baseline (CRuby 4.1.0dev)"/>
<rect x="295.21739130434787" y="328.4912283953477" width="13.6231884057971" height="169.5087716046522" fill="#FFB000" data-tooltip="1.16x baseline (YJIT 3.4.7)"/>
<rect x="308.840579710145" y="100.19999999999999" width="13.6231884057971" height="397.79999999999995" fill="#DC267F" data-tooltip="2.72x baseline (YJIT 4.1.0dev)"/>
<line x1="302.02898550724643" y1="498.0" x2="302.02898550724643" y2="502.79999999999995" stroke="#000"/>
<text x="302.02898550724643" y="512.4" fill="#111" font-size="small" text-anchor="end" transform="rotate(-60, 302.02898550724643, 512.4)">
liquid-c
</text>
<rect x="336.08695652173924" y="281.884504082858" width="13.6231884057971" height="216.115495917142" fill="#785EF0" data-tooltip="1.48x baseline (CRuby 4.1.0dev)"/>
<rect x="349.71014492753636" y="331.9288334352843" width="13.6231884057971" height="166.0711665647157" fill="#FFB000" data-tooltip="1.14x baseline (YJIT 3.4.7)"/>
<rect x="363.3333333333335" y="262.4949925166331" width="13.6231884057971" height="235.50500748336682" fill="#DC267F" data-tooltip="1.61x baseline (YJIT 4.1.0dev)"/>
<line x1="356.5217391304349" y1="498.0" x2="356.5217391304349" y2="502.79999999999995" stroke="#000"/>
<text x="356.5217391304349" y="512.4" fill="#111" font-size="small" text-anchor="end" transform="rotate(-60, 356.5217391304349, 512.4)">
liquid-compile
</text>
<rect x="390.5797101449278" y="301.0809522790735" width="13.6231884057971" height="196.9190477209264" fill="#785EF0" data-tooltip="1.35x baseline (CRuby 4.1.0dev)"/>
<rect x="404.2028985507249" y="326.0116785944688" width="13.6231884057971" height="171.9883214055311" fill="#FFB000" data-tooltip="1.18x baseline (YJIT 3.4.7)"/>
<rect x="417.82608695652203" y="278.0537206080294" width="13.6231884057971" height="219.94627939197056" fill="#DC267F" data-tooltip="1.51x baseline (YJIT 4.1.0dev)"/>
<line x1="411.0144927536235" y1="498.0" x2="411.0144927536235" y2="502.79999999999995" stroke="#000"/>
<text x="411.0144927536235" y="512.4" fill="#111" font-size="small" text-anchor="end" transform="rotate(-60, 411.0144927536235, 512.4)">
liquid-il
</text>
<rect x="445.0724637681163" y="209.02142316543873" width="13.6231884057971" height="288.97857683456124" fill="#785EF0" data-tooltip="1.98x baseline (CRuby 4.1.0dev)"/>
<rect x="458.6956521739134" y="323.1638423776906" width="13.6231884057971" height="174.83615762230934" fill="#FFB000" data-tooltip="1.20x baseline (YJIT 3.4.7)"/>
<rect x="472.3188405797105" y="183.33610265384127" width="13.6231884057971" height="314.66389734615865" fill="#DC267F" data-tooltip="2.15x baseline (YJIT 4.1.0dev)"/>
<line x1="465.50724637681196" y1="498.0" x2="465.50724637681196" y2="502.79999999999995" stroke="#000"/>
<text x="465.50724637681196" y="512.4" fill="#111" font-size="small" text-anchor="end" transform="rotate(-60, 465.50724637681196, 512.4)">
liquid-render
</text>
<rect x="499.56521739130477" y="356.4664343081058" width="13.6231884057971" height="141.53356569189415" fill="#785EF0" data-tooltip="0.97x baseline (CRuby 4.1.0dev)"/>
<rect x="513.188405797102" y="331.10036154945647" width="13.6231884057971" height="166.8996384505435" fill="#FFB000" data-tooltip="1.14x baseline (YJIT 3.4.7)"/>
<rect x="526.8115942028991" y="333.5155524675879" width="13.6231884057971" height="164.4844475324121" fill="#DC267F" data-tooltip="1.13x baseline (YJIT 4.1.0dev)"/>
<line x1="520.0000000000005" y1="498.0" x2="520.0000000000005" y2="502.79999999999995" stroke="#000"/>
<text x="520.0000000000005" y="512.4" fill="#111" font-size="small" text-anchor="end" transform="rotate(-60, 520.0000000000005, 512.4)">
lobsters
</text>
<rect x="554.0579710144933" y="343.6223213493085" width="13.6231884057971" height="154.3776786506914" fill="#785EF0" data-tooltip="1.06x baseline (CRuby 4.1.0dev)"/>
<rect x="567.6811594202904" y="341.83715401072965" width="13.6231884057971" height="156.1628459892703" fill="#FFB000" data-tooltip="1.07x baseline (YJIT 3.4.7)"/>
<rect x="581.3043478260876" y="307.43619347358646" width="13.6231884057971" height="190.56380652641346" fill="#DC267F" data-tooltip="1.30x baseline (YJIT 4.1.0dev)"/>
<line x1="574.492753623189" y1="498.0" x2="574.492753623189" y2="502.79999999999995" stroke="#000"/>
<text x="574.492753623189" y="512.4" fill="#111" font-size="small" text-anchor="end" transform="rotate(-60, 574.492753623189, 512.4)">
mail
</text>
<rect x="608.5507246376818" y="357.60155722955363" width="13.6231884057971" height="140.39844277044634" fill="#785EF0" data-tooltip="0.96x baseline (CRuby 4.1.0dev)"/>
<rect x="622.1739130434789" y="340.7941994440673" width="13.6231884057971" height="157.20580055593263" fill="#FFB000" data-tooltip="1.08x baseline (YJIT 3.4.7)"/>
<rect x="635.797101449276" y="242.98420375369346" width="13.6231884057971" height="255.01579624630648" fill="#DC267F" data-tooltip="1.75x baseline (YJIT 4.1.0dev)"/>
<line x1="628.9855072463774" y1="498.0" x2="628.9855072463774" y2="502.79999999999995" stroke="#000"/>
<text x="628.9855072463774" y="512.4" fill="#111" font-size="small" text-anchor="end" transform="rotate(-60, 628.9855072463774, 512.4)">
psych-load
</text>
<rect x="663.0434782608703" y="345.85641994443085" width="13.6231884057971" height="152.14358005556906" fill="#785EF0" data-tooltip="1.04x baseline (CRuby 4.1.0dev)"/>
<rect x="676.6666666666674" y="319.56090220449295" width="13.6231884057971" height="178.439097795507" fill="#FFB000" data-tooltip="1.22x baseline (YJIT 3.4.7)"/>
<rect x="690.2898550724645" y="300.32481055016456" width="13.6231884057971" height="197.6751894498354" fill="#DC267F" data-tooltip="1.35x baseline (YJIT 4.1.0dev)"/>
<line x1="683.4782608695659" y1="498.0" x2="683.4782608695659" y2="502.79999999999995" stroke="#000"/>
<text x="683.4782608695659" y="512.4" fill="#111" font-size="small" text-anchor="end" transform="rotate(-60, 683.4782608695659, 512.4)">
railsbench
</text>
<rect x="717.5362318840588" y="335.95717384208666" width="13.6231884057971" height="162.04282615791323" fill="#785EF0" data-tooltip="1.11x baseline (CRuby 4.1.0dev)"/>
<rect x="731.1594202898559" y="280.2414307526607" width="13.6231884057971" height="217.7585692473393" fill="#FFB000" data-tooltip="1.49x baseline (YJIT 3.4.7)"/>
<rect x="744.782608695653" y="255.88227259816466" width="13.6231884057971" height="242.11772740183528" fill="#DC267F" data-tooltip="1.66x baseline (YJIT 4.1.0dev)"/>
<line x1="737.9710144927545" y1="498.0" x2="737.9710144927545" y2="502.79999999999995" stroke="#000"/>
<text x="737.9710144927545" y="512.4" fill="#111" font-size="small" text-anchor="end" transform="rotate(-60, 737.9710144927545, 512.4)">
rubocop
</text>
<rect x="772.0289855072473" y="370.41132012425714" width="13.6231884057971" height="127.58867987574283" fill="#785EF0" data-tooltip="0.87x baseline (CRuby 4.1.0dev)"/>
<rect x="785.6521739130444" y="342.21175421570285" width="13.6231884057971" height="155.7882457842971" fill="#FFB000" data-tooltip="1.07x baseline (YJIT 3.4.7)"/>
<rect x="799.2753623188415" y="348.86976950176216" width="13.6231884057971" height="149.13023049823775" fill="#DC267F" data-tooltip="1.02x baseline (YJIT 4.1.0dev)"/>
<line x1="792.463768115943" y1="498.0" x2="792.463768115943" y2="502.79999999999995" stroke="#000"/>
<text x="792.463768115943" y="512.4" fill="#111" font-size="small" text-anchor="end" transform="rotate(-60, 792.463768115943, 512.4)">
ruby-lsp
</text>
<rect x="826.5217391304358" y="267.1103547282412" width="13.6231884057971" height="230.88964527175872" fill="#785EF0" data-tooltip="1.58x baseline (CRuby 4.1.0dev)"/>
<rect x="840.1449275362329" y="333.60657256650774" width="13.6231884057971" height="164.39342743349223" fill="#FFB000" data-tooltip="1.13x baseline (YJIT 3.4.7)"/>
<rect x="853.76811594203" y="249.11415609105956" width="13.6231884057971" height="248.8858439089404" fill="#DC267F" data-tooltip="1.70x baseline (YJIT 4.1.0dev)"/>
<line x1="846.9565217391315" y1="498.0" x2="846.9565217391315" y2="502.79999999999995" stroke="#000"/>
<text x="846.9565217391315" y="512.4" fill="#111" font-size="small" text-anchor="end" transform="rotate(-60, 846.9565217391315, 512.4)">
sequel
</text>
<rect x="881.0144927536243" y="348.3536900882741" width="13.6231884057971" height="149.6463099117259" fill="#785EF0" data-tooltip="1.02x baseline (CRuby 4.1.0dev)"/>
<rect x="894.6376811594214" y="304.3707097916109" width="13.6231884057971" height="193.62929020838905" fill="#FFB000" data-tooltip="1.33x baseline (YJIT 3.4.7)"/>
<rect x="908.2608695652185" y="284.9963467204349" width="13.6231884057971" height="213.00365327956504" fill="#DC267F" data-tooltip="1.46x baseline (YJIT 4.1.0dev)"/>
<line x1="901.44927536232" y1="498.0" x2="901.44927536232" y2="502.79999999999995" stroke="#000"/>
<text x="901.44927536232" y="512.4" fill="#111" font-size="small" text-anchor="end" transform="rotate(-60, 901.44927536232, 512.4)">
shipit
</text>
<rect x="935.5072463768129" y="315.4722267058236" width="13.6231884057971" height="182.5277732941763" fill="#785EF0" data-tooltip="1.25x baseline (CRuby 4.1.0dev)"/>
<rect x="949.13043478261" y="327.5109548985349" width="13.6231884057971" height="170.489045101465" fill="#FFB000" data-tooltip="1.17x baseline (YJIT 3.4.7)"/>
<rect x="962.7536231884071" y="278.9024313810622" width="13.6231884057971" height="219.09756861893777" fill="#DC267F" data-tooltip="1.50x baseline (YJIT 4.1.0dev)"/>
<line x1="955.9420289855085" y1="498.0" x2="955.9420289855085" y2="502.79999999999995" stroke="#000"/>
<text x="955.9420289855085" y="512.4" fill="#111" font-size="small" text-anchor="end" transform="rotate(-60, 955.9420289855085, 512.4)" font-style="italic">
geomean*
</text>
<line x1="50.0" y1="351.9194198600621" x2="990.0" y2="351.9194198600621" stroke="#648FFF" stroke-width="2"/>
<rect x="65.44818840579711" y="323.0936075172814" width="17.85" height="7.2" transform="rotate(-60, 72.43478260869566, 329.75360751728135)" fill="#fffa"/>
<text x="65.62318840579711" y="329.75360751728135" fill="#111" font-size="0.5em" text-anchor="start" textLength="17.5" transform="rotate(-60, 72.43478260869566, 329.75360751728135)" style="text-shadow: 0 0 1px #fff;">
1.10
</text>
<rect x="79.0713768115942" y="312.80197548590456" width="17.85" height="7.2" transform="rotate(-60, 86.05797101449275, 319.4619754859046)" fill="#fffa"/>
<text x="79.2463768115942" y="319.4619754859046" fill="#111" font-size="0.5em" text-anchor="start" textLength="17.5" transform="rotate(-60, 86.05797101449275, 319.4619754859046)" style="text-shadow: 0 0 1px #fff;">
1.17
</text>
<rect x="92.6945652173913" y="283.5555621051107" width="17.85" height="7.2" transform="rotate(-60, 99.68115942028984, 290.2155621051107)" fill="#fffa"/>
<text x="92.8695652173913" y="290.2155621051107" fill="#111" font-size="0.5em" text-anchor="start" textLength="17.5" transform="rotate(-60, 99.68115942028984, 290.2155621051107)" style="text-shadow: 0 0 1px #fff;">
1.37
</text>
<rect x="119.9409420289855" y="241.01982175601722" width="17.85" height="7.2" transform="rotate(-60, 126.92753623188405, 247.67982175601722)" fill="#fffa"/>
<text x="120.1159420289855" y="247.67982175601722" fill="#111" font-size="0.5em" text-anchor="start" textLength="17.5" transform="rotate(-60, 126.92753623188405, 247.67982175601722)" style="text-shadow: 0 0 1px #fff;">
1.66
</text>
<rect x="133.5641304347826" y="331.394811877715" width="17.85" height="7.2" transform="rotate(-60, 140.55072463768118, 338.05481187771494)" fill="#fffa"/>
<text x="133.73913043478262" y="338.05481187771494" fill="#111" font-size="0.5em" text-anchor="start" textLength="17.5" transform="rotate(-60, 140.55072463768118, 338.05481187771494)" style="text-shadow: 0 0 1px #fff;">
1.04
</text>
<rect x="147.1873188405797" y="279.708331314738" width="17.85" height="7.2" transform="rotate(-60, 154.17391304347828, 286.36833131473804)" fill="#fffa"/>
<text x="147.36231884057972" y="286.36833131473804" fill="#111" font-size="0.5em" text-anchor="start" textLength="17.5" transform="rotate(-60, 154.17391304347828, 286.36833131473804)" style="text-shadow: 0 0 1px #fff;">
1.40
</text>
<rect x="174.4336956521739" y="340.7177887516948" width="17.85" height="7.2" transform="rotate(-60, 181.42028985507247, 347.37778875169477)" fill="#fffa"/>
<text x="174.6086956521739" y="347.37778875169477" fill="#111" font-size="0.5em" text-anchor="start" textLength="17.5" transform="rotate(-60, 181.42028985507247, 347.37778875169477)" style="text-shadow: 0 0 1px #fff;">
0.98
</text>
<rect x="188.056884057971" y="326.2460884220849" width="17.85" height="7.2" transform="rotate(-60, 195.04347826086956, 332.90608842208485)" fill="#fffa"/>
<text x="188.231884057971" y="332.90608842208485" fill="#111" font-size="0.5em" text-anchor="start" textLength="17.5" transform="rotate(-60, 195.04347826086956, 332.90608842208485)" style="text-shadow: 0 0 1px #fff;">
1.08
</text>
<rect x="201.68007246376808" y="304.5652166050494" width="17.85" height="7.2" transform="rotate(-60, 208.66666666666666, 311.22521660504935)" fill="#fffa"/>
<text x="201.8550724637681" y="311.22521660504935" fill="#111" font-size="0.5em" text-anchor="start" textLength="17.5" transform="rotate(-60, 208.66666666666666, 311.22521660504935)" style="text-shadow: 0 0 1px #fff;">
1.23
</text>
<rect x="228.9264492753623" y="305.5233729375709" width="17.85" height="7.2" transform="rotate(-60, 235.91304347826087, 312.1833729375709)" fill="#fffa"/>
<text x="229.1014492753623" y="312.1833729375709" fill="#111" font-size="0.5em" text-anchor="start" textLength="17.5" transform="rotate(-60, 235.91304347826087, 312.1833729375709)" style="text-shadow: 0 0 1px #fff;">
1.22
</text>
<rect x="242.5496376811594" y="298.30576415605657" width="17.85" height="7.2" transform="rotate(-60, 249.53623188405797, 304.9657641560566)" fill="#fffa"/>
<text x="242.7246376811594" y="304.9657641560566" fill="#111" font-size="0.5em" text-anchor="start" textLength="17.5" transform="rotate(-60, 249.53623188405797, 304.9657641560566)" style="text-shadow: 0 0 1px #fff;">
1.27
</text>
<rect x="256.1728260869565" y="287.6704308793247" width="17.85" height="7.2" transform="rotate(-60, 263.15942028985506, 294.33043087932475)" fill="#fffa"/>
<text x="256.3478260869565" y="294.33043087932475" fill="#111" font-size="0.5em" text-anchor="start" textLength="17.5" transform="rotate(-60, 263.15942028985506, 294.33043087932475)" style="text-shadow: 0 0 1px #fff;">
1.34
</text>
<rect x="283.4192028985508" y="112.19625781937815" width="17.85" height="7.2" transform="rotate(-60, 290.4057971014493, 118.85625781937816)" fill="#fffa"/>
<text x="283.59420289855075" y="118.85625781937816" fill="#111" font-size="0.5em" text-anchor="start" textLength="17.5" transform="rotate(-60, 290.4057971014493, 118.85625781937816)" style="text-shadow: 0 0 1px #fff;">
2.54
</text>
<rect x="297.0423913043479" y="314.33122839534775" width="17.85" height="7.2" transform="rotate(-60, 304.02898550724643, 320.9912283953477)" fill="#fffa"/>
<text x="297.21739130434787" y="320.9912283953477" fill="#111" font-size="0.5em" text-anchor="start" textLength="17.5" transform="rotate(-60, 304.02898550724643, 320.9912283953477)" style="text-shadow: 0 0 1px #fff;">
1.16
</text>
<rect x="310.66557971014504" y="86.03999999999998" width="17.85" height="7.2" transform="rotate(-60, 317.65217391304355, 92.69999999999999)" fill="#fffa"/>
<text x="310.840579710145" y="92.69999999999999" fill="#111" font-size="0.5em" text-anchor="start" textLength="17.5" transform="rotate(-60, 317.65217391304355, 92.69999999999999)" style="text-shadow: 0 0 1px #fff;">
2.72
</text>
<rect x="337.9119565217393" y="267.72450408285795" width="17.85" height="7.2" transform="rotate(-60, 344.8985507246378, 274.3845040828579)" fill="#fffa"/>
<text x="338.08695652173924" y="274.3845040828579" fill="#111" font-size="0.5em" text-anchor="start" textLength="17.5" transform="rotate(-60, 344.8985507246378, 274.3845040828579)" style="text-shadow: 0 0 1px #fff;">
1.48
</text>
<rect x="351.5351449275364" y="317.7688334352843" width="17.85" height="7.2" transform="rotate(-60, 358.5217391304349, 324.4288334352843)" fill="#fffa"/>
<text x="351.71014492753636" y="324.4288334352843" fill="#111" font-size="0.5em" text-anchor="start" textLength="17.5" transform="rotate(-60, 358.5217391304349, 324.4288334352843)" style="text-shadow: 0 0 1px #fff;">
1.14
</text>
<rect x="365.15833333333353" y="248.3349925166331" width="17.85" height="7.2" transform="rotate(-60, 372.14492753623205, 254.9949925166331)" fill="#fffa"/>
<text x="365.3333333333335" y="254.9949925166331" fill="#111" font-size="0.5em" text-anchor="start" textLength="17.5" transform="rotate(-60, 372.14492753623205, 254.9949925166331)" style="text-shadow: 0 0 1px #fff;">
1.61
</text>
<rect x="392.4047101449278" y="286.92095227907345" width="17.85" height="7.2" transform="rotate(-60, 399.39130434782635, 293.5809522790735)" fill="#fffa"/>
<text x="392.5797101449278" y="293.5809522790735" fill="#111" font-size="0.5em" text-anchor="start" textLength="17.5" transform="rotate(-60, 399.39130434782635, 293.5809522790735)" style="text-shadow: 0 0 1px #fff;">
1.35
</text>
<rect x="406.0278985507249" y="311.8516785944688" width="17.85" height="7.2" transform="rotate(-60, 413.0144927536235, 318.5116785944688)" fill="#fffa"/>
<text x="406.2028985507249" y="318.5116785944688" fill="#111" font-size="0.5em" text-anchor="start" textLength="17.5" transform="rotate(-60, 413.0144927536235, 318.5116785944688)" style="text-shadow: 0 0 1px #fff;">
1.18
</text>
<rect x="419.651086956522" y="263.89372060802935" width="17.85" height="7.2" transform="rotate(-60, 426.6376811594206, 270.5537206080294)" fill="#fffa"/>
<text x="419.82608695652203" y="270.5537206080294" fill="#111" font-size="0.5em" text-anchor="start" textLength="17.5" transform="rotate(-60, 426.6376811594206, 270.5537206080294)" style="text-shadow: 0 0 1px #fff;">
1.51
</text>
<rect x="446.89746376811627" y="194.8614231654387" width="17.85" height="7.2" transform="rotate(-60, 453.88405797101484, 201.5214231654387)" fill="#fffa"/>
<text x="447.0724637681163" y="201.5214231654387" fill="#111" font-size="0.5em" text-anchor="start" textLength="17.5" transform="rotate(-60, 453.88405797101484, 201.5214231654387)" style="text-shadow: 0 0 1px #fff;">
1.98
</text>
<rect x="460.5206521739134" y="309.0038423776906" width="17.85" height="7.2" transform="rotate(-60, 467.50724637681196, 315.6638423776906)" fill="#fffa"/>
<text x="460.6956521739134" y="315.6638423776906" fill="#111" font-size="0.5em" text-anchor="start" textLength="17.5" transform="rotate(-60, 467.50724637681196, 315.6638423776906)" style="text-shadow: 0 0 1px #fff;">
1.20
</text>
<rect x="474.1438405797105" y="169.17610265384124" width="17.85" height="7.2" transform="rotate(-60, 481.1304347826091, 175.83610265384127)" fill="#fffa"/>
<text x="474.3188405797105" y="175.83610265384127" fill="#111" font-size="0.5em" text-anchor="start" textLength="17.5" transform="rotate(-60, 481.1304347826091, 175.83610265384127)" style="text-shadow: 0 0 1px #fff;">
2.15
</text>
<rect x="501.39021739130476" y="342.30643430810585" width="17.85" height="7.2" transform="rotate(-60, 508.37681159420333, 348.9664343081059)" fill="#fffa"/>
<text x="501.56521739130477" y="348.9664343081059" fill="#111" font-size="0.5em" text-anchor="start" textLength="17.5" transform="rotate(-60, 508.37681159420333, 348.9664343081059)" style="text-shadow: 0 0 1px #fff;">
0.97
</text>
<rect x="515.0134057971019" y="316.9403615494565" width="17.85" height="7.2" transform="rotate(-60, 522.0000000000005, 323.6003615494565)" fill="#fffa"/>
<text x="515.188405797102" y="323.6003615494565" fill="#111" font-size="0.5em" text-anchor="start" textLength="17.5" transform="rotate(-60, 522.0000000000005, 323.6003615494565)" style="text-shadow: 0 0 1px #fff;">
1.14
</text>
<rect x="528.636594202899" y="319.3555524675879" width="17.85" height="7.2" transform="rotate(-60, 535.6231884057976, 326.0155524675879)" fill="#fffa"/>
<text x="528.8115942028991" y="326.0155524675879" fill="#111" font-size="0.5em" text-anchor="start" textLength="17.5" transform="rotate(-60, 535.6231884057976, 326.0155524675879)" style="text-shadow: 0 0 1px #fff;">
1.13
</text>
<rect x="555.8829710144933" y="329.4623213493085" width="17.85" height="7.2" transform="rotate(-60, 562.8695652173918, 336.12232134930855)" fill="#fffa"/>
<text x="556.0579710144933" y="336.12232134930855" fill="#111" font-size="0.5em" text-anchor="start" textLength="17.5" transform="rotate(-60, 562.8695652173918, 336.12232134930855)" style="text-shadow: 0 0 1px #fff;">
1.06
</text>
<rect x="569.5061594202904" y="327.6771540107297" width="17.85" height="7.2" transform="rotate(-60, 576.492753623189, 334.3371540107297)" fill="#fffa"/>
<text x="569.6811594202904" y="334.3371540107297" fill="#111" font-size="0.5em" text-anchor="start" textLength="17.5" transform="rotate(-60, 576.492753623189, 334.3371540107297)" style="text-shadow: 0 0 1px #fff;">
1.07
</text>
<rect x="583.1293478260875" y="293.27619347358643" width="17.85" height="7.2" transform="rotate(-60, 590.1159420289861, 299.93619347358646)" fill="#fffa"/>
<text x="583.3043478260876" y="299.93619347358646" fill="#111" font-size="0.5em" text-anchor="start" textLength="17.5" transform="rotate(-60, 590.1159420289861, 299.93619347358646)" style="text-shadow: 0 0 1px #fff;">
1.30
</text>
<rect x="610.3757246376817" y="343.44155722955367" width="17.85" height="7.2" transform="rotate(-60, 617.3623188405803, 350.10155722955363)" fill="#fffa"/>
<text x="610.5507246376818" y="350.10155722955363" fill="#111" font-size="0.5em" text-anchor="start" textLength="17.5" transform="rotate(-60, 617.3623188405803, 350.10155722955363)" style="text-shadow: 0 0 1px #fff;">
0.96
</text>
<rect x="623.9989130434789" y="326.63419944406735" width="17.85" height="7.2" transform="rotate(-60, 630.9855072463774, 333.2941994440674)" fill="#fffa"/>
<text x="624.1739130434789" y="333.2941994440674" fill="#111" font-size="0.5em" text-anchor="start" textLength="17.5" transform="rotate(-60, 630.9855072463774, 333.2941994440674)" style="text-shadow: 0 0 1px #fff;">
1.08
</text>
<rect x="637.622101449276" y="228.82420375369347" width="17.85" height="7.2" transform="rotate(-60, 644.6086956521746, 235.48420375369346)" fill="#fffa"/>
<text x="637.797101449276" y="235.48420375369346" fill="#111" font-size="0.5em" text-anchor="start" textLength="17.5" transform="rotate(-60, 644.6086956521746, 235.48420375369346)" style="text-shadow: 0 0 1px #fff;">
1.75
</text>
<rect x="664.8684782608702" y="331.6964199444309" width="17.85" height="7.2" transform="rotate(-60, 671.8550724637688, 338.3564199444309)" fill="#fffa"/>
<text x="665.0434782608703" y="338.3564199444309" fill="#111" font-size="0.5em" text-anchor="start" textLength="17.5" transform="rotate(-60, 671.8550724637688, 338.3564199444309)" style="text-shadow: 0 0 1px #fff;">
1.04
</text>
<rect x="678.4916666666674" y="305.400902204493" width="17.85" height="7.2" transform="rotate(-60, 685.4782608695659, 312.060902204493)" fill="#fffa"/>
<text x="678.6666666666674" y="312.060902204493" fill="#111" font-size="0.5em" text-anchor="start" textLength="17.5" transform="rotate(-60, 685.4782608695659, 312.060902204493)" style="text-shadow: 0 0 1px #fff;">
1.22
</text>
<rect x="692.1148550724645" y="286.1648105501646" width="17.85" height="7.2" transform="rotate(-60, 699.101449275363, 292.82481055016456)" fill="#fffa"/>
<text x="692.2898550724645" y="292.82481055016456" fill="#111" font-size="0.5em" text-anchor="start" textLength="17.5" transform="rotate(-60, 699.101449275363, 292.82481055016456)" style="text-shadow: 0 0 1px #fff;">
1.35
</text>
<rect x="719.3612318840587" y="321.7971738420867" width="17.85" height="7.2" transform="rotate(-60, 726.3478260869574, 328.4571738420867)" fill="#fffa"/>
<text x="719.5362318840588" y="328.4571738420867" fill="#111" font-size="0.5em" text-anchor="start" textLength="17.5" transform="rotate(-60, 726.3478260869574, 328.4571738420867)" style="text-shadow: 0 0 1px #fff;">
1.11
</text>
<rect x="732.9844202898558" y="266.08143075266065" width="17.85" height="7.2" transform="rotate(-60, 739.9710144927545, 272.7414307526607)" fill="#fffa"/>
<text x="733.1594202898559" y="272.7414307526607" fill="#111" font-size="0.5em" text-anchor="start" textLength="17.5" transform="rotate(-60, 739.9710144927545, 272.7414307526607)" style="text-shadow: 0 0 1px #fff;">
1.49
</text>
<rect x="746.607608695653" y="241.72227259816464" width="17.85" height="7.2" transform="rotate(-60, 753.5942028985517, 248.38227259816463)" fill="#fffa"/>
<text x="746.782608695653" y="248.38227259816463" fill="#111" font-size="0.5em" text-anchor="start" textLength="17.5" transform="rotate(-60, 753.5942028985517, 248.38227259816463)" style="text-shadow: 0 0 1px #fff;">
1.66
</text>
<rect x="773.8539855072472" y="356.2513201242572" width="17.85" height="7.2" transform="rotate(-60, 780.8405797101459, 362.9113201242572)" fill="#fffa"/>
<text x="774.0289855072473" y="362.9113201242572" fill="#111" font-size="0.5em" text-anchor="start" textLength="17.5" transform="rotate(-60, 780.8405797101459, 362.9113201242572)" style="text-shadow: 0 0 1px #fff;">
0.87
</text>
<rect x="787.4771739130443" y="328.0517542157029" width="17.85" height="7.2" transform="rotate(-60, 794.463768115943, 334.71175421570285)" fill="#fffa"/>
<text x="787.6521739130444" y="334.71175421570285" fill="#111" font-size="0.5em" text-anchor="start" textLength="17.5" transform="rotate(-60, 794.463768115943, 334.71175421570285)" style="text-shadow: 0 0 1px #fff;">
1.07
</text>
<rect x="801.1003623188415" y="334.7097695017622" width="17.85" height="7.2" transform="rotate(-60, 808.0869565217401, 341.3697695017622)" fill="#fffa"/>
<text x="801.2753623188415" y="341.3697695017622" fill="#111" font-size="0.5em" text-anchor="start" textLength="17.5" transform="rotate(-60, 808.0869565217401, 341.3697695017622)" style="text-shadow: 0 0 1px #fff;">
1.02
</text>
<rect x="828.3467391304358" y="252.9503547282412" width="17.85" height="7.2" transform="rotate(-60, 835.3333333333344, 259.6103547282412)" fill="#fffa"/>
<text x="828.5217391304358" y="259.6103547282412" fill="#111" font-size="0.5em" text-anchor="start" textLength="17.5" transform="rotate(-60, 835.3333333333344, 259.6103547282412)" style="text-shadow: 0 0 1px #fff;">
1.58
</text>
<rect x="841.969927536233" y="319.44657256650777" width="17.85" height="7.2" transform="rotate(-60, 848.9565217391315, 326.1065725665078)" fill="#fffa"/>
<text x="842.1449275362329" y="326.1065725665078" fill="#111" font-size="0.5em" text-anchor="start" textLength="17.5" transform="rotate(-60, 848.9565217391315, 326.1065725665078)" style="text-shadow: 0 0 1px #fff;">
1.13
</text>
<rect x="855.5931159420301" y="234.95415609105953" width="17.85" height="7.2" transform="rotate(-60, 862.5797101449286, 241.61415609105953)" fill="#fffa"/>
<text x="855.76811594203" y="241.61415609105953" fill="#111" font-size="0.5em" text-anchor="start" textLength="17.5" transform="rotate(-60, 862.5797101449286, 241.61415609105953)" style="text-shadow: 0 0 1px #fff;">
1.70
</text>
<rect x="882.8394927536243" y="334.1936900882741" width="17.85" height="7.2" transform="rotate(-60, 889.8260869565229, 340.8536900882741)" fill="#fffa"/>
<text x="883.0144927536243" y="340.8536900882741" fill="#111" font-size="0.5em" text-anchor="start" textLength="17.5" transform="rotate(-60, 889.8260869565229, 340.8536900882741)" style="text-shadow: 0 0 1px #fff;">
1.02
</text>
<rect x="896.4626811594214" y="290.21070979161095" width="17.85" height="7.2" transform="rotate(-60, 903.44927536232, 296.8707097916109)" fill="#fffa"/>
<text x="896.6376811594214" y="296.8707097916109" fill="#111" font-size="0.5em" text-anchor="start" textLength="17.5" transform="rotate(-60, 903.44927536232, 296.8707097916109)" style="text-shadow: 0 0 1px #fff;">
1.33
</text>
<rect x="910.0858695652186" y="270.8363467204349" width="17.85" height="7.2" transform="rotate(-60, 917.0724637681171, 277.4963467204349)" fill="#fffa"/>
<text x="910.2608695652185" y="277.4963467204349" fill="#111" font-size="0.5em" text-anchor="start" textLength="17.5" transform="rotate(-60, 917.0724637681171, 277.4963467204349)" style="text-shadow: 0 0 1px #fff;">
1.46
</text>
<rect x="937.3322463768128" y="301.3122267058236" width="17.85" height="7.2" transform="rotate(-60, 944.3188405797114, 307.9722267058236)" fill="#fffa"/>
<text x="937.5072463768129" y="307.9722267058236" fill="#111" font-size="0.5em" text-anchor="start" textLength="17.5" transform="rotate(-60, 944.3188405797114, 307.9722267058236)" style="text-shadow: 0 0 1px #fff;">
1.25
</text>
<rect x="950.9554347826099" y="313.35095489853495" width="17.85" height="7.2" transform="rotate(-60, 957.9420289855085, 320.010954898535)" fill="#fffa"/>
<text x="951.13043478261" y="320.010954898535" fill="#111" font-size="0.5em" text-anchor="start" textLength="17.5" transform="rotate(-60, 957.9420289855085, 320.010954898535)" style="text-shadow: 0 0 1px #fff;">
1.17
</text>
<rect x="964.578623188407" y="264.74243138106215" width="17.85" height="7.2" transform="rotate(-60, 971.5652173913056, 271.4024313810622)" fill="#fffa"/>
<text x="964.7536231884071" y="271.4024313810622" fill="#111" font-size="0.5em" text-anchor="start" textLength="17.5" transform="rotate(-60, 971.5652173913056, 271.4024313810622)" style="text-shadow: 0 0 1px #fff;">
1.50
</text>
</svg>